<ttFont>
          <CharString index="0">
            -78 -15 66 -51 97 648 97 573 98 -51 66 hstemhm
            265 222 hintmask 00000000
            hintmask 01110100
            52 23 callgsubr
            vhcurveto
            hintmask 10101100
            -2 callgsubr
            -10 callgsubr
            -24 -59 -100 -25 -101 hhcurveto
            -207 hlineto
            -61 -36 36 103 hvcurveto
            442 vlineto
            37 33 30 57 vhcurveto
            246 hlineto
            51 76 -48 -89 38 hvcurveto
            hintmask 01110100
            -16 7 6 -11 12 hhcurveto
            15 11 14 36 24 -2 23 -2 25 hvcurveto
            -3 25 -1 26 33 vvcurveto
            35 2 30 3 29 vhcurveto
            2 26 1 23 16 vvcurveto
            36 -11 15 -15 -12 -6 -12 -15 -7 vhcurveto
            -89 -38 -76 -39 -51 hhcurveto
            -245 hlineto
            -67 -24 22 35 hvcurveto
            424 vlineto
            59 23 33 74 vhcurveto
            267 hlineto
            113 56 -28 -47 58 hvcurveto
            39 -32 82 -92 24 -30 rrcurveto
            -22 18 6 -3 11 hhcurveto
            9 7 8 15 27 -13 40 -24 78 hvcurveto
            -19 59 -17 66 -7 59 rrcurveto
            -812 hlineto
            -62 -35 5 -13 callsubr
            -96 callgsubr
            -74 -65 callgsubr
            hvcurveto
            return
          </CharString>
          <CharString index="1">
            vlineto
            -107 callgsubr
            return
          </CharString>
          <CharString index="2">
            944 1456 72 -65 51 -51 65 hstemhm
            -52 2490 hintmask 00110000
            616 -59 rmoveto
            -15 9 -10 26 81 166 121 306 109 vhcurveto
            213 614 237 -677 rlineto
            -230 76 151 -134 90 hhcurveto
            25 12 10 15 15 -7 8 -25 10 hvcurveto
            -31 12 -10 20 29 vvcurveto
            36 10 31 128 340 vhcurveto
            257 727 rlineto
            264 93 54 30 69 -44 callsubr
            hintmask 01010000
            -4 -24 -25 -3 -41 hhcurveto
            -26 -26 3 4 -32 hvcurveto
            hintmask 10010000
            -50 callgsubr
            -21 -56 -28 -80 hvcurveto
            -301 -872 rlineto
            -50 -18 -10 -10 -9 hhcurveto
            -8 -15 1 95 -30 hvcurveto
            -281 875 rlineto
            -24 74 -11 40 18 vvcurveto
            32 15 17 49 14 12 -2 -2 11 vhcurveto
            -46 callgsubr
            -33 4 4 -32 hvcurveto
            hintmask 00110000
            3 -31 -24 3 -33 hhcurveto
            -60 -28 -23 -24 -17 12 -9 21 10 8 2 2 8 hvcurveto
            2 10 9 -16 callgsubr
            60 35 -20 -184 64 hvcurveto
            48 -138 -256 -748 rlineto
            -51 -17 -11 -9 -10 hhcurveto
            -7 -15 3 93 -36 hvcurveto
            -351 875 rlineto
            -29 72 -11 43 -11 callgsubr
            hintmask 10010000
            -46 callgsubr
            -41 4 4 -32 hvcurveto
            hintmask 00110000
            3 -31 -24 3 -33 hhcurveto
            -60 -28 -23 -24 -17 12 -9 21 10 8 2 2 8 hvcurveto
            2 10 9 12 callsubr
            40 -26 -182 77 hvcurveto
            428 -1014 rlineto
            39 -95 25 -76 -35 vvcurveto
            -32 -10 -15 -32 -14 vhcurveto
            -12 -7 -18 -6 -20 vvcurveto
            return
          </CharString>
          <CharString index="3">
            93 505 rmoveto
            -331 254 -198 310 167 150 59 120 89 vhcurveto
            32 44 5 30 12 vvcurveto
            15 -11 11 -15 -20 -9 -11 -28 -20 vhcurveto
            -81 -56 -142 -55 -98 hhcurveto
            -173 -164 123 212 -47 hvcurveto
            218 52 203 45 306 111 rrcurveto
            41 15 5 22 23 vvcurveto
            23 -9 20 -17 30 vhcurveto
            94 -52 -116 170 -273 hhcurveto
            -332 -226 -254 -273 hvcurveto
            240 6 rmoveto
            -1 13 0 14 14 vvcurveto
            264 132 124 160 158 97 -177 -73 -12 -3 -11 -21 -7 vhcurveto
            -143 -50 -183 -50 -196 -49 rrcurveto
            return
          </CharString>
          <CharString index="4">
            225 hintmask 1001001010000000
            271 322 rmoveto
            -203 167 -143 224 137 103 59 79 81 vhcurveto
            hintmask 0011001010000000
            -55 callgsubr
            hintmask 0100101010000000
            -3 29 28 -1 21 hhcurveto
            73 20 25 23 14 -13 11 -19 -10 -8 -1 -34 callsubr
            -10 -2 -9 -27 callsubr
            39 -16 hvcurveto
            -18 45 -3 64 130 vvcurveto
            518 vlineto
            123 -16 23 -50 -21 -20 -1 -2 -18 vhcurveto
            -1 -17 -16 -2 -17 hhcurveto
            -16 -29 1 4 -30 hvcurveto
            hintmask 1001001010000000
            -89 callgsubr
            hintmask 1000101010000000
            123 -16 22 -65 callsubr
            -63 -130 vvcurveto
            hintmask 0000010100000000
            return
          </CharString>
          <CharString index="5">
            hhcurveto
            -40 -14 4 3 -24 hvcurveto
            3 -23 -29 2 -15 hhcurveto
            -48 -12 -20 -16 -24 25 -6 22 -3 hvcurveto
            48 -7 39 -7 26 -34 rrcurveto
            return
          </CharString>
          <CharString index="6">
            5 31 61 -20 callsubr
            34 61 -3 -5 31 hvcurveto
            -3 24 47 -4 39 hhcurveto
            68 20 25 21 16 -12 11 -21 -13 -8 -46 callsubr
            -8 -10 -1 -16 hhcurveto
            -33 -31 -78 callsubr
            return
          </CharString>
          <CharString index="7">
            384 92 179 129 169 -119 88 -313 75 hvcurveto
            -235 56 -64 48 87 vvcurveto
            66 81 72 151 117 171 -47 -151 77 vhcurveto
            -30 15 9 -8 16 hhcurveto
            10 12 6 16 7 -1 17 -6 21 hvcurveto
            -11 40 -8 83 96 vvcurveto
            26 -11 11 -17 -17 -9 -13 -13 -10 vhcurveto
            -13 -10 -11 -13 -13 hhcurveto
            -18 -39 14 3 -11 hvcurveto
            18 -71 -82 17 -77 hhcurveto
            -299 -140 -157 -129 -140 93 -120 322 -81 hvcurveto
            266 -67 58 -45 -69 vvcurveto
            -116 -110 -45 -138 -221 -193 107 153 -44 vhcurveto
            27 -8 -11 10 -18 hhcurveto
            -12 -11 -11 -13 hvcurveto
            return
          </CharString>
          <CharString index="8">
            hhcurveto
            81 18 35 callgsubr
            9 -20 -9 -9 -2 -2 -8 hvcurveto
            8 callgsubr
            return
          </CharString>
          <CharString index="9">
            3 -29 -28 1 -21 hhcurveto
            -73 -20 -25 -23 -32 callsubr
            8 1 -37 callgsubr
            2 10 10 2 9 hhcurveto
            36 35 -4 -39 16 hvcurveto
            18 -45 3 return
          </CharString>
          <CharString index="10">
            rmoveto
            10 22 6 15 21 hvcurveto
            261 169 263 -169 rlineto
            -15 21 23 -6 10 hhcurveto
            19 7 14 11 10 -4 15 -13 14 hvcurveto
            -219 248 rlineto
            64 -54 -27 14 -27 hhcurveto
            -28 -18 -11 -67 -58 hvcurveto
            -219 -248 rlineto
            -13 -14 -4 -15 -31 callsubr
          </CharString>
          <CharString index="11">
            hintmask 11001000
            184 -262 rmoveto
            -33 -29 -32 -42 -89 86 -78 146 94 118 62 304 147 hvcurveto
            332 814 rlineto
            204 83 55 63 77 hhcurveto
            13 9 -2 -2 9 hvcurveto
            -50 callsubr
            8 hhcurveto
            17 15 11 14 26 -29 22 -56 hvcurveto
            -55 -48 -16 -49 hhcurveto
            -33 -27 3 4 -32 hvcurveto
            4 -34 -34 5 -34 hhcurveto
            -64 -27 -21 -27 -14 12 -11 20 13 12 2 2 12 hvcurveto
            hintmask 10101000
            2 13 14 3 18 hhcurveto
            44 19 -15 -30 -34 -13 -42 -48 -120 hvcurveto
            -198 -496 -239 555 rlineto
            -16 38 -29 61 28 vvcurveto
            34 20 21 52 vhcurveto
            hintmask 11001000
            28 24 -9 24 20 callgsubr
            -20 26 -73 -48 -35 -3 -4 -48 hvcurveto
            -6 -47 -47 -3 -41 hhcurveto
            -37 -32 5 5 -34 hvcurveto
            3 -32 -26 3 -35 hhcurveto
            -63 -29 -22 -26 -14 13 -11 19 34 callgsubr
            2 9 9 2 11 hhcurveto
            45 47 -34 -188 91 hvcurveto
            375 -776 -1 -4 rlineto
            -306 -145 -49 -35 -69 hhcurveto
            -53 -23 17 55 -31 hvcurveto
            46 -26 -20 20 -38 hhcurveto
            hintmask 00010100
            return
          </CharString>
          <CharString index="12">
            rmoveto
            232 122 130 213 64 hvcurveto
            -73 23 -63 23 -73 -25 rrcurveto
            -167 -24 -80 -109 -105 hhcurveto
            -105 -80 109 167 -24 hvcurveto
            -73 22 -63 -15 -73 -28 rrcurveto
            -213 64 122 -130 232 hhcurveto
            endchar
          </CharString>
          <CharString index="13">
            262 -23 115 1371 98 15 -20 hstemhm
            149 215 hintmask 00000000
            hintmask 11010000
            149 729 rmoveto
            -421 311 -331 497 236 211 81 144 153 vhcurveto
            283 vlineto
            35 -2 24 -19 -22 -8 -25 -34 -9 vhcurveto
            -297 -74 -202 -96 -171 hhcurveto
            hintmask 10110000
            -375 -311 337 448 348 254 238 316 224 239 -135 -216 112 hvcurveto
            hintmask 11010000
            -18 9 8 -5 14 hhcurveto
            15 9 11 31 30 -14 43 -21 82 hvcurveto
            -23 87 -8 64 90 vvcurveto
            37 -7 12 -18 -12 -11 -8 -49 -47 vhcurveto
            -35 -34 -22 -11 -21 hhcurveto
            -14 -19 7 10 -25 hvcurveto
            26 -65 -105 45 -158 hhcurveto
            -432 -359 -334 -498 hvcurveto
            return
          </CharString>
          <CharString index="14">
            vhcurveto
            -160 -199 rlineto
            -12 -14 -5 -9 -10 vvcurveto
            -11 8 -14 19 vhcurveto
            return
          </CharString>
          <CharString index="15">
            46 rmoveto
            16 callsubr
            39 67 -31 callgsubr
            vhcurveto
            5 31 61 -20 callsubr
            34 61 -3 -5 31 hvcurveto
            -3 24 67 -4 39 hhcurveto
            68 30 25 21 16 -12 14 -21 -17 -14 -2 -3 -15 hvcurveto
            -3 -13 -15 -2 -20 hhcurveto
            -36 -28 -78 callsubr
            return
          </CharString>
          <CharString index="16">
            -84 callsubr
            2 -9 -8 2 -13 hhcurveto
            return
          </CharString>
          <CharString index="17">
            119 87 92 57 109 hhcurveto
            173 122 -92 -195 hvcurveto
            -120 vlineto
            51 -94 -112 25 -107 hhcurveto
            -225 -202 -88 -230 hvcurveto
            233 22 rmoveto
            106 83 95 170 90 99 -33 -40 65 vhcurveto
            -238 vlineto
            -76 -58 -103 -43 -92 hhcurveto
            -166 -88 90 139 hvcurveto
            return
          </CharString>
          <CharString index="18">
            88 58 74 70 78 -46 75 -98 -88 -59 -65 -85 -71 42 -76 103 hvcurveto
            return
          </CharString>
          <CharString index="19">
            33 42 5 32 12 vvcurveto
            15 -14 11 -13 -20 -9 -11 -28 -21 vhcurveto
            -93 -62 -116 -43 -96 hhcurveto
            -203 -187 191 281 223 147 153 169 127 118 -63 -121 97 hvcurveto
            -41 33 19 -13 15 hhcurveto
            13 10 8 17 9 -3 14 -7 20 hvcurveto
            -25 70 -2 53 106 vvcurveto
            26 -10 7 -19 -16 -19 -7 -14 -26 vhcurveto
            -11 -21 -25 -11 -16 hhcurveto
            -14 -12 4 7 -20 hvcurveto
            16 -53 -55 16 -93 hhcurveto
            -344 -204 -261 -266 hvcurveto
            return
          </CharString>
          <CharString index="20">
            45 rmoveto
            -20 15 -25 80 28 22 3 4 27 vhcurveto
            3 20 68 5 41 hhcurveto
            40 60 -5 -3 31 hvcurveto
            -48 callsubr
            return
          </CharString>
          <CharString index="21">
            94 0 97 -20 20 11 callsubr
            1341 vstem
            99 39 rmoveto
            -23 22 -16 50 vhcurveto
            1143 hlineto
            31 133 20 58 47 98 rrcurveto
            21 42 7 24 14 vvcurveto
            15 -9 7 -12 -12 -10 -7 -25 -24 vhcurveto
            -72 -77 -38 -33 -57 -43 rrcurveto
            -86 -110 -73 -23 -131 hhcurveto
            -469 hlineto
            970 1328 rlineto
            21 29 8 17 14 vvcurveto
            16 -19 12 -42 vhcurveto
            -936 hlineto
            -81 -17 6 18 -14 hvcurveto
            31 -24 -10 8 -13 hhcurveto
            -12 -13 -9 -40 -7 hvcurveto
            -27 -164 -59 -127 -50 vvcurveto
            -19 7 -8 11 13 9 7 17 13 vhcurveto
            48 59 101 96 119 48 rrcurveto
            18 48 104 11 72 hhcurveto
            409 hlineto
            -972 -1314 rlineto
            -21 -29 -10 -17 -16 vvcurveto
            return
          </CharString>
          <CharString index="22">
            782 -15 66 -51 66 -66 97 -82 51 394 87 198 97 573 98 -51 66 hstemhm
            1125 222 hintmask 0100110110000000
            39 hmoveto
            25 17 3 5 26 hvcurveto
            hintmask 0001110110000000
            4 24 57 3 25 hhcurveto
            34 41 25 callsubr
            hintmask 0100110110000000
            -5 33 30 -2 35 hhcurveto
            hintmask 1000110110000000
            69 35 19 32 15 -10 8 -17 -11 -7 -2 -2 -7 hvcurveto
            hintmask 0100110110000000
            -2 -7 -8 -2 -11 hhcurveto
            -50 -19 16 26 31 36 55 58 85 hvcurveto
            80 116 rlineto
            42 29 20 23 75 hhcurveto
            452 -89 hlineto
            -113 -11 -124 -36 callsubr
            hintmask 1000110110000000
            -6 callgsubr
            hintmask 0100110110000000
            -10 callgsubr
            hintmask 0010111010000000
            -24 -59 -100 -25 -101 hhcurveto
            -207 hlineto
            -61 -36 36 103 hvcurveto
            442 vlineto
            37 33 30 57 vhcurveto
            246 hlineto
            51 76 -48 -89 38 hvcurveto
            -16 7 6 -11 12 hhcurveto
            15 11 14 36 24 -2 23 -2 25 hvcurveto
            -3 25 -1 26 33 vvcurveto
            35 2 30 3 29 vhcurveto
            2 26 1 23 16 vvcurveto
            36 -11 15 -15 -12 -6 -12 -15 -7 vhcurveto
            -89 -38 -76 -39 -51 hhcurveto
            -245 hlineto
            -67 -24 22 35 hvcurveto
            424 vlineto
            59 23 33 74 vhcurveto
            267 hlineto
            113 56 -28 -47 58 hvcurveto
            39 -32 82 -92 24 -30 rrcurveto
            -22 18 6 -3 11 hhcurveto
            9 7 8 15 27 -13 40 -24 78 hvcurveto
            -19 59 -17 66 -7 59 rrcurveto
            -743 hlineto
            -62 -85 5 -13 callsubr
            hintmask 0100110110000000
            3 -30 -31 3 -49 hhcurveto
            -68 -20 -24 -21 -18 12 -10 21 9 7 1 2 7 hvcurveto
            2 8 8 12 callsubr
            40 -1 -35 -16 -10 -42 -59 -83 hvcurveto
            -659 -930 rlineto
            -255 -181 -76 -34 -55 hhcurveto
            -10 -8 -42 callsubr
            2 -7 -6 1 -7 hhcurveto
            -27 -12 -14 -19 -21 21 -19 48 hvcurveto
            626 574 rmoveto
            12 10 21 11 16 vhcurveto
            439 635 rlineto
            -711 -408 vlineto
            -38 -14 9 18 hvcurveto
            return
          </CharString>
          <CharString index="23">
            -96 callgsubr
            -59 -36 callsubr
            -84 callgsubr
            return
          </CharString>
          <CharString index="24">
            hvcurveto
            -3 29 28 -1 21 hhcurveto
            73 20 25 23 14 -13 11 -19 -10 -8 -1 -34 callsubr
            -10 -2 -9 -27 callsubr
            39 -16 hvcurveto
            -18 45 -3 64 130 vvcurveto
            return
          </CharString>
          <CharString index="25">
            -98 callsubr
            -63 -130 vvcurveto
            return
          </CharString>
          <CharString index="26">
            10 -19 hvcurveto
            12 -24 -19 8 -19 hhcurveto
            -13 -19 -7 -37 -77 -7 -79 -20 -60 hvcurveto
            -7 -20 -4 -16 -15 vvcurveto
            -12 7 -12 17 17 12 6 56 42 vhcurveto
            return
          </CharString>
          <CharString index="27">
            112 -7 11 -51 -18 -20 -4 -3 -22 vhcurveto
            -4 -27 -31 -3 -34 hhcurveto
            -35 -37 3 3 -25 hvcurveto
            return
          </CharString>
          <CharString index="28">
            rmoveto
            10 17 9 31 21 hvcurveto
            42 29 28 23 44 hhcurveto
            41 47 -18 -31 74 hvcurveto
            -63 callgsubr
            40 -80 -63 13 -47 hhcurveto
            -60 -48 -19 -54 -52 hvcurveto
            -46 -49 -38 -67 -44 vvcurveto
            -21 12 -8 11 vhcurveto
            endchar
          </CharString>
          <CharString index="29">
            11 25 -14 hvcurveto
            -27 47 -11 59 113 vvcurveto
            return
          </CharString>
          <CharString index="30">
            -64 callgsubr
            40 60 -5 -3 31 hvcurveto
            -29 callsubr
            return
          </CharString>
          <CharString index="31">
            -113 -11 -59 -65 callgsubr
            hvcurveto
            return
          </CharString>
          <CharString index="32">
            33 -47 -54 -44 -11 -103 -83 -69 callsubr
          </CharString>
          <CharString index="33">
            -113 -11 -59 -36 callsubr
            -25 -14 -28 -11 -36 hhcurveto
            -20 -15 2 3 -13 hvcurveto
            3 -15 -14 2 -17 hhcurveto
            -21 -12 -14 -16 return
          </CharString>
          <CharString index="34">
            rmoveto
            -69 49 -88 114 -82 callgsubr
            vhcurveto
            return
          </CharString>
          <CharString index="35">
            -92 callgsubr
            -71 callsubr
            -24 callsubr
            80 -5 callsubr
            37 35 -3 -4 35 hvcurveto
            -4 36 35 -4 35 -99 callsubr
            return
          </CharString>
          <CharString index="36">
            2 -8 -8 1 -7 hhcurveto
            -19 -14 -9 -19 return
          </CharString>
          <CharString index="37">
            406 -92 callsubr
            return
          </CharString>
          <CharString index="38">
            -93 callsubr
            endchar
          </CharString>
          <CharString index="39">
            -91 callsubr
            -21 -12 -11 -16 hvcurveto
            435 780 rmoveto
            485 vlineto
            return
          </CharString>
          <CharString index="40">
            vlineto
            -92 callgsubr
            37 callgsubr
            return
          </CharString>
          <CharString index="41">
            -93 -56 -65 -79 -68 36 -46 89 -27 hvcurveto
            -12 callsubr
            -50 -75 -95 -43 rrcurveto
            -35 -15 -12 -15 -18 vvcurveto
            -25 17 -15 32 125 154 12 callgsubr
            -69 82 -113 vhcurveto
            return
          </CharString>
          <CharString index="42">
            -50 -21 -20 -1 -2 -18 vhcurveto
            -1 -17 -16 -2 -17 hhcurveto
            -16 -29 1 4 -30 hvcurveto
            hintmask 1001001010000000
            -98 callsubr
            return
          </CharString>
          <CharString index="43">
            8 21 37 8 35 hhcurveto
            87 48 -43 -74 -46 -33 -35 -52 -44 -33 11 39 -44 hvcurveto
            28 -30 -22 11 -26 hhcurveto
            -33 -19 -27 -24 -78 135 -27 70 133 132 80 100 93 -112 61 -121 -7 -7 0 -1 -8 hvcurveto
            return
          </CharString>
          <CharString index="44">
            -77 callsubr
            60 hhcurveto
            60 45 35 callgsubr
            10 -20 -13 -10 -14 callsubr
            -11 -11 -2 -13 hhcurveto
            -37 -41 -78 callgsubr
            return
          </CharString>
          <CharString index="45">
            250 rmoveto
            -10 11 -12 41 vhcurveto
            378 -47 hlineto
            -55 -15 -53 -13 -23 vhcurveto
            -15 -8 -17 -8 -17 hhcurveto
            -10 -10 1 2 -8 hvcurveto
            2 -10 -8 2 -8 hhcurveto
            -19 -10 -13 -12 -19 20 -18 40 32 30 1 3 30 hvcurveto
            3 31 30 3 30 hhcurveto
            30 32 -3 -9 callgsubr
            -3 30 30 -1 32 hhcurveto
            40 20 18 19 12 -10 13 -19 -8 -8 -14 callsubr
            -8 -10 -1 -10 hhcurveto
            -17 -17 8 15 -8 hvcurveto
            -13 23 -10 53 55 vvcurveto
            47 120 vlineto
            21 11 4 19 7 hvcurveto
            12 32 27 47 11 15 rrcurveto
            9 12 3 6 6 vvcurveto
            10 -6 5 -10 -8 -6 -4 -10 -13 vhcurveto
            -25 -34 -33 -9 -51 hhcurveto
            -60 537 hlineto
            32 -4 15 -16 -13 -14 -12 -29 -26 vhcurveto
            -513 -575 rlineto
            -25 -28 -6 -13 -13 vvcurveto
            158 86 rmoveto
            272 312 rlineto
            -312 vlineto
            return
          </CharString>
          <CharString index="46">
            173 293 rmoveto
            -193 138 -124 279 123 126 48 78 75 vhcurveto
            return
          </CharString>
          <CharString index="47">
            10 10 3 12 23 hvcurveto
            return
          </CharString>
          <CharString index="48">
            -50 -21 -20 -1 -2 -18 vhcurveto
            -1 -17 -16 -2 -17 hhcurveto
            -16 -29 1 4 -30 hvcurveto
            hintmask 10010110
            -98 callsubr
            return
          </CharString>
          <CharString index="49">
            rmoveto
            -60 callsubr
            return
          </CharString>
          <CharString index="50">
            86 -46 209 -155 116 -153 rrcurveto
            -45 34 7 -12 13 hhcurveto
            12 6 9 21 69 -101 195 -141 145 hvcurveto
            141 145 101 195 69 vvcurveto
            21 -6 9 -12 -13 -7 -12 -45 -34 vhcurveto
            -116 -153 -209 -155 -86 -46 rrcurveto
            -20 -11 -9 -5 -12 vvcurveto
            -12 9 -5 20 -11 vhcurveto
            return
          </CharString>
          <CharString index="51">
            -47 callsubr
            4 callgsubr
            487 225 hintmask 10010110
            271 322 rmoveto
            -203 167 -143 224 137 103 59 79 81 vhcurveto
            hintmask 00110110
            return
          </CharString>
          <CharString index="52">
            -2 -9 -8 -1 -8 hhcurveto
            -28 -33 16 36 -13 hvcurveto
            -18 48 -9 52 130 vvcurveto
            345 vlineto
            203 -142 136 -224 -160 -155 -81 -96 -96 vhcurveto
            110 -56 -117 67 -157 hhcurveto
            -141 -137 -62 -81 -96 hvcurveto
            111 -1 -30 9 -43 hhcurveto
            -37 callsubr
            hvcurveto
            -3 -25 -24 -3 -25 -102 callsubr
            30 -39 14 -74 -140 vvcurveto
            -291 vlineto
            -92 callgsubr
            return
          </CharString>
          <CharString index="53">
            rmoveto
            163 71 73 63 70 hhcurveto
            82 28 -21 -105 145 hvcurveto
            -91 125 81 -42 94 hhcurveto
            129 123 82 222 79 hvcurveto
            -120 58 rlineto
            -163 -56 -76 -62 -62 hhcurveto
            -73 -44 24 101 -138 hvcurveto
            101 -138 -86 33 -88 hhcurveto
            -145 -135 -142 -162 -59 hvcurveto
            return
          </CharString>
          <CharString index="54">
            -79 34 callsubr
            65 -41 -21 516 95 331 90 7 -20 return
          </CharString>
          <CharString index="55">
            189 373 188 vstem
            325 28 rmoveto
            -31 21 -21 34 31 22 14 54 42 vhcurveto
            1068 1373 rlineto
            36 46 10 27 20 vvcurveto
            31 -25 20 -31 -37 -22 -19 -69 -52 vhcurveto
            -1032 -1324 rlineto
            -56 -71 -9 -22 -28 vvcurveto
            183 826 rmoveto
            -39 callsubr
            -160 97 -193 281 hvcurveto
            44 77 rmoveto
            -117 -116 144 191 -29 callgsubr
            hvcurveto
            return
          </CharString>
          <CharString index="56" raw="1">
            260afa0a 07511d0b  
          </CharString>
          <CharString index="57">
            -2 9 8 -2 return
          </CharString>
          <CharString index="58">
            -71 callgsubr
            13 hhcurveto
            47 21 -15 -27 return
          </CharString>
          <CharString index="59">
            -29 callsubr
            39 -99 callsubr
            return
          </CharString>
          <CharString index="60">
            87 34 callsubr
            66 -42 -21 946 66 -3 -20 return
          </CharString>
          <CharString index="61">
            -2 -2 -9 hvcurveto
            -2 return
          </CharString>
          <CharString index="62">
            37 -73 -90 21 -110 hhcurveto
            -310 -234 -235 -290 hvcurveto
            230 50 rmoveto
            204 119 179 210 92 104 -39 -80 62 vhcurveto
            -674 vlineto
            return
          </CharString>
          <CharString index="63">
            hhcurveto
            11 10 -2 40 callgsubr
            8 -2 8 hhcurveto
            21 12 10 16 29 -36 18 -41 -31 -21 -4 -3 -22 hvcurveto
            return
          </CharString>
          <CharString index="64">
            122 rlineto
            117 60 19 46 47 vvcurveto
            48 return
          </CharString>
          <CharString index="65">
            2 2 -9 hvcurveto
            return
          </CharString>
          <CharString index="66">
            93 56 65 79 68 -36 46 -89 27 hvcurveto
            -49 14 -15 19 -2 31 -4 51 50 75 95 43 rrcurveto
            35 15 12 15 18 vvcurveto
            25 -17 15 -32 -125 -154 -202 -170 -152 69 -82 113 vhcurveto
            return
          </CharString>
          <CharString index="67">
            17 callgsubr
            45 -30 23 -43 hvcurveto
            return
          </CharString>
          <CharString index="68">
            197 175 133 232 191 -143 151 -231 -211 -165 -161 -193 return
          </CharString>
          <CharString index="69">
            -4 -44 -45 -2 -39 hhcurveto
            -36 return
          </CharString>
          <CharString index="70">
            -27 -25 -3 -3 -24 return
          </CharString>
          <CharString index="71">
            -27 -47 vhcurveto
            return
          </CharString>
          <CharString index="72">
            62 hlineto
            34 165 33 144 16 70 rrcurveto
            12 51 6 38 41 vvcurveto
            78 -53 47 -69 -72 -57 -47 -78 -31 7 -39 12 -62 vhcurveto
            14 -71 30 -150 25 -156 rrcurveto
            return
          </CharString>
          <CharString index="73">
            -2 -9 hvcurveto
            -2 -10 return
          </CharString>
          <CharString index="74">
            -43 -30 -23 -45 -43 28 -26 43 hvcurveto
            return
          </CharString>
          <CharString index="75">
            -28 callgsubr
            10 return
          </CharString>
          <CharString index="76">
            -10 vvcurveto
            -11 8 -14 19 vhcurveto
            endchar
          </CharString>
          <CharString index="77">
            -44 11 21 -13 26 -68 callgsubr
            16 2 17 hhcurveto
            16 29 -1 -4 30 hvcurveto
            return
          </CharString>
          <CharString index="78">
            -2 24 19 -5 return
          </CharString>
          <CharString index="79">
            146 -13 callgsubr
            85 1 callgsubr
            vhcurveto
            -100 callgsubr
            return
          </CharString>
          <CharString index="80">
            hhcurveto
            -36 -35 4 return
          </CharString>
          <CharString index="81">
            58 -10 -25 6 -35 hhcurveto
            -37 callsubr
            hvcurveto
            -3 -25 -24 -3 -25 -102 callsubr
            30 -39 14 -74 -140 vvcurveto
            225 -403 rmoveto
            605 vlineto
            return
          </CharString>
          <CharString index="82">
            -13 callgsubr
            80 return
          </CharString>
          <CharString index="83">
            -20 15 -25 return
          </CharString>
          <CharString index="84">
            13 -3 13 hhcurveto
            return
          </CharString>
          <CharString index="85">
            173 293 rmoveto
            -193 157 -124 279 169 155 69 111 100 vhcurveto
            -114 97 150 -66 180 hhcurveto
            184 2 callsubr
            return
          </CharString>
          <CharString index="86">
            -7 -1 -8 hhcurveto
            return
          </CharString>
          <CharString index="87">
            3 34 hhcurveto
            return
          </CharString>
          <CharString index="88">
            1 callgsubr
            hvcurveto
            4 32 59 4 39 hhcurveto
            44 41 -3 -5 33 hvcurveto
            return
          </CharString>
          <CharString index="89">
            995 rmoveto
            -25 17 -15 32 125 124 202 170 0 callgsubr
            vhcurveto
            -12 callsubr
            -20 -75 -95 -43 rrcurveto
            -35 -15 -12 -15 -18 vvcurveto
            return
          </CharString>
          <CharString index="90">
            -21 20 -25 68 return
          </CharString>
          <CharString index="91">
            -92 142 169 -34 105 hhcurveto
            277 298 160 340 hvcurveto
            return
          </CharString>
          <CharString index="92">
            -590 0 66 943 -20 return
          </CharString>
          <CharString index="93">
            -2 -2 -10 hvcurveto
            -2 return
          </CharString>
          <CharString index="94">
            4 -35 hvcurveto
            return
          </CharString>
          <CharString index="95">
            49 -14 15 -19 2 -31 4 -51 return
          </CharString>
          <CharString index="96">
            rmoveto
            -318 210 -209 344 101 94 29 48 76 vhcurveto
            return
          </CharString>
          <CharString index="97">
            rmoveto
            676 127 -676 hlineto
            endchar
          </CharString>
          <CharString index="98">
            -20 84 -67 66 -42 -21 940 92 hstemhm
            101 230 587 225 hintmask 10011100
            return
          </CharString>
          <CharString index="99">
            hhcurveto
            -9 -10 1 2 -8 hvcurveto
            -60 callgsubr
            hvcurveto
            return
          </CharString>
          <CharString index="100">
            -86 vhcurveto
            43 -10 -6 13 -16 hhcurveto
            -23 -10 -22 -93 hvcurveto
            return
          </CharString>
          <CharString index="101">
            -79 -503 103 1336 73 -64 64 return
          </CharString>
          <CharString index="102">
            -47 callgsubr
            hvcurveto
            -57 callgsubr
            return
          </CharString>
          <CharString index="103">
            19 19 49 14 12 -2 -2 11 vhcurveto
            return
          </CharString>
          <CharString index="104">
            -79 -24 88 877 91 return
          </CharString>
          <CharString index="105">
            hlineto
            83 359 rlineto
            7 31 5 41 13 vvcurveto
            36 -30 23 -31 -41 -27 -24 -112 -26 vhcurveto
            -87 -367 rlineto
            return
          </CharString>
          <CharString index="106">
            rmoveto
            689 -423 rlineto
            169 vlineto
            -464 287 464 282 rlineto
            163 vlineto
            -689 -418 rlineto
            return
          </CharString>
          <CharString index="107">
            hstemhm
            173 233 return
          </CharString>
          <CharString index="108">
            rmoveto
            -55 82 76 -26 103 hhcurveto
            172 198 119 178 135 -112 87 -124 22 hvcurveto
            return
          </CharString>
          <CharString index="109">
            150 59 120 89 hvcurveto
            32 44 5 30 12 vvcurveto
            15 -11 11 -15 -20 -9 -11 -28 -20 vhcurveto
            return
          </CharString>
          <CharString index="110">
            87 0 30 callgsubr
            return
          </CharString>
          <CharString index="111">
            -69 49 -88 114 -82 callgsubr
            vhcurveto
            endchar
          </CharString>
          <CharString index="112">
            17 -13 10 -18 -8 -10 -2 -2 -9 return
          </CharString>
          <CharString index="113">
            46 48 6 39 49 -52 3 -43 hvcurveto
            return
          </CharString>
          <CharString index="114">
            -76 -7 -40 -18 -32 vhcurveto
            -17 -10 -21 -7 -22 hhcurveto
            -11 -7 1 1 -5 hvcurveto
            1 -6 return
          </CharString>
          <CharString index="115">
            422 137 -422 434 -141 -434 -422 -137 422 hlineto
            return
          </CharString>
          <CharString index="116">
            -249 -24 87 882 87 return
          </CharString>
          <CharString index="117">
            rlineto
            12 30 10 42 21 vvcurveto
            26 -20 25 -33 -40 -30 -23 -113 -42 vhcurveto
            return
          </CharString>
          <CharString index="118">
            1318 98 63 -20 hstem
            99 return
          </CharString>
          <CharString index="119">
            -16 callgsubr
            43 return
          </CharString>
          <CharString index="120">
            -484 -243 -188 -412 -260 -64 48 115 vhcurveto
            endchar
          </CharString>
          <CharString index="121">
            -81 -530 66 440 92 873 91 return
          </CharString>
          <CharString index="122">
            -31 -85 -4 -18 -15 vvcurveto
            -32 19 -33 46 37 25 33 35 13 vhcurveto
            return
          </CharString>
          <CharString index="123">
            -21 30 -25 68 return
          </CharString>
          <CharString index="124">
            265 0 66 868 77 631 88 hstemhm
            285 225 return
          </CharString>
          <CharString index="125">
            -590 -530 86 1453 -20 return
          </CharString>
          <CharString index="126">
            985 137 -985 hlineto
            return
          </CharString>
          <CharString index="127">
            -530 67 198 69 return
          </CharString>
          <CharString index="128">
            -48 callgsubr
            3 -24 return
          </CharString>
          <CharString index="129">
            157 -50 157 hstemhm
            return
          </CharString>
          <CharString index="130">
            28 callsubr
            -2 return
          </CharString>
          <CharString index="131">
            5 31 67 3 return
          </CharString>
          <CharString index="132">
            -4 -4 32 hvcurveto
            return
          </CharString>
          <CharString index="133">
            -15 callsubr
            33 callsubr
            return
          </CharString>
          <CharString index="134">
            140 340 140 hintmask 11000000
            return
          </CharString>
          <CharString index="135">
            12 31 callgsubr
            return
          </CharString>
          <CharString index="136">
            hstemhm
            334 225 return
          </CharString>
          <CharString index="137">
            123 236 return
          </CharString>
          <CharString index="138">
            -189 vlineto
            -49 16 -26 35 28 18 14 58 vhcurveto
            return
          </CharString>
          <CharString index="139">
            -285 1988 hstem
            return
          </CharString>
          <CharString index="140">
            hstem
            334 225 vstem
            return
          </CharString>
          <CharString index="141">
            -24 110 -89 return
          </CharString>
          <CharString index="142">
            -2 17 hhcurveto
            21 12 14 16 21 -30 25 -68 return
          </CharString>
          <CharString index="143">
            -561 1585 -20 hstem
            100 684 vstem
            return
          </CharString>
          <CharString index="144">
            66 809 157 -23 -20 return
          </CharString>
          <CharString index="145">
            11 7 -4 14 hhcurveto
            return
          </CharString>
          <CharString index="146">
            11 14 22 -21 26 return
          </CharString>
          <CharString index="147">
            553 -20 hstemhm
            return
          </CharString>
          <CharString index="148">
            vlineto
            49 -14 25 -37 -32 -14 -24 -51 vhcurveto
            return
          </CharString>
          <CharString index="149">
            -33 22 -17 27 29 19 12 36 25 vhcurveto
            return
          </CharString>
          <CharString index="150">
            hlineto
            43 38 26 43 45 -40 23 -43 hvcurveto
            return
          </CharString>
          <CharString index="151">
            -609 -285 62 1876 62 hstem
            return
          </CharString>
          <CharString index="152">
            vlineto
            45 46 5 34 43 -50 2 -42 hvcurveto
            return
          </CharString>
          <CharString index="153">
            4 -13 callsubr
            return
          </CharString>
        <CharString name=".notdef">
          83 21 -21 1307 -20 hstem
          170 hmoveto
          1190 1307 -1190 hlineto
          164 -996 rmoveto
          331 331 -339 340 100 100 339 -340 331 331 97 -97 -331 -331 339 -340 -100 -100 -339 340 -331 -331 rlineto
          endchar
        </CharString>
        <CharString name=".null">
          endchar
        </CharString>
        <CharString name="A">
          -106 callgsubr
          endchar
        </CharString>
        <CharString name="AE">
          -85 callsubr
          endchar
        </CharString>
        <CharString name="AEacute">
          -85 callsubr
          358 1081 -58 callsubr
          238 122 rlineto
          98 50 38 44 59 -14 callgsubr
          -58 -46 -19 -95 -77 -69 callsubr
        </CharString>
        <CharString name="Aacute">
          -106 callgsubr
          155 1077 -58 callsubr
          238 122 rlineto
          98 50 38 44 59 -14 callgsubr
          -58 -46 -19 -95 -77 -69 callsubr
        </CharString>
        <CharString name="Abreve">
          -106 callgsubr
          350 1058 -95 callsubr
        </CharString>
        <CharString name="Acircumflex">
          -106 callgsubr
          35 1062 -101 callgsubr
        </CharString>
        <CharString name="Adieresis">
          -106 callgsubr
          640 1107 rmoveto
          -89 callsubr
          -580 hmoveto
          -89 callsubr
          endchar
        </CharString>
        <CharString name="Agrave">
          -106 callgsubr
          545 1077 -73 callgsubr
        </CharString>
        <CharString name="Amacron">
          -106 callgsubr
          690 1223 -45 callgsubr
        </CharString>
        <CharString name="Aogonek">
          262 0 74 -59 51 394 87 1023 -20 hstemhm
          -27 1762 hintmask 10111000
          50 hmoveto
          25 15 3 5 26 hvcurveto
          hintmask 01111000
          4 24 25 3 25 hhcurveto
          34 23 25 callsubr
          hintmask 10111000
          -5 33 32 -2 35 hhcurveto
          63 32 17 28 19 -13 10 -19 -11 -6 -2 -2 -7 hvcurveto
          hintmask 01111000
          -2 -7 -7 -2 -11 hhcurveto
          -56 -21 19 31 31 22 52 33 80 hvcurveto
          49 116 rlineto
          45 19 19 20 75 hhcurveto
          517 hlineto
          73 20 -19 -40 19 hvcurveto
          77 -161 rlineto
          33 -70 8 -33 -33 vvcurveto
          -32 -17 -9 -38 vhcurveto
          -28 -21 10 -22 hhcurveto
          -25 -7 -14 -14 hvcurveto
          hintmask 10111000
          -20 26 -25 68 46 26 3 5 45 vhcurveto
          hintmask 01111000
          4 44 46 3 38 hhcurveto
          15 hlineto
          -83 -72 -51 -102 -130 -21 callgsubr
          90 28 70 45 44 vhcurveto
          hintmask 10111000
          -3 27 29 -3 27 hhcurveto
          55 25 19 26 17 -10 12 -23 -7 -7 -2 -2 -9 hvcurveto
          hintmask 01111000
          -2 -8 -6 -2 -12 hhcurveto
          -50 -45 41 158 -72 hvcurveto
          -521 1139 rlineto
          139 -63 -21 27 -24 hhcurveto
          -23 -13 -14 -145 -67 hvcurveto
          -487 -1056 rlineto
          -264 -121 -36 -25 -55 hhcurveto
          -10 -9 -42 callsubr
          2 -7 -7 1 -7 hhcurveto
          -23 -10 -11 -17 hvcurveto
          hintmask 10111000
          -24 24 -21 53 vhcurveto
          454 578 rmoveto
          11 7 19 6 15 vhcurveto
          229 553 rlineto
          49 20 10 12 11 hhcurveto
          15 15 -25 -71 29 hvcurveto
          200 -484 rlineto
          19 -45 10 -23 -11 vvcurveto
          -22 -24 -9 -91 vhcurveto
          -343 hlineto
          -89 -24 9 22 hvcurveto
          endchar
        </CharString>
        <CharString name="Aring">
          -106 callgsubr
          351 950 -43 callgsubr
        </CharString>
        <CharString name="Atilde">
          -106 callgsubr
          -6 1109 -79 callsubr
        </CharString>
        <CharString name="B">
          89 -24 100 -76 66 763 85 533 92 -77 66 hstemhm
          515 16 547 239 -110 244 hintmask 01110110
          98 46 rmoveto
          -17 callsubr
          39 47 -31 callgsubr
          vhcurveto
          24 callsubr
          34 hhcurveto
          69 69 -6 -11 68 hvcurveto
          hintmask 10110101
          -14 88 72 -8 55 hhcurveto
          395 207 219 264 204 -171 166 -247 57 hvcurveto
          hintmask 10110110
          177 65 107 121 148 vvcurveto
          166 -163 153 -328 -61 -73 -5 -9 -79 vhcurveto
          -6 -59 -61 -5 -65 hhcurveto
          -62 -35 46 callsubr
          hintmask 01101110
          -91 callsubr
          -21 -12 -11 -16 hvcurveto
          433 888 rmoveto
          397 vlineto
          hintmask 10110110
          81 78 35 169 182 118 -108 -158 -186 -135 -81 -187 -89 -66 6 14 -70 vhcurveto
          -703 vmoveto
          583 vlineto
          10 63 87 5 42 hhcurveto
          hintmask 10110101
          300 184 -140 -240 -260 -159 -113 -210 -212 -95 58 97 hvcurveto
          endchar
        </CharString>
        <CharString name="C">
          -94 callsubr
          endchar
        </CharString>
        <CharString name="CR">
          endchar
        </CharString>
        <CharString name="Cacute">
          -94 callsubr
          594 926 -58 callsubr
          238 122 rlineto
          98 50 38 44 59 -14 callgsubr
          -58 -46 -19 -95 -77 -69 callsubr
        </CharString>
        <CharString name="Ccaron">
          -94 callsubr
          787 911 -102 callgsubr
        </CharString>
        <CharString name="Ccedilla">
          262 20 callsubr
          173 115 1371 98 15 -20 hstemhm
          149 215 590 134 hintmask 11110110
          149 729 rmoveto
          -369 238 -299 392 -69 vhcurveto
          -53 -273 rlineto
          -64 callsubr
          40 178 rlineto
          -2 28 27 -2 29 hhcurveto
          236 211 81 144 153 hvcurveto
          283 vlineto
          35 -2 24 -19 -22 -8 -25 -34 -9 vhcurveto
          -297 -74 -202 -96 -171 hhcurveto
          -375 -311 337 448 348 254 238 316 224 239 -135 -216 112 hvcurveto
          -18 9 8 -5 14 hhcurveto
          15 9 11 31 30 -14 43 -21 82 hvcurveto
          -23 87 -8 64 90 vvcurveto
          hintmask 11101110
          37 -7 12 -18 -12 -11 -8 -49 -47 vhcurveto
          -35 -34 -22 -11 -21 hhcurveto
          -14 -19 7 10 -25 hvcurveto
          hintmask 11110110
          26 -65 -105 45 -158 hhcurveto
          -432 -359 -334 -498 hvcurveto
          endchar
        </CharString>
        <CharString name="Ccircumflex">
          -94 callsubr
          474 911 -101 callgsubr
        </CharString>
        <CharString name="Cdotaccent">
          -94 callsubr
          789 979 rmoveto
          -82 callgsubr
          -69 49 -88 114 hvcurveto
          endchar
        </CharString>
        <CharString name="D">
          435 -24 100 -76 66 1379 97 -80 66 hstemhm
          313 226 979 247 hintmask 00000000
          hintmask 10101100
          100 46 rmoveto
          -17 callsubr
          39 47 -31 callgsubr
          vhcurveto
          5 31 68 -20 callsubr
          74 55 -7 -9 63 hvcurveto
          hintmask 01011100
          -9 65 74 -14 110 hhcurveto
          497 396 332 462 468 -339 304 -521 -78 -77 -6 -8 -76 hvcurveto
          -8 -79 -78 -6 -79 hhcurveto
          -62 -43 46 callsubr
          -84 callsubr
          hintmask 10101100
          -4 callgsubr
          1072 vlineto
          92 108 42 184 425 262 -232 -465 vhcurveto
          hintmask 01011100
          13 callsubr
        </CharString>
        <CharString name="Dcaron">
          435 -24 100 -76 66 1379 97 -80 66 hstemhm
          313 226 979 247 hintmask 00000000
          hintmask 10101100
          100 46 rmoveto
          -17 callsubr
          39 47 -31 callgsubr
          vhcurveto
          5 31 68 -20 callsubr
          74 55 -7 -9 63 hvcurveto
          hintmask 01011100
          -9 65 74 -14 110 hhcurveto
          497 396 332 462 468 -339 304 -521 -78 -77 -6 -8 -76 hvcurveto
          -8 -79 -78 -6 -79 hhcurveto
          -62 -43 46 callsubr
          -84 callsubr
          hintmask 10101100
          -4 callgsubr
          1072 vlineto
          92 108 42 184 425 262 -232 -465 vhcurveto
          hintmask 01011100
          -484 -243 -188 -412 -260 -64 48 115 vhcurveto
          391 1401 -102 callgsubr
        </CharString>
        <CharString name="Dcroat">
          435 -24 100 -76 66 655 97 627 97 -80 66 hstemhm
          118 850 -655 226 979 247 hintmask 01110101
          100 46 rmoveto
          -17 callsubr
          39 47 -31 callgsubr
          vhcurveto
          5 31 68 -20 callsubr
          74 55 -7 -9 63 hvcurveto
          hintmask 10110101
          -9 65 74 -14 110 hhcurveto
          497 396 332 462 468 -339 304 -521 hvcurveto
          hintmask 10101011
          -78 -77 -6 -8 -76 hvcurveto
          -8 -79 -78 -6 -79 hhcurveto
          -62 -43 46 callsubr
          3 -30 -31 3 -49 hhcurveto
          -68 -20 -24 -21 -18 12 -10 21 9 7 1 2 7 hvcurveto
          2 8 8 12 callsubr
          33 -15 -31 17 hvcurveto
          28 -53 10 -56 -112 vvcurveto
          -377 -120 vlineto
          hintmask 10110101
          -45 -30 -3 -40 -48 29 -6 43 hvcurveto
          hintmask 01110011
          123 -400 hlineto
          -76 callsubr
          439 193 rmoveto
          482 355 vlineto
          hintmask 10110101
          46 28 6 39 49 -32 3 -43 hvcurveto
          hintmask 10110011
          -354 493 hlineto
          92 108 42 184 425 262 -232 -465 13 callsubr
        </CharString>
        <CharString name="Delta">
          325 0 120 1379 -20 hstem
          153 25 rmoveto
          -16 12 -9 22 vhcurveto
          1364 hlineto
          37 18 20 25 8 -3 10 -4 9 hvcurveto
          -710 1402 rlineto
          17 -9 -13 8 -14 hhcurveto
          -14 -15 -8 -16 -7 hvcurveto
          -657 -1426 rlineto
          -5 -9 -2 -8 -7 vvcurveto
          164 95 rmoveto
          498 1093 540 -1093 rlineto
          endchar
        </CharString>
        <CharString name="E">
          -107 callsubr
          endchar
        </CharString>
        <CharString name="Eacute">
          -107 callsubr
          463 1624 -58 callsubr
          238 122 rlineto
          98 50 38 44 59 -14 callgsubr
          -58 -46 -19 -95 -77 -69 callsubr
        </CharString>
        <CharString name="Ebreve">
          -107 callsubr
          658 1605 -95 callsubr
        </CharString>
        <CharString name="Ecaron">
          -107 callsubr
          656 1609 -102 callgsubr
        </CharString>
        <CharString name="Ecircumflex">
          -107 callsubr
          343 1609 -101 callgsubr
        </CharString>
        <CharString name="Edieresis">
          -107 callsubr
          948 1654 rmoveto
          -89 callsubr
          -580 hmoveto
          -89 callsubr
          endchar
        </CharString>
        <CharString name="Edotaccent">
          -107 callsubr
          658 1677 rmoveto
          -82 callgsubr
          -69 49 -88 114 hvcurveto
          endchar
        </CharString>
        <CharString name="Egrave">
          -107 callsubr
          853 1624 -73 callgsubr
        </CharString>
        <CharString name="Emacron">
          -107 callsubr
          998 1770 -45 callgsubr
        </CharString>
        <CharString name="Eng">
          431 -530 98 432 73 1382 66 7 -20 hstemhm
          359 112 942 183 -112 112 hintmask 11101100
          146 46 rmoveto
          -17 callsubr
          38 29 3 4 28 vhcurveto
          4 29 26 4 31 hhcurveto
          31 31 -4 -4 30 hvcurveto
          -4 30 36 -3 30 hhcurveto
          68 22 25 21 16 -12 11 -21 -13 -13 -46 callsubr
          -8 -14 -1 -16 hhcurveto
          -33 -31 -78 callsubr
          813 vlineto
          942 -1007 rlineto
          -152 vlineto
          -295 -180 -112 -164 -155 -159 62 202 -7 callsubr
          -177 vlineto
          -16 callsubr
          208 vlineto
          1 3 rlineto
          1019 vlineto
          -58 callgsubr
          -87 callgsubr
          -50 callsubr
          13 hhcurveto
          21 12 11 16 -52 callgsubr
          -38 -29 -3 -4 -28 hvcurveto
          -4 -29 -26 -4 -31 hhcurveto
          -31 -31 4 4 -30 hvcurveto
          4 -30 -36 3 -30 hhcurveto
          -68 -22 -25 -21 29 callgsubr
          13 2 -37 callgsubr
          2 8 14 1 16 hhcurveto
          33 31 -11 -25 14 hvcurveto
          hintmask 11011010
          -76 callgsubr
          -782 vlineto
          -1040 1099 rlineto
          -47 -54 2 3 -51 hvcurveto
          -69 callgsubr
          endchar
        </CharString>
        <CharString name="Eogonek">
          -78 -15 66 -51 97 648 97 573 98 -51 66 hstemhm
          265 222 hintmask 10110100
          52 23 callgsubr
          39 47 -31 callgsubr
          vhcurveto
          hintmask 01110100
          -18 callgsubr
          610 hlineto
          -54 -72 -41 -95 -122 vvcurveto
          -54 callgsubr
          78 25 67 31 53 vhcurveto
          92 hlineto
          34 102 29 70 57 95 rrcurveto
          28 46 8 22 17 vvcurveto
          11 -8 5 -11 -13 -10 -2 -34 -36 vhcurveto
          -67 -64 -59 -75 -114 -47 rrcurveto
          -24 -59 -100 -25 -101 hhcurveto
          -207 hlineto
          -61 -36 36 103 hvcurveto
          442 vlineto
          37 33 30 57 vhcurveto
          246 hlineto
          51 76 -48 -89 38 hvcurveto
          -16 7 6 -11 12 hhcurveto
          15 11 14 36 24 -2 23 -2 25 hvcurveto
          -3 25 -1 26 33 vvcurveto
          35 2 30 3 29 vhcurveto
          2 26 1 23 16 vvcurveto
          36 -11 15 -15 -12 -6 -12 -15 -7 vhcurveto
          -89 -38 -76 -39 -51 hhcurveto
          -245 hlineto
          -67 -24 22 35 hvcurveto
          424 vlineto
          59 23 33 74 vhcurveto
          267 hlineto
          113 56 -28 -47 58 hvcurveto
          39 -32 82 -92 24 -30 rrcurveto
          -22 18 6 -3 11 hhcurveto
          9 7 8 15 27 -13 40 -24 78 hvcurveto
          -19 59 -17 66 -7 59 rrcurveto
          -812 hlineto
          -62 -35 5 -13 callsubr
          hintmask 10101100
          -96 callgsubr
          -74 -65 callgsubr
          hvcurveto
          endchar
        </CharString>
        <CharString name="Eth">
          435 -24 100 -76 66 655 97 627 97 -80 66 hstemhm
          118 850 -655 226 979 247 hintmask 01110101
          100 46 rmoveto
          -17 callsubr
          39 47 -31 callgsubr
          vhcurveto
          5 31 68 -20 callsubr
          74 55 -7 -9 63 hvcurveto
          hintmask 10110101
          -9 65 74 -14 110 hhcurveto
          497 396 332 462 468 -339 304 -521 hvcurveto
          hintmask 10101011
          -78 -77 -6 -8 -76 hvcurveto
          -8 -79 -78 -6 -79 hhcurveto
          -62 -43 46 callsubr
          3 -30 -31 3 -49 hhcurveto
          -68 -20 -24 -21 -18 12 -10 21 9 7 1 2 7 hvcurveto
          2 8 8 12 callsubr
          33 -15 -31 17 hvcurveto
          28 -53 10 -56 -112 vvcurveto
          -377 -120 vlineto
          hintmask 10110101
          -45 -30 -3 -40 -48 29 -6 43 hvcurveto
          hintmask 01110011
          123 -400 hlineto
          -76 callsubr
          439 193 rmoveto
          482 355 vlineto
          hintmask 10110101
          46 28 6 39 49 -32 3 -43 hvcurveto
          hintmask 10110011
          -354 493 hlineto
          92 108 42 184 425 262 -232 -465 13 callsubr
        </CharString>
        <CharString name="Euro">
          255 -23 115 481 97 193 97 503 98 15 -20 hstemhm
          149 225 hintmask 11110100
          12 573 rmoveto
          156 hlineto
          -354 75 289 -242 425 hhcurveto
          316 284 229 215 23 -10 10 -17 -22 -8 -25 -34 -13 hvcurveto
          -187 -71 -203 -116 -193 hhcurveto
          -258 -247 168 313 -98 hvcurveto
          649 hlineto
          53 31 8 54 33 -28 2 -37 hvcurveto
          -692 hlineto
          -11 60 -7 64 -1 69 rrcurveto
          862 hlineto
          52 31 8 54 33 -27 2 -37 hvcurveto
          -876 hlineto
          302 35 230 201 290 hhcurveto
          202 258 -141 -153 99 hvcurveto
          -17 38 callsubr
          15 9 11 31 30 -14 43 -21 82 hvcurveto
          -14 52 -2 55 75 vvcurveto
          hintmask 11101100
          37 -7 12 -18 -12 -11 -8 -49 -47 vhcurveto
          -35 -34 -12 -1 -21 hhcurveto
          -14 -19 7 10 -25 hvcurveto
          hintmask 11110100
          26 -65 -115 35 -158 hhcurveto
          -368 -315 -243 -358 -85 hvcurveto
          -137 44 callgsubr
          143 hlineto
          -4 -33 -2 -33 -34 vvcurveto
          -32 1 -31 3 -30 vhcurveto
          -118 44 callgsubr
          endchar
        </CharString>
        <CharString name="F">
          -82 0 66 674 98 577 98 -51 66 hstemhm
          272 222 hintmask 00000000
          hintmask 11101000
          59 46 rmoveto
          -17 callsubr
          39 47 -31 callgsubr
          vhcurveto
          5 31 61 -20 callsubr
          34 61 -3 -5 31 hvcurveto
          -3 24 67 -4 39 hhcurveto
          68 30 25 21 16 -12 14 -21 -17 -14 -2 -3 -15 hvcurveto
          -3 -13 -15 -2 -20 hhcurveto
          -36 -28 -78 callsubr
          353 vlineto
          37 33 29 57 vhcurveto
          293 hlineto
          51 74 -47 -90 39 hvcurveto
          -15 7 6 -11 13 hhcurveto
          14 11 14 36 24 -2 23 -3 25 hvcurveto
          -2 24 -1 27 32 vvcurveto
          35 2 31 3 28 vhcurveto
          2 26 1 23 17 vvcurveto
          35 -11 16 -14 -13 -6 -12 -15 -7 vhcurveto
          -90 -39 -74 -38 -51 hhcurveto
          -292 hlineto
          -67 -24 21 36 hvcurveto
          408 vlineto
          70 36 42 61 vhcurveto
          276 hlineto
          114 56 -28 -47 58 hvcurveto
          39 -32 82 -92 24 -30 rrcurveto
          -22 17 7 -3 11 hhcurveto
          9 7 8 15 27 -13 40 -25 78 hvcurveto
          hintmask 11011000
          -18 59 -17 66 -8 59 rrcurveto
          -814 hlineto
          -42 -62 5 -13 callsubr
          -91 callsubr
          hintmask 11101000
          -53 callgsubr
          hvcurveto
          endchar
        </CharString>
        <CharString name="G">
          -97 callgsubr
          endchar
        </CharString>
        <CharString name="Gbreve">
          -97 callgsubr
          787 907 -95 callsubr
        </CharString>
        <CharString name="Gcircumflex">
          -97 callgsubr
          472 911 -101 callgsubr
        </CharString>
        <CharString name="Gcommaaccent">
          262 -509 -21 507 114 664 66 630 110 26 -20 hstemhm
          118 214 498 167 318 217 hintmask 00000000
          hintmask 01110101
          118 729 rmoveto
          -412 299 -340 462 233 150 50 90 123 vhcurveto
          30 21 60 31 57 30 rrcurveto
          301 vlineto
          97 -2 158 59 14 23 callsubr
          11 11 -2 11 hhcurveto
          hintmask 01101101
          21 12 12 16 -52 callgsubr
          -28 -24 -2 -4 -24 hvcurveto
          hintmask 01110101
          -5 -32 -32 -4 -44 hhcurveto
          -34 -56 21 callsubr
          -57 4 -39 hhcurveto
          -68 -20 -25 -21 -16 12 -14 21 13 12 2 2 11 hvcurveto
          3 13 12 3 13 hhcurveto
          36 28 -11 -25 14 hvcurveto
          -76 callgsubr
          -207 vlineto
          -132 -118 -70 -147 -358 -360 300 498 330 228 232 350 230 217 -111 -178 97 vhcurveto
          -18 38 callsubr
          11 11 11 31 20 -6 39 -13 46 hvcurveto
          -23 78 -23 101 73 vvcurveto
          22 -3 26 -21 -15 -9 -6 -50 -47 vhcurveto
          -38 -36 -15 -4 -13 hhcurveto
          -16 -23 5 11 -29 hvcurveto
          34 -83 -101 22 -111 hhcurveto
          -475 -328 -355 -477 hvcurveto
          hintmask 10000010
          592 -952 -94 callgsubr
        </CharString>
        <CharString name="Gdotaccent">
          -97 callgsubr
          787 979 rmoveto
          -82 callgsubr
          -69 49 -88 114 hvcurveto
          endchar
        </CharString>
        <CharString name="H">
          432 0 66 783 100 513 66 hstem
          303 222 826 222 vstem
          90 46 rmoveto
          -17 callsubr
          39 47 -31 callgsubr
          vhcurveto
          -101 callsubr
          460 vlineto
          37 33 31 77 vhcurveto
          606 hlineto
          76 34 -31 -37 hvcurveto
          -460 -62 callgsubr
          886 -106 callsubr
          -202 vlineto
          -35 -25 -21 -85 vhcurveto
          -606 hlineto
          -86 -24 21 35 hvcurveto
          202 -106 callsubr
          -886 vlineto
          -76 callsubr
          endchar
        </CharString>
        <CharString name="Hbar">
          432 0 73 646 100 275 97 271 66 hstemhm
          90 435 -222 222 826 222 -222 479 hintmask 11111010
          90 46 rmoveto
          -17 callsubr
          39 47 -31 callgsubr
          vhcurveto
          -101 callsubr
          330 vlineto
          37 33 31 77 vhcurveto
          606 hlineto
          76 34 -31 -37 hvcurveto
          -330 -62 callgsubr
          773 163 vlineto
          hintmask 11111001
          6 callsubr
          hintmask 11111010
          -162 16 hlineto
          -107 callgsubr
          -16 -826 16 vlineto
          -58 callgsubr
          -87 callgsubr
          -50 callsubr
          13 hhcurveto
          21 12 11 16 -52 callgsubr
          -39 -47 -4 -3 -24 hvcurveto
          -5 -31 -61 -3 -34 hhcurveto
          -34 -61 21 callsubr
          -47 4 -39 hhcurveto
          -68 -20 -25 -21 29 callgsubr
          8 2 -37 callgsubr
          2 8 10 1 16 hhcurveto
          33 31 -11 -25 14 hvcurveto
          hintmask 11110110
          -76 callgsubr
          -16 -130 vlineto
          6 callgsubr
          133 -773 hlineto
          -113 -11 -59 -36 callsubr
          -84 callgsubr
          2 -9 -8 2 -13 hhcurveto
          hintmask 11111010
          -53 callgsubr
          hvcurveto
          435 829 rmoveto
          219 826 -219 vlineto
          -35 -25 -21 -85 vhcurveto
          -606 hlineto
          -86 -24 21 35 hvcurveto
          endchar
        </CharString>
        <CharString name="Hcircumflex">
          432 0 66 783 100 513 66 hstem
          303 222 826 222 vstem
          90 46 rmoveto
          -17 callsubr
          39 47 -31 callgsubr
          vhcurveto
          -101 callsubr
          460 vlineto
          37 33 31 77 vhcurveto
          606 hlineto
          76 34 -31 -37 hvcurveto
          -460 -62 callgsubr
          886 -106 callsubr
          -202 vlineto
          -35 -25 -21 -85 vhcurveto
          -606 hlineto
          -86 -24 21 35 hvcurveto
          202 -106 callsubr
          -886 vlineto
          -76 callsubr
          533 1594 -101 callgsubr
        </CharString>
        <CharString name="I">
          -591 -22 callgsubr
          316 222 vstem
          103 46 rmoveto
          -17 callsubr
          39 47 -31 callgsubr
          vhcurveto
          5 31 61 3 34 hhcurveto
          34 61 -3 -5 31 hvcurveto
          -3 24 47 -4 39 hhcurveto
          68 20 25 21 16 -12 11 -21 -13 -8 -2 -2 -9 hvcurveto
          -2 -8 -10 -1 -16 hhcurveto
          -33 -31 11 25 -14 hvcurveto
          -27 47 -11 59 113 vvcurveto
          886 -106 callsubr
          -886 vlineto
          -76 callsubr
          endchar
        </CharString>
        <CharString name="IJ">
          772 -23 98 -75 66 1396 66 hstemhm
          316 222 1242 222 hintmask 01110000
          103 46 rmoveto
          -17 callsubr
          39 47 -31 callgsubr
          vhcurveto
          5 31 61 3 34 hhcurveto
          34 61 -3 -5 31 hvcurveto
          -3 24 47 -4 39 hhcurveto
          68 20 25 21 16 -12 11 -21 -13 -8 -2 -2 -9 hvcurveto
          -2 -8 -10 -1 -16 hhcurveto
          -33 -31 11 25 -14 hvcurveto
          -27 47 -11 59 113 vvcurveto
          886 -106 callsubr
          -886 vlineto
          -76 callsubr
          hintmask 10101000
          908 57 rmoveto
          -16 callsubr
          730 -106 callsubr
          -725 vlineto
          -295 -140 -112 -164 -155 -159 100 354 -7 callsubr
          endchar
        </CharString>
        <CharString name="Iacute">
          -591 -22 callgsubr
          316 222 vstem
          103 46 rmoveto
          -17 callsubr
          39 47 -31 callgsubr
          vhcurveto
          5 31 61 3 34 hhcurveto
          34 61 -3 -5 31 hvcurveto
          -3 24 47 -4 39 hhcurveto
          68 20 25 21 16 -12 11 -21 -13 -8 -2 -2 -9 hvcurveto
          -2 -8 -10 -1 -16 hhcurveto
          -33 -31 11 25 -14 hvcurveto
          -27 47 -11 59 113 vvcurveto
          886 -106 callsubr
          -886 vlineto
          -76 callsubr
          129 1609 -58 callsubr
          238 122 rlineto
          98 50 38 44 59 -14 callgsubr
          -58 -46 -19 -95 -77 -69 callsubr
        </CharString>
        <CharString name="Ibreve">
          -591 -22 callgsubr
          316 222 vstem
          103 46 rmoveto
          -17 callsubr
          39 47 -31 callgsubr
          vhcurveto
          5 31 61 3 34 hhcurveto
          34 61 -3 -5 31 hvcurveto
          -3 24 47 -4 39 hhcurveto
          68 20 25 21 16 -12 11 -21 -13 -8 -2 -2 -9 hvcurveto
          -2 -8 -10 -1 -16 hhcurveto
          -33 -31 11 25 -14 hvcurveto
          -27 47 -11 59 113 vvcurveto
          886 -106 callsubr
          -886 vlineto
          -76 callsubr
          324 1590 -95 callsubr
        </CharString>
        <CharString name="Icircumflex">
          -591 -22 callgsubr
          316 222 vstem
          103 46 rmoveto
          -17 callsubr
          39 47 -31 callgsubr
          vhcurveto
          5 31 61 3 34 hhcurveto
          34 61 -3 -5 31 hvcurveto
          -3 24 47 -4 39 hhcurveto
          68 20 25 21 16 -12 11 -21 -13 -8 -2 -2 -9 hvcurveto
          -2 -8 -10 -1 -16 hhcurveto
          -33 -31 11 25 -14 hvcurveto
          -27 47 -11 59 113 vvcurveto
          886 -106 callsubr
          -886 vlineto
          -76 callsubr
          9 1594 -101 callgsubr
        </CharString>
        <CharString name="Idieresis">
          -591 -22 callgsubr
          316 222 vstem
          103 46 rmoveto
          -17 callsubr
          39 47 -31 callgsubr
          vhcurveto
          5 31 61 3 34 hhcurveto
          34 61 -3 -5 31 hvcurveto
          -3 24 47 -4 39 hhcurveto
          68 20 25 21 16 -12 11 -21 -13 -8 -2 -2 -9 hvcurveto
          -2 -8 -10 -1 -16 hhcurveto
          -33 -31 11 25 -14 hvcurveto
          -27 47 -11 59 113 vvcurveto
          886 -106 callsubr
          -886 vlineto
          -76 callsubr
          614 1639 rmoveto
          -89 callsubr
          -580 hmoveto
          -89 callsubr
          endchar
        </CharString>
        <CharString name="Idotaccent">
          -591 -22 callgsubr
          316 222 vstem
          103 46 rmoveto
          -17 callsubr
          39 47 -31 callgsubr
          vhcurveto
          5 31 61 3 34 hhcurveto
          34 61 -3 -5 31 hvcurveto
          -3 24 47 -4 39 hhcurveto
          68 20 25 21 16 -12 11 -21 -13 -8 -2 -2 -9 hvcurveto
          -2 -8 -10 -1 -16 hhcurveto
          -33 -31 11 25 -14 hvcurveto
          -27 47 -11 59 113 vvcurveto
          886 -106 callsubr
          -886 vlineto
          -76 callsubr
          324 1662 rmoveto
          -82 callgsubr
          -69 49 -88 114 hvcurveto
          endchar
        </CharString>
        <CharString name="Igrave">
          -591 -22 callgsubr
          316 222 vstem
          103 46 rmoveto
          -17 callsubr
          39 47 -31 callgsubr
          vhcurveto
          5 31 61 3 34 hhcurveto
          34 61 -3 -5 31 hvcurveto
          -3 24 47 -4 39 hhcurveto
          68 20 25 21 16 -12 11 -21 -13 -8 -2 -2 -9 hvcurveto
          -2 -8 -10 -1 -16 hhcurveto
          -33 -31 11 25 -14 hvcurveto
          -27 47 -11 59 113 vvcurveto
          886 -106 callsubr
          -886 vlineto
          -76 callsubr
          519 1609 -73 callgsubr
        </CharString>
        <CharString name="Imacron">
          -591 -22 callgsubr
          316 222 vstem
          103 46 rmoveto
          -17 callsubr
          39 47 -31 callgsubr
          vhcurveto
          5 31 61 3 34 hhcurveto
          34 61 -3 -5 31 hvcurveto
          -3 24 47 -4 39 hhcurveto
          68 20 25 21 16 -12 11 -21 -13 -8 -2 -2 -9 hvcurveto
          -2 -8 -10 -1 -16 hhcurveto
          -33 -31 11 25 -14 hvcurveto
          -27 47 -11 59 113 vvcurveto
          886 -106 callsubr
          -886 vlineto
          -76 callsubr
          664 1755 -45 callgsubr
        </CharString>
        <CharString name="Iogonek">
          -591 -22 callgsubr
          316 222 vstem
          103 46 rmoveto
          -17 callsubr
          39 47 -31 callgsubr
          vhcurveto
          25 4 45 3 34 1 rrcurveto
          -62 -76 -44 -108 -120 vvcurveto
          -54 callgsubr
          84 29 75 31 50 vhcurveto
          14 -1 13 -2 10 -1 rrcurveto
          -3 24 47 -4 39 hhcurveto
          68 20 25 21 16 -12 11 -21 -13 -8 -46 callsubr
          -8 -10 -1 -16 hhcurveto
          -33 -31 -78 callsubr
          886 -106 callsubr
          -886 vlineto
          -76 callsubr
          endchar
        </CharString>
        <CharString name="Itilde">
          -591 -22 callgsubr
          316 222 vstem
          103 46 rmoveto
          -17 callsubr
          39 47 -31 callgsubr
          vhcurveto
          5 31 61 3 34 hhcurveto
          34 61 -3 -5 31 hvcurveto
          -3 24 47 -4 39 hhcurveto
          68 20 25 21 16 -12 11 -21 -13 -8 -2 -2 -9 hvcurveto
          -2 -8 -10 -1 -16 hhcurveto
          -33 -31 11 25 -14 hvcurveto
          -27 47 -11 59 113 vvcurveto
          886 -106 callsubr
          -886 vlineto
          -76 callsubr
          -32 1641 -79 callsubr
        </CharString>
        <CharString name="J">
          -82 -23 98 1387 66 hstem
          926 222 vstem
          157 103 rmoveto
          -16 callsubr
          730 -106 callsubr
          -725 vlineto
          -295 -140 -112 -164 -155 -159 100 354 -7 callsubr
          endchar
        </CharString>
        <CharString name="Jcircumflex">
          -82 -23 98 1387 66 hstem
          926 222 vstem
          157 103 rmoveto
          -16 callsubr
          730 -106 callsubr
          -725 vlineto
          -295 -140 -112 -164 -155 -159 100 354 -7 callsubr
          567 1170 -101 callgsubr
        </CharString>
        <CharString name="K">
          94 0 66 686 100 610 66 hstem
          305 222 vstem
          92 46 rmoveto
          -17 callsubr
          39 47 -31 callgsubr
          vhcurveto
          -101 callsubr
          429 vlineto
          169 -11 137 -74 122 -253 rrcurveto
          -313 145 152 -111 239 hhcurveto
          61 51 15 32 10 -6 13 -20 1 hvcurveto
          -10 1 -7 -3 -9 -2 rrcurveto
          -2 -8 -10 -3 -14 hhcurveto
          -58 -108 107 202 -99 hvcurveto
          -151 306 -194 114 -257 42 147 65 206 175 289 275 rrcurveto
          98 98 41 28 40 hhcurveto
          13 9 -1 40 callgsubr
          10 -2 13 hhcurveto
          20 13 11 16 21 -18 25 -68 -20 -33 -3 -3 -24 hvcurveto
          -4 -24 -26 -4 -27 hhcurveto
          -31 -31 4 4 -33 hvcurveto
          3 -29 -31 3 -30 hhcurveto
          -69 -22 -25 -21 -16 13 -11 20 12 9 2 2 10 hvcurveto
          2 9 10 2 14 hhcurveto
          37 10 -14 -19 -34 -56 -65 -64 -65 hvcurveto
          -284 -274 -151 -98 -116 -30 rrcurveto
          343 -106 callsubr
          -886 vlineto
          -76 callsubr
          endchar
        </CharString>
        <CharString name="Kcommaaccent">
          94 21 callgsubr
          686 100 610 66 hstemhm
          305 222 219 167 hintmask 01111000
          92 46 rmoveto
          -17 callsubr
          39 47 -31 callgsubr
          vhcurveto
          -101 callsubr
          429 vlineto
          169 -11 137 -74 122 -253 rrcurveto
          -313 145 152 -111 239 hhcurveto
          61 51 15 32 10 -6 13 -20 1 hvcurveto
          -10 1 -7 -3 -9 -2 rrcurveto
          -2 -8 -10 -3 -14 hhcurveto
          -58 -108 107 202 -99 hvcurveto
          -151 306 -194 114 -257 42 147 65 206 175 289 275 rrcurveto
          98 98 41 28 40 hhcurveto
          13 9 -1 40 callgsubr
          10 -2 13 hhcurveto
          20 13 11 16 21 -18 25 -68 -20 -33 -3 -3 -24 hvcurveto
          -4 -24 -26 -4 -27 hhcurveto
          -31 -31 4 4 -33 hvcurveto
          3 -29 -31 3 -30 hhcurveto
          -69 -22 -25 -21 -16 13 -11 20 12 9 2 2 10 hvcurveto
          2 9 10 2 14 hhcurveto
          37 10 -14 -19 -34 -56 -65 -64 -65 hvcurveto
          -284 -274 -151 -98 -116 -30 rrcurveto
          343 -106 callsubr
          -886 vlineto
          -76 callsubr
          hintmask 10000100
          534 -269 -94 callgsubr
        </CharString>
        <CharString name="L">
          -7 callgsubr
          84 23 callgsubr
          39 47 -31 callgsubr
          vhcurveto
          5 31 97 3 65 hhcurveto
          754 hlineto
          31 133 20 58 48 98 rrcurveto
          19 42 6 24 14 vvcurveto
          15 -8 7 -11 -12 -10 -7 -25 -24 vhcurveto
          -71 -77 -39 -33 -57 -43 rrcurveto
          -86 -111 -72 -23 -132 hhcurveto
          -190 hlineto
          -61 -36 36 103 hvcurveto
          971 -106 callsubr
          -886 vlineto
          -113 -11 -74 -65 callgsubr
          hvcurveto
          endchar
        </CharString>
        <CharString name="Lacute">
          -7 callgsubr
          84 23 callgsubr
          39 47 -31 callgsubr
          vhcurveto
          5 31 97 3 65 hhcurveto
          754 hlineto
          31 133 20 58 48 98 rrcurveto
          19 42 6 24 14 vvcurveto
          15 -8 7 -11 -12 -10 -7 -25 -24 vhcurveto
          -71 -77 -39 -33 -57 -43 rrcurveto
          -86 -111 -72 -23 -132 hhcurveto
          -190 hlineto
          -61 -36 36 103 hvcurveto
          971 -106 callsubr
          -886 vlineto
          -113 -11 -74 -65 callgsubr
          hvcurveto
          575 1628 -58 callsubr
          238 122 rlineto
          98 50 38 44 59 -14 callgsubr
          -58 -46 -19 -95 -77 -69 callsubr
        </CharString>
        <CharString name="Lcaron">
          -7 callgsubr
          941 -18 callsubr
          -857 -964 rmoveto
          -17 callsubr
          39 47 -31 callgsubr
          vhcurveto
          5 31 97 3 65 hhcurveto
          754 hlineto
          31 133 20 58 48 98 rrcurveto
          19 42 6 24 14 vvcurveto
          15 -8 7 -11 -12 -10 -7 -25 -24 vhcurveto
          -71 -77 -39 -33 -57 -43 rrcurveto
          -86 -111 -72 -23 -132 hhcurveto
          -190 hlineto
          -61 -36 36 103 hvcurveto
          971 -106 callsubr
          -886 vlineto
          -113 -11 -74 -65 callgsubr
          hvcurveto
          endchar
        </CharString>
        <CharString name="Lcommaaccent">
          -78 15 callgsubr
          97 1365 66 hstemhm
          297 222 141 167 hintmask 01110000
          84 23 callgsubr
          39 47 -31 callgsubr
          vhcurveto
          5 31 97 3 65 hhcurveto
          754 hlineto
          31 133 20 58 48 98 rrcurveto
          19 42 6 24 14 vvcurveto
          15 -8 7 -11 -12 -10 -7 -25 -24 vhcurveto
          -71 -77 -39 -33 -57 -43 rrcurveto
          -86 -111 -72 -23 -132 hhcurveto
          -190 hlineto
          -61 -36 36 103 hvcurveto
          971 -106 callsubr
          -886 vlineto
          -113 -11 -74 -65 callgsubr
          hvcurveto
          hintmask 10001000
          456 -254 -94 callgsubr
        </CharString>
        <CharString name="Ldot">
          -78 0 97 697 -21 689 66 hstemhm
          297 222 469 327 hintmask 10110000
          84 23 callgsubr
          39 47 -31 callgsubr
          vhcurveto
          5 31 97 3 65 hhcurveto
          754 hlineto
          31 133 20 58 48 98 rrcurveto
          19 42 6 24 14 vvcurveto
          15 -8 7 -11 -12 -10 -7 -25 -24 vhcurveto
          -71 -77 -39 -33 -57 -43 rrcurveto
          -86 -111 -72 -23 -132 hhcurveto
          -190 hlineto
          -61 -36 36 103 hvcurveto
          971 -106 callsubr
          -886 vlineto
          -113 -11 -74 -65 callgsubr
          hvcurveto
          hintmask 01001000
          904 899 rmoveto
          4 callsubr
        </CharString>
        <CharString name="Lslash">
          -7 callgsubr
          147 557 rmoveto
          13 22 7 27 50 hvcurveto
          569 309 rlineto
          59 32 22 26 25 vvcurveto
          26 -21 16 -21 -21 -24 -13 -32 -60 vhcurveto
          -575 -309 rlineto
          -32 -17 -27 -22 -32 vvcurveto
          -26 19 -17 27 vhcurveto
          -63 -526 rmoveto
          -17 callsubr
          39 47 -31 callgsubr
          vhcurveto
          5 31 97 3 65 hhcurveto
          754 hlineto
          31 133 20 58 48 98 rrcurveto
          19 42 6 24 14 vvcurveto
          15 -8 7 -11 -12 -10 -7 -25 -24 vhcurveto
          -71 -77 -39 -33 -57 -43 rrcurveto
          -86 -111 -72 -23 -132 hhcurveto
          -190 hlineto
          -61 -36 36 103 hvcurveto
          971 -106 callsubr
          -886 vlineto
          -113 -11 -74 -65 callgsubr
          hvcurveto
          endchar
        </CharString>
        <CharString name="M">
          -79 callgsubr
          endchar
        </CharString>
        <CharString name="N">
          431 0 66 1382 80 -73 66 hstemhm
          359 112 1013 112 hintmask 10111000
          146 46 rmoveto
          -17 callsubr
          38 29 3 4 28 vhcurveto
          4 29 26 4 31 hhcurveto
          31 31 -4 -4 30 hvcurveto
          -4 30 36 -3 30 hhcurveto
          68 22 25 21 16 -12 11 -21 -13 -13 -46 callsubr
          -8 -14 -1 -16 hhcurveto
          -33 -31 -78 callsubr
          813 vlineto
          1054 -1126 rlineto
          -68 63 25 -5 18 hhcurveto
          14 15 7 17 13 -3 7 -18 15 hvcurveto
          -34 31 -9 43 113 vvcurveto
          1019 vlineto
          -58 callgsubr
          -87 callgsubr
          hintmask 11011000
          -50 callsubr
          13 hhcurveto
          21 12 11 16 hvcurveto
          hintmask 10111000
          -52 callgsubr
          -38 -29 -3 -4 -28 vhcurveto
          -4 -29 -26 -4 -31 hhcurveto
          -31 -31 4 4 -30 hvcurveto
          4 -30 -36 3 -30 hhcurveto
          -68 -22 -25 -21 hvcurveto
          hintmask 11011000
          29 callgsubr
          13 2 2 9 vhcurveto
          hintmask 10111000
          2 8 14 1 16 hhcurveto
          33 31 -11 -25 14 hvcurveto
          -76 callgsubr
          -782 vlineto
          -1040 1099 rlineto
          -47 -54 2 3 -51 hvcurveto
          hintmask 11011000
          -69 callgsubr
          endchar
        </CharString>
        <CharString name="Nacute">
          431 0 66 1382 80 -73 66 hstemhm
          359 112 1013 112 hintmask 10111000
          146 46 rmoveto
          -17 callsubr
          38 29 3 4 28 vhcurveto
          4 29 26 4 31 hhcurveto
          31 31 -4 -4 30 hvcurveto
          -4 30 36 -3 30 hhcurveto
          68 22 25 21 16 -12 11 -21 -13 -13 -46 callsubr
          -8 -14 -1 -16 hhcurveto
          -33 -31 -78 callsubr
          813 vlineto
          1054 -1126 rlineto
          -68 63 25 -5 18 hhcurveto
          14 15 7 17 13 -3 7 -18 15 hvcurveto
          -34 31 -9 43 113 vvcurveto
          1019 vlineto
          -58 callgsubr
          -87 callgsubr
          hintmask 11011000
          -50 callsubr
          13 hhcurveto
          21 12 11 16 hvcurveto
          hintmask 10111000
          -52 callgsubr
          -38 -29 -3 -4 -28 vhcurveto
          -4 -29 -26 -4 -31 hhcurveto
          -31 -31 4 4 -30 hvcurveto
          4 -30 -36 3 -30 hhcurveto
          -68 -22 -25 -21 hvcurveto
          hintmask 11011000
          29 callgsubr
          13 2 2 9 vhcurveto
          hintmask 10111000
          2 8 14 1 16 hhcurveto
          33 31 -11 -25 14 hvcurveto
          -76 callgsubr
          -782 vlineto
          -1040 1099 rlineto
          -47 -54 2 3 -51 hvcurveto
          hintmask 11011000
          -69 callgsubr
          604 1609 -58 callsubr
          238 122 rlineto
          98 50 38 44 59 -14 callgsubr
          -58 -46 -19 -95 -77 -69 callsubr
        </CharString>
        <CharString name="Ncaron">
          431 0 66 1382 80 -73 66 hstemhm
          359 112 1013 112 hintmask 10111000
          146 46 rmoveto
          -17 callsubr
          38 29 3 4 28 vhcurveto
          4 29 26 4 31 hhcurveto
          31 31 -4 -4 30 hvcurveto
          -4 30 36 -3 30 hhcurveto
          68 22 25 21 16 -12 11 -21 -13 -13 -46 callsubr
          -8 -14 -1 -16 hhcurveto
          -33 -31 -78 callsubr
          813 vlineto
          1054 -1126 rlineto
          -68 63 25 -5 18 hhcurveto
          14 15 7 17 13 -3 7 -18 15 hvcurveto
          -34 31 -9 43 113 vvcurveto
          1019 vlineto
          -58 callgsubr
          -87 callgsubr
          hintmask 11011000
          -50 callsubr
          13 hhcurveto
          21 12 11 16 hvcurveto
          hintmask 10111000
          -52 callgsubr
          -38 -29 -3 -4 -28 vhcurveto
          -4 -29 -26 -4 -31 hhcurveto
          -31 -31 4 4 -30 hvcurveto
          4 -30 -36 3 -30 hhcurveto
          -68 -22 -25 -21 hvcurveto
          hintmask 11011000
          29 callgsubr
          13 2 2 9 vhcurveto
          hintmask 10111000
          2 8 14 1 16 hhcurveto
          33 31 -11 -25 14 hvcurveto
          -76 callgsubr
          -782 vlineto
          -1040 1099 rlineto
          -47 -54 2 3 -51 hvcurveto
          hintmask 11011000
          -69 callgsubr
          797 1594 -102 callgsubr
        </CharString>
        <CharString name="Ncommaaccent">
          431 21 callgsubr
          1382 80 -73 66 hstemhm
          359 112 443 167 403 112 hintmask 01011010
          146 46 rmoveto
          -17 callsubr
          38 29 3 4 28 vhcurveto
          4 29 26 4 31 hhcurveto
          31 31 -4 -4 30 hvcurveto
          -4 30 36 -3 30 hhcurveto
          68 22 25 21 16 -12 11 -21 -13 -13 -46 callsubr
          -8 -14 -1 -16 hhcurveto
          -33 -31 -78 callsubr
          813 vlineto
          1054 -1126 rlineto
          -68 63 25 -5 18 hhcurveto
          14 15 7 17 13 -3 7 -18 15 hvcurveto
          -34 31 -9 43 113 vvcurveto
          1019 vlineto
          -58 callgsubr
          -87 callgsubr
          hintmask 01101010
          -50 callsubr
          13 hhcurveto
          21 12 11 16 hvcurveto
          hintmask 01011010
          -52 callgsubr
          -38 -29 -3 -4 -28 vhcurveto
          -4 -29 -26 -4 -31 hhcurveto
          -31 -31 4 4 -30 hvcurveto
          4 -30 -36 3 -30 hhcurveto
          -68 -22 -25 -21 hvcurveto
          hintmask 01101010
          29 callgsubr
          13 2 2 9 vhcurveto
          hintmask 01011010
          2 8 14 1 16 hhcurveto
          33 31 -11 -25 14 hvcurveto
          -76 callgsubr
          -782 vlineto
          -1040 1099 rlineto
          -47 -54 2 3 -51 hvcurveto
          hintmask 01101010
          -69 callgsubr
          hintmask 10000100
          648 -269 -94 callgsubr
        </CharString>
        <CharString name="Ntilde">
          431 0 66 1382 80 -73 66 hstemhm
          359 112 1013 112 hintmask 10111000
          146 46 rmoveto
          -17 callsubr
          38 29 3 4 28 vhcurveto
          4 29 26 4 31 hhcurveto
          31 31 -4 -4 30 hvcurveto
          -4 30 36 -3 30 hhcurveto
          68 22 25 21 16 -12 11 -21 -13 -13 -46 callsubr
          -8 -14 -1 -16 hhcurveto
          -33 -31 -78 callsubr
          813 vlineto
          1054 -1126 rlineto
          -68 63 25 -5 18 hhcurveto
          14 15 7 17 13 -3 7 -18 15 hvcurveto
          -34 31 -9 43 113 vvcurveto
          1019 vlineto
          -58 callgsubr
          -87 callgsubr
          hintmask 11011000
          -50 callsubr
          13 hhcurveto
          21 12 11 16 hvcurveto
          hintmask 10111000
          -52 callgsubr
          -38 -29 -3 -4 -28 vhcurveto
          -4 -29 -26 -4 -31 hhcurveto
          -31 -31 4 4 -30 hvcurveto
          4 -30 -36 3 -30 hhcurveto
          -68 -22 -25 -21 hvcurveto
          hintmask 11011000
          29 callgsubr
          13 2 2 9 vhcurveto
          hintmask 10111000
          2 8 14 1 16 hhcurveto
          33 31 -11 -25 14 hvcurveto
          -76 callgsubr
          -782 vlineto
          -1040 1099 rlineto
          -47 -54 2 3 -51 hvcurveto
          hintmask 11011000
          -69 callgsubr
          443 1641 -79 callsubr
        </CharString>
        <CharString name="O">
          -98 callgsubr
          endchar
        </CharString>
        <CharString name="OE">
          813 -23 114 -91 97 648 97 573 98 -62 110 hstemhm
          132 208 816 222 hintmask 10101110
          132 729 rmoveto
          -448 313 -304 484 39 149 12 3 24 vhcurveto
          hintmask 01110110
          -10 callgsubr
          -24 -59 -100 -25 -101 hhcurveto
          -207 hlineto
          -61 -36 36 103 hvcurveto
          442 vlineto
          37 33 30 57 vhcurveto
          246 hlineto
          51 76 -48 -89 38 hvcurveto
          -16 7 6 -11 12 hhcurveto
          15 11 14 36 24 -2 23 -2 25 hvcurveto
          -3 25 -1 26 33 vvcurveto
          35 2 30 3 29 vhcurveto
          2 26 1 23 16 vvcurveto
          36 -11 15 -15 -12 -6 -12 -15 -7 vhcurveto
          -89 -38 -76 -39 -51 hhcurveto
          -245 hlineto
          -67 -24 22 35 hvcurveto
          424 vlineto
          59 23 33 74 vhcurveto
          267 hlineto
          113 56 -28 -47 58 hvcurveto
          39 -32 82 -92 24 -30 rrcurveto
          -22 18 6 -3 11 hhcurveto
          9 7 8 15 27 -13 40 -24 78 hvcurveto
          -19 59 -17 66 -7 59 rrcurveto
          -641 hlineto
          -150 -62 9 14 -60 hvcurveto
          hintmask 10101110
          13 -57 -71 12 -78 hhcurveto
          -25 callgsubr
          hvcurveto
          208 160 rmoveto
          330 226 232 289 95 114 -27 -48 92 vhcurveto
          -1272 vlineto
          -9 -37 -38 -4 -39 hhcurveto
          -341 -361 300 498 hvcurveto
          endchar
        </CharString>
        <CharString name="Oacute">
          -98 callgsubr
          405 766 -58 callsubr
          238 122 rlineto
          98 50 38 44 59 -14 callgsubr
          -58 -46 -19 -95 -77 -69 callsubr
        </CharString>
        <CharString name="Obreve">
          -98 callgsubr
          600 747 -95 callsubr
        </CharString>
        <CharString name="Ocircumflex">
          -98 callgsubr
          285 751 -101 callgsubr
        </CharString>
        <CharString name="Odieresis">
          -98 callgsubr
          890 796 rmoveto
          -89 callsubr
          -580 hmoveto
          -89 callsubr
          endchar
        </CharString>
        <CharString name="Ograve">
          -98 callgsubr
          795 766 -73 callgsubr
        </CharString>
        <CharString name="Ohungarumlaut">
          -98 callgsubr
          801 767 rmoveto
          -85 callgsubr
          -464 hmoveto
          -85 callgsubr
          endchar
        </CharString>
        <CharString name="Omacron">
          -98 callgsubr
          940 912 -45 callgsubr
        </CharString>
        <CharString name="Omega">
          503 0 182 1287 84 hstemhm
          142 335 -215 215 944 217 -217 338 hintmask 11010100
          142 hmoveto
          682 hlineto
          69 -20 137 29 -49 hvcurveto
          -159 94 -188 234 329 vvcurveto
          428 197 218 285 241 221 -193 -419 -326 -118 -239 -204 -126 vhcurveto
          -31 -51 -8 -135 59 hhcurveto
          660 361 hlineto
          54 -95 -25 -4 -22 vhcurveto
          -33 -186 rlineto
          -339 hlineto
          hintmask 11011000
          166 139 179 289 5 248 rrcurveto
          447 9 -283 248 -392 hhcurveto
          -356 -345 -227 -504 -9 hvcurveto
          -6 -296 190 -240 168 -104 rrcurveto
          -340 hlineto
          -33 186 rlineto
          hintmask 11101000
          -4 22 -95 25 -54 vvcurveto
          endchar
        </CharString>
        <CharString name="Oslash">
          435 -23 114 1360 110 hstem
          132 208 1176 232 vstem
          277 -153 rmoveto
          42 callsubr
          142 211 rlineto
          -51 111 131 -28 146 hhcurveto
          439 380 293 516 244 -114 225 -185 143 hvcurveto
          129 192 rlineto
          23 34 13 26 callgsubr
          -141 -207 rlineto
          63 -112 -132 36 -143 hhcurveto
          -25 callgsubr
          -269 112 -217 195 -130 hvcurveto
          -130 -192 rlineto
          -25 -38 -7 -19 -17 vvcurveto
          289 453 rmoveto
          -135 138 -91 200 251 vvcurveto
          330 226 232 289 139 135 -57 -99 111 vhcurveto
          -586 -1072 rmoveto
          668 988 rlineto
          118 -144 76 -197 -222 vvcurveto
          -367 -219 -190 -255 -134 -137 46 86 -117 vhcurveto
          endchar
        </CharString>
        <CharString name="Otilde">
          -98 callgsubr
          244 798 -79 callsubr
        </CharString>
        <CharString name="P">
          94 0 66 519 99 761 98 -81 66 hstemhm
          509 37 637 243 hintmask 11101100
          111 46 rmoveto
          -17 callsubr
          39 47 -31 callgsubr
          vhcurveto
          5 31 61 -20 callsubr
          34 61 -3 -5 31 hvcurveto
          -3 24 67 -4 39 hhcurveto
          68 30 25 21 16 -12 14 -21 -17 -14 -2 -3 -15 hvcurveto
          -3 -13 -15 -2 -20 hhcurveto
          -36 -28 -78 callsubr
          304 vlineto
          -26 90 84 -14 85 hhcurveto
          304 317 173 351 260 -235 174 -339 -107 -56 -8 -8 -58 hvcurveto
          -7 -49 -50 -6 -84 hhcurveto
          -62 -42 46 callsubr
          hintmask 11011100
          -91 callsubr
          -21 -12 -11 -16 hvcurveto
          435 706 rmoveto
          559 vlineto
          hintmask 11101100
          92 96 42 106 239 196 -152 -273 -193 -145 -143 -212 -86 -114 23 45 -80 vhcurveto
          endchar
        </CharString>
        <CharString name="Q">
          435 -395 78 245 71 -22 114 1360 110 hstemhm
          121 208 349 1202 -375 232 hintmask 11000100
          678 -117 rmoveto
          -19 8 -15 20 22 12 14 15 22 vhcurveto
          29 43 54 21 54 hhcurveto
          97 33 -28 -72 75 hvcurveto
          -157 164 163 -66 197 hhcurveto
          152 86 48 46 17 -11 11 -18 -14 -12 -8 -12 -20 hvcurveto
          -20 -34 -27 -4 -31 hhcurveto
          -71 -57 36 59 -66 hvcurveto
          107 -119 -130 114 -275 hhcurveto
          -208 -109 -73 -43 hvcurveto
          hintmask 00111010
          -557 846 rmoveto
          -448 313 -304 484 439 380 293 516 417 -331 358 -451 -25 callgsubr
          vhcurveto
          208 160 rmoveto
          330 226 232 289 345 316 -350 -453 -367 -219 -190 -255 -341 -361 300 498 vhcurveto
          endchar
        </CharString>
        <CharString name="R">
          -91 callgsubr
          endchar
        </CharString>
        <CharString name="Racute">
          -91 callgsubr
          96 829 -58 callsubr
          238 122 rlineto
          98 50 38 44 59 -14 callgsubr
          -58 -46 -19 -95 -77 -69 callsubr
        </CharString>
        <CharString name="Rcaron">
          -91 callgsubr
          289 814 -102 callgsubr
        </CharString>
        <CharString name="Rcommaaccent">
          94 -509 -21 518 62 -50 66 610 82 687 69 -69 96 -79 66 hstemhm
          290 222 358 167 121 243 hintmask 0011010101000000
          77 46 rmoveto
          -17 callsubr
          39 47 -31 callgsubr
          vhcurveto
          -101 callsubr
          387 vlineto
          119 -32 78 -49 70 -121 rrcurveto
          hintmask 0101010101000000
          -432 250 96 -86 296 hhcurveto
          64 45 21 26 21 -10 7 -17 -8 -9 -4 -3 -7 hvcurveto
          -3 -8 -9 -3 -15 hhcurveto
          -69 -92 42 204 -117 hvcurveto
          -127 222 -80 92 -128 66 rrcurveto
          35 hlineto
          275 257 152 305 214 -188 194 -385 -104 -56 -9 -6 -57 hvcurveto
          hintmask 0011100101000000
          -6 -54 -53 -6 -90 hhcurveto
          -62 -42 46 callsubr
          hintmask 0011001101000000
          -68 callsubr
          hintmask 0011010101000000
          92 47 42 180 251 168 -173 -198 -212 -161 -104 -167 -122 -111 24 44 -85 vhcurveto
          hintmask 1000000010000000
          238 -1049 -94 callgsubr
        </CharString>
        <CharString name="S">
          -99 callgsubr
          endchar
        </CharString>
        <CharString name="Sacute">
          -99 callgsubr
          404 1185 -58 callsubr
          238 122 rlineto
          98 50 38 44 59 -14 callgsubr
          -58 -46 -19 -95 -77 -69 callsubr
        </CharString>
        <CharString name="Scaron">
          -99 callgsubr
          597 1170 -102 callgsubr
        </CharString>
        <CharString name="Scedilla">
          94 20 callsubr
          173 98 1390 96 23 -20 hstem
          235 180 455 134 210 188 vstem
          203 125 rmoveto
          128 -61 137 -65 225 -17 -51 -263 rcurveline
          -64 callsubr
          39 174 rlineto
          22 hlineto
          357 235 174 271 236 -135 149 -450 105 hvcurveto
          -314 75 -88 116 130 vvcurveto
          132 149 100 222 210 152 -102 -182 87 vhcurveto
          -38 17 11 -15 14 hhcurveto
          13 12 10 32 30 -8 35 -9 37 hvcurveto
          -30 124 -12 72 -3 67 rrcurveto
          39 -1 -8 10 -16 hhcurveto
          -11 -14 -13 -21 -16 hvcurveto
          -39 -28 -14 -4 -12 hhcurveto
          -9 -7 1 16 -46 hvcurveto
          19 -57 -87 18 -117 hhcurveto
          -374 -188 -215 -208 -200 152 -185 373 -83 hvcurveto
          341 -75 113 -121 -130 vvcurveto
          -174 -153 -95 -246 -288 -226 189 265 -30 vhcurveto
          43 -6 -10 13 -16 hhcurveto
          -21 -15 -31 -84 hvcurveto
          endchar
        </CharString>
        <CharString name="Scircumflex">
          -99 callgsubr
          284 1170 -101 callgsubr
        </CharString>
        <CharString name="Scommaaccent">
          94 -509 -21 507 98 1390 96 23 -20 hstemhm
          235 180 331 167 301 188 hintmask 00000000
          hintmask 01101010
          203 125 rmoveto
          -71 149 161 -77 297 hhcurveto
          357 235 174 271 236 -135 149 -450 105 hvcurveto
          -314 75 -88 116 130 vvcurveto
          132 149 100 222 210 152 -102 -182 87 vhcurveto
          -38 17 11 -15 14 hhcurveto
          13 12 10 32 30 -8 35 -9 37 hvcurveto
          -30 124 -12 72 -3 67 rrcurveto
          39 -1 -8 10 -16 hhcurveto
          -11 -14 -13 -21 -16 hvcurveto
          -39 -28 -14 -4 -12 hhcurveto
          -9 -7 1 16 -46 hvcurveto
          19 -57 -87 18 -117 hhcurveto
          -374 -188 -215 -208 -200 152 -185 373 -83 hvcurveto
          hintmask 01011010
          341 -75 113 -121 -130 vvcurveto
          -174 -153 -95 -246 -288 -226 189 265 -30 vhcurveto
          hintmask 01101010
          43 -6 -10 13 -16 hhcurveto
          -21 -15 -31 -84 hvcurveto
          hintmask 10000100
          423 -693 -94 callgsubr
        </CharString>
        <CharString name="T">
          94 0 3 callgsubr
          hstem
          649 222 vstem
          -93 callgsubr
          endchar
        </CharString>
        <CharString name="Tbar">
          94 0 3 callgsubr
          hstem
          649 222 vstem
          -70 callsubr
          552 235 vlineto
          6 callsubr
          -234 445 hlineto
          131 -2 130 -8 66 -34 80 -41 32 -64 17 -83 rrcurveto
          -20 3 10 -7 13 hhcurveto
          9 12 10 33 7 hvcurveto
          21 99 17 65 49 111 rrcurveto
          14 33 12 24 14 vvcurveto
          29 -19 2 -6 vhcurveto
          -31 -24 -63 -106 hhcurveto
          -978 hlineto
          -80 -17 6 18 -14 hvcurveto
          31 -25 -9 8 -14 hhcurveto
          -11 -14 -9 -40 -6 hvcurveto
          -28 -164 -59 -127 -50 vvcurveto
          -19 7 -8 12 12 9 7 17 14 vhcurveto
          47 59 103 118 117 26 rrcurveto
          11 51 79 18 72 hhcurveto
          73 -445 -254 hlineto
          6 callgsubr
          257 -552 -8 callgsubr
        </CharString>
        <CharString name="Tcaron">
          94 0 3 callgsubr
          hstem
          649 222 vstem
          -93 callgsubr
          365 1594 -102 callgsubr
        </CharString>
        <CharString name="Tcommaaccent">
          94 -509 -21 530 3 callgsubr
          hstemhm
          649 222 -125 167 hintmask 01111000
          -93 callgsubr
          hintmask 10000100
          220 -269 -94 callgsubr
        </CharString>
        <CharString name="Thorn">
          94 0 66 259 99 711 98 229 66 hstem
          509 37 637 243 vstem
          111 46 rmoveto
          -17 callsubr
          39 47 -31 callgsubr
          vhcurveto
          5 31 61 -20 callsubr
          34 61 -3 -5 31 hvcurveto
          -3 24 67 -4 39 hhcurveto
          68 30 25 21 16 -12 14 -21 -17 -14 -2 -3 -15 hvcurveto
          -3 -13 -15 -2 -20 hhcurveto
          -36 -28 11 25 -14 hvcurveto
          -26 45 -11 101 -1 107 rrcurveto
          -23 90 84 -7 85 hhcurveto
          304 317 143 336 260 -221 169 -384 -72 -105 -11 -25 -98 hvcurveto
          10 vlineto
          -58 callgsubr
          25 14 28 11 36 hhcurveto
          20 15 -2 -3 13 hvcurveto
          -3 15 14 35 callsubr
          -39 -67 -4 -3 -24 hvcurveto
          -5 -31 -61 -3 -34 hhcurveto
          -34 -61 21 callsubr
          -47 4 -39 hhcurveto
          -68 -20 -25 -21 29 callgsubr
          8 2 -37 callgsubr
          2 8 10 1 16 hhcurveto
          33 31 -11 -25 14 hvcurveto
          -76 callgsubr
          -886 vlineto
          -76 callsubr
          435 437 rmoveto
          508 vlineto
          92 96 52 106 250 185 -156 -249 -193 -145 -113 -212 -86 -114 16 43 -80 vhcurveto
          endchar
        </CharString>
        <CharString name="U">
          429 -23 98 1387 66 hstem
          280 222 831 225 vstem
          280 545 rmoveto
          -356 219 -212 404 141 162 50 90 127 vhcurveto
          -93 4 26 -24 36 -68 callgsubr
          16 2 17 hhcurveto
          16 29 -1 -4 30 -83 callsubr
          -3 862 rlineto
          -107 callgsubr
          -983 vlineto
          -92 -107 -131 -57 -161 hhcurveto
          -257 -175 157 273 hvcurveto
          702 -106 callsubr
          endchar
        </CharString>
        <CharString name="Uacute">
          429 -23 98 1387 66 hstem
          280 222 831 225 vstem
          280 545 rmoveto
          -356 219 -212 404 141 162 50 90 127 vhcurveto
          -93 4 26 -24 36 -68 callgsubr
          16 2 17 hhcurveto
          16 29 -1 -4 30 -83 callsubr
          -3 862 rlineto
          -107 callgsubr
          -983 vlineto
          -92 -107 -131 -57 -161 hhcurveto
          -257 -175 157 273 hvcurveto
          702 -106 callsubr
          442 448 -58 callsubr
          238 122 rlineto
          98 50 38 44 59 -14 callgsubr
          -58 -46 -19 -95 -77 -69 callsubr
        </CharString>
        <CharString name="Ubreve">
          429 -23 98 1387 66 hstem
          280 222 831 225 vstem
          280 545 rmoveto
          -356 219 -212 404 141 162 50 90 127 vhcurveto
          -93 4 26 -24 36 -68 callgsubr
          16 2 17 hhcurveto
          16 29 -1 -4 30 -83 callsubr
          -3 862 rlineto
          -107 callgsubr
          -983 vlineto
          -92 -107 -131 -57 -161 hhcurveto
          -257 -175 157 273 hvcurveto
          702 -106 callsubr
          637 429 -95 callsubr
        </CharString>
        <CharString name="Ucircumflex">
          429 -23 98 1387 66 hstem
          280 222 831 225 vstem
          280 545 rmoveto
          -356 219 -212 404 141 162 50 90 127 vhcurveto
          -93 4 26 -24 36 -68 callgsubr
          16 2 17 hhcurveto
          16 29 -1 -4 30 -83 callsubr
          -3 862 rlineto
          -107 callgsubr
          -983 vlineto
          -92 -107 -131 -57 -161 hhcurveto
          -257 -175 157 273 hvcurveto
          702 -106 callsubr
          322 433 -101 callgsubr
        </CharString>
        <CharString name="Udieresis">
          429 -23 98 1387 66 hstem
          280 222 831 225 vstem
          280 545 rmoveto
          -356 219 -212 404 141 162 50 90 127 vhcurveto
          -93 4 26 -24 36 -68 callgsubr
          16 2 17 hhcurveto
          16 29 -1 -4 30 -83 callsubr
          -3 862 rlineto
          -107 callgsubr
          -983 vlineto
          -92 -107 -131 -57 -161 hhcurveto
          -257 -175 157 273 hvcurveto
          702 -106 callsubr
          927 478 rmoveto
          -89 callsubr
          -580 hmoveto
          -89 callsubr
          endchar
        </CharString>
        <CharString name="Ugrave">
          429 -23 98 1387 66 hstem
          280 222 831 225 vstem
          280 545 rmoveto
          -356 219 -212 404 141 162 50 90 127 vhcurveto
          -93 4 26 -24 36 -68 callgsubr
          16 2 17 hhcurveto
          16 29 -1 -4 30 -83 callsubr
          -3 862 rlineto
          -107 callgsubr
          -983 vlineto
          -92 -107 -131 -57 -161 hhcurveto
          -257 -175 157 273 hvcurveto
          702 -106 callsubr
          832 448 -73 callgsubr
        </CharString>
        <CharString name="Uhungarumlaut">
          429 -23 98 1387 66 hstem
          280 222 831 225 vstem
          280 545 rmoveto
          -356 219 -212 404 141 162 50 90 127 vhcurveto
          -93 4 26 -24 36 -68 callgsubr
          16 2 17 hhcurveto
          16 29 -1 -4 30 -83 callsubr
          -3 862 rlineto
          -107 callgsubr
          -983 vlineto
          -92 -107 -131 -57 -161 hhcurveto
          -257 -175 157 273 hvcurveto
          702 -106 callsubr
          838 449 rmoveto
          -85 callgsubr
          -464 hmoveto
          -85 callgsubr
          endchar
        </CharString>
        <CharString name="Umacron">
          429 -23 98 1387 66 hstem
          280 222 831 225 vstem
          280 545 rmoveto
          -356 219 -212 404 141 162 50 90 127 vhcurveto
          -93 4 26 -24 36 -68 callgsubr
          16 2 17 hhcurveto
          16 29 -1 -4 30 -83 callsubr
          -3 862 rlineto
          -107 callgsubr
          -983 vlineto
          -92 -107 -131 -57 -161 hhcurveto
          -257 -175 157 273 hvcurveto
          702 -106 callsubr
          977 594 -45 callgsubr
        </CharString>
        <CharString name="Uogonek">
          429 -23 98 1387 66 hstem
          280 222 831 225 vstem
          280 545 rmoveto
          -356 219 -212 404 141 162 50 90 127 vhcurveto
          4 -90 24 -26 34 -1 rrcurveto
          -57 -75 -38 -101 -26 callgsubr
          -54 callgsubr
          81 26 73 31 50 vhcurveto
          16 26 -2 -3 27 -83 callsubr
          -3 862 rlineto
          -107 callgsubr
          -983 vlineto
          -92 -107 -131 -57 -161 hhcurveto
          -257 -175 157 273 hvcurveto
          702 -106 callsubr
          endchar
        </CharString>
        <CharString name="Uring">
          429 -23 98 1387 66 hstem
          280 222 831 225 vstem
          280 545 rmoveto
          -356 219 -212 404 141 162 50 90 127 vhcurveto
          -93 4 26 -24 36 -68 callgsubr
          16 2 17 hhcurveto
          16 29 -1 -4 30 -83 callsubr
          -3 862 rlineto
          -107 callgsubr
          -983 vlineto
          -92 -107 -131 -57 -161 hhcurveto
          -257 -175 157 273 hvcurveto
          702 -106 callsubr
          638 321 -43 callgsubr
        </CharString>
        <CharString name="Utilde">
          429 -23 98 1387 66 hstem
          280 222 831 225 vstem
          280 545 rmoveto
          -356 219 -212 404 141 162 50 90 127 vhcurveto
          -93 4 26 -24 36 -68 callgsubr
          16 2 17 hhcurveto
          16 29 -1 -4 30 -83 callsubr
          -3 862 rlineto
          -107 callgsubr
          -983 vlineto
          -92 -107 -131 -57 -161 hhcurveto
          -257 -175 157 273 hvcurveto
          702 -106 callsubr
          281 480 -79 callsubr
        </CharString>
        <CharString name="V">
          262 1455 73 -63 63 hstemhm
          -27 1762 hintmask 00000000
          hintmask 10100000
          647 332 rmoveto
          -327 150 112 -89 77 hhcurveto
          24 11 9 16 15 -8 9 -25 10 hvcurveto
          hintmask 01100000
          -27 10 -12 24 34 vvcurveto
          62 19 50 130 287 vhcurveto
          332 727 rlineto
          hintmask 10100000
          265 121 30 29 65 -44 callsubr
          -4 -24 -25 -3 -41 hhcurveto
          -26 -26 3 4 -32 hvcurveto
          -71 callgsubr
          23 hhcurveto
          37 21 -14 -28 -43 -15 -58 -34 -78 hvcurveto
          -376 -872 rlineto
          -49 -20 -8 -11 -9 hhcurveto
          -8 -12 4 92 -39 hvcurveto
          -381 875 rlineto
          -32 71 -9 44 -11 callgsubr
          -2 13 -23 callsubr
          25 7 12 13 29 -33 18 -63 -47 -45 -3 -5 -46 hvcurveto
          -33 callgsubr
          3 -31 -24 3 -33 hhcurveto
          -60 -28 -23 -24 -17 12 -9 21 10 8 2 2 8 hvcurveto
          2 10 9 12 callsubr
          37 -24 -180 81 hvcurveto
          endchar
        </CharString>
        <CharString name="W">
          -105 callsubr
          endchar
        </CharString>
        <CharString name="Wacute">
          -105 callsubr
          382 1714 -58 callsubr
          238 122 rlineto
          98 50 38 44 59 -14 callgsubr
          -58 -46 -19 -95 -77 -69 callsubr
        </CharString>
        <CharString name="Wcircumflex">
          -105 callsubr
          262 1699 -101 callgsubr
        </CharString>
        <CharString name="Wdieresis">
          -105 callsubr
          867 1744 rmoveto
          -89 callsubr
          -580 hmoveto
          -89 callsubr
          endchar
        </CharString>
        <CharString name="Wgrave">
          -105 callsubr
          772 1714 -73 callgsubr
        </CharString>
        <CharString name="X">
          94 0 63 1402 63 hstem
          -31 1605 vstem
          46 hmoveto
          31 21 4 3 22 hvcurveto
          4 24 25 3 41 hhcurveto
          26 26 -3 -4 32 hvcurveto
          -3 29 34 -4 44 hhcurveto
          63 29 22 25 16 -13 9 -19 -12 -15 -2 -3 -12 hvcurveto
          -3 -14 -10 -2 -13 hhcurveto
          -47 -21 15 27 24 24 60 133 165 hvcurveto
          246 303 324 -437 rlineto
          46 -62 13 -28 -24 vvcurveto
          -23 -19 -19 -49 -14 -12 2 2 -11 vhcurveto
          2 -13 -13 3 -13 hhcurveto
          -25 -7 -12 -13 -29 33 -18 63 47 45 3 5 46 hvcurveto
          4 44 45 2 39 hhcurveto
          36 41 25 callsubr
          -3 31 24 -3 33 hhcurveto
          60 28 23 24 17 -12 9 -21 -10 -8 -2 -2 -8 hvcurveto
          -2 -10 -9 -2 -10 hhcurveto
          -34 -13 11 45 -33 hvcurveto
          -517 699 440 535 rlineto
          85 70 30 23 34 -44 callsubr
          -4 -24 -25 -3 -41 hhcurveto
          -26 -26 3 4 -32 hvcurveto
          -49 callsubr
          -24 -24 -60 -133 -165 hvcurveto
          -220 -271 -300 406 rlineto
          -46 62 -12 27 24 vvcurveto
          23 -4 callsubr
          -2 13 -23 callsubr
          25 7 12 13 29 -33 18 -63 -47 -45 -3 -5 -46 hvcurveto
          -33 callgsubr
          3 -31 -24 3 -33 hhcurveto
          -60 -28 -23 -24 -17 12 -9 21 10 8 2 2 8 hvcurveto
          2 10 9 -16 callgsubr
          34 13 -11 -45 33 hvcurveto
          493 -667 -467 -567 rlineto
          -85 -70 -30 -23 -34 hhcurveto
          -11 -10 -42 callsubr
          2 -10 -8 2 -8 hhcurveto
          -21 -12 -10 -16 -29 36 -18 41 hvcurveto
          endchar
        </CharString>
        <CharString name="Y">
          -104 callgsubr
          endchar
        </CharString>
        <CharString name="Yacute">
          -104 callgsubr
          167 1609 -58 callsubr
          238 122 rlineto
          98 50 38 44 59 -14 callgsubr
          -58 -46 -19 -95 -77 -69 callsubr
        </CharString>
        <CharString name="Ycircumflex">
          -104 callgsubr
          47 1594 -101 callgsubr
        </CharString>
        <CharString name="Ydieresis">
          -104 callgsubr
          652 1639 rmoveto
          -89 callsubr
          -580 hmoveto
          -89 callsubr
          endchar
        </CharString>
        <CharString name="Ygrave">
          -104 callgsubr
          557 1609 -73 callgsubr
        </CharString>
        <CharString name="Z">
          -86 callsubr
          endchar
        </CharString>
        <CharString name="Zacute">
          -86 callsubr
          475 1616 -58 callsubr
          238 122 rlineto
          98 50 38 44 59 -14 callgsubr
          -58 -46 -19 -95 -77 -69 callsubr
        </CharString>
        <CharString name="Zcaron">
          -86 callsubr
          668 1601 -102 callgsubr
        </CharString>
        <CharString name="Zdotaccent">
          -86 callsubr
          670 1669 rmoveto
          -82 callgsubr
          -69 49 -88 114 hvcurveto
          endchar
        </CharString>
        <CharString name="a">
          -53 callsubr
          hstemhm
          173 233 507 12 hintmask 10011011
          -61 callsubr
          hintmask 00111011
          -81 6 25 -21 34 -42 callgsubr
          25 -2 -2 23 hvcurveto
          hintmask 01011011
          -2 27 26 -3 27 hhcurveto
          73 20 24 23 14 -13 12 -19 -10 -9 -3 -34 callsubr
          -9 -1 -9 hhcurveto
          -36 -43 14 39 -16 hvcurveto
          -18 45 -3 55 130 vvcurveto
          286 vlineto
          221 -83 180 -391 -51 -115 -20 -13 -32 vhcurveto
          -7 -18 -11 -3 -13 hhcurveto
          hintmask 10010111
          -13 -20 20 -81 callsubr
          hintmask 10011011
          -90 callsubr
          endchar
        </CharString>
        <CharString name="aacute">
          -53 callsubr
          542 33 callgsubr
          14 444 49 12 hintmask 1001100101000000
          -61 callsubr
          hintmask 0011100101000000
          -81 6 25 -21 34 -42 callgsubr
          25 -2 -2 23 hvcurveto
          hintmask 0101100101000000
          -2 27 26 -3 27 hhcurveto
          73 20 24 23 14 -13 12 -19 -10 -9 -3 -34 callsubr
          -9 -1 -9 hhcurveto
          -36 -43 14 39 -16 hvcurveto
          -18 45 -3 55 130 vvcurveto
          286 vlineto
          221 -83 180 -391 -51 -115 -20 -13 -32 vhcurveto
          -7 -18 -11 -3 -13 hhcurveto
          hintmask 1001010101000000
          -13 -20 20 -81 callsubr
          hintmask 1001100101000000
          -90 callsubr
          hintmask 0000001010000000
          41 875 -88 callgsubr
        </CharString>
        <CharString name="abreve">
          -53 callsubr
          hstemhm
          173 233 507 12 hintmask 10011011
          -61 callsubr
          hintmask 00111011
          -81 6 25 -21 34 -42 callgsubr
          25 -2 -2 23 hvcurveto
          hintmask 01011011
          -2 27 26 -3 27 hhcurveto
          73 20 24 23 14 -13 12 -19 -10 -9 -3 -34 callsubr
          -9 -1 -9 hhcurveto
          -36 -43 14 39 -16 hvcurveto
          -18 45 -3 55 130 vvcurveto
          286 vlineto
          221 -83 180 -391 -51 -115 -20 -13 -32 vhcurveto
          -7 -18 -11 -3 -13 hhcurveto
          hintmask 10010111
          -13 -20 20 -81 callsubr
          hintmask 10011011
          -90 callsubr
          236 908 -95 callsubr
        </CharString>
        <CharString name="acircumflex">
          -53 callsubr
          566 33 callgsubr
          -106 684 -71 12 hintmask 1001100101000000
          -61 callsubr
          hintmask 0011100101000000
          -81 6 25 -21 34 -42 callgsubr
          25 -2 -2 23 hvcurveto
          hintmask 0101100101000000
          -2 27 26 -3 27 hhcurveto
          73 20 24 23 14 -13 12 -19 -10 -9 -3 -34 callsubr
          -9 -1 -9 hhcurveto
          -36 -43 14 39 -16 hvcurveto
          -18 45 -3 55 130 vvcurveto
          286 vlineto
          221 -83 180 -391 -51 -115 -20 -13 -32 vhcurveto
          -7 -18 -11 -3 -13 hhcurveto
          hintmask 1001010101000000
          -13 -20 20 -81 callsubr
          hintmask 1001100101000000
          -90 callsubr
          hintmask 0000001010000000
          -79 880 -97 callsubr
        </CharString>
        <CharString name="acute">
          -801 1561 -20 hstem
          100 444 vstem
          127 1190 -88 callgsubr
        </CharString>
        <CharString name="acute.cap">
          -801 1676 -21 371 -20 hstem
          127 1655 -58 callsubr
          238 122 rlineto
          98 50 38 44 59 -14 callgsubr
          -58 -46 -19 -95 -77 -69 callsubr
        </CharString>
        <CharString name="adieresis">
          -53 callsubr
          201 297 0 callsubr
          -149 771 -115 12 hintmask 1001100101000000
          -61 callsubr
          hintmask 0011100101000000
          -81 6 25 -21 34 -42 callgsubr
          25 -2 -2 23 hvcurveto
          hintmask 0101100101000000
          -2 27 26 -3 27 hhcurveto
          73 20 24 23 14 -13 12 -19 -10 -9 -3 -34 callsubr
          -9 -1 -9 hhcurveto
          -36 -43 14 39 -16 hvcurveto
          -18 45 -3 55 130 vvcurveto
          286 vlineto
          221 -83 180 -391 -51 -115 -20 -13 -32 vhcurveto
          -7 -18 -11 -3 -13 hhcurveto
          hintmask 1001010101000000
          -13 -20 20 -81 callsubr
          hintmask 1001100101000000
          -90 callsubr
          hintmask 0000001010000000
          476 905 rmoveto
          -89 callsubr
          -480 hmoveto
          -89 callsubr
          endchar
        </CharString>
        <CharString name="ae">
          13 callgsubr
          hstemhm
          173 233 672 55 hintmask 10110110
          -22 callsubr
          hintmask 01110110
          -35 callgsubr
          hintmask 10101110
          -36 callgsubr
          hintmask 10110110
          -30 callgsubr
          endchar
        </CharString>
        <CharString name="aeacute">
          13 callgsubr
          542 33 callgsubr
          426 444 -198 55 hintmask 1011001010000000
          -22 callsubr
          hintmask 0111001010000000
          -35 callgsubr
          hintmask 1010101010000000
          -36 callgsubr
          hintmask 1011001010000000
          -30 callgsubr
          hintmask 0000010100000000
          453 900 -88 callgsubr
        </CharString>
        <CharString name="agrave">
          -53 callsubr
          542 33 callgsubr
          14 444 49 12 hintmask 1001100101000000
          -61 callsubr
          hintmask 0011100101000000
          -81 6 25 -21 34 -42 callgsubr
          25 -2 -2 23 hvcurveto
          hintmask 0101100101000000
          -2 27 26 -3 27 hhcurveto
          73 20 24 23 14 -13 12 -19 -10 -9 -3 -34 callsubr
          -9 -1 -9 hhcurveto
          -36 -43 14 39 -16 hvcurveto
          -18 45 -3 55 130 vvcurveto
          286 vlineto
          221 -83 180 -391 -51 -115 -20 -13 -32 vhcurveto
          -7 -18 -11 -3 -13 hhcurveto
          hintmask 1001010101000000
          -13 -20 20 -81 callsubr
          hintmask 1001100101000000
          -90 callsubr
          hintmask 0000001010000000
          388 890 -72 callgsubr
        </CharString>
        <CharString name="amacron">
          -53 callsubr
          284 127 0 callsubr
          -102 676 -67 12 hintmask 1001100101000000
          -61 callsubr
          hintmask 0011100101000000
          -81 6 25 -21 34 -42 callgsubr
          25 -2 -2 23 hvcurveto
          hintmask 0101100101000000
          -2 27 26 -3 27 hhcurveto
          73 20 24 23 14 -13 12 -19 -10 -9 -3 -34 callsubr
          -9 -1 -9 hhcurveto
          -36 -43 14 39 -16 hvcurveto
          -18 45 -3 55 130 vvcurveto
          286 vlineto
          221 -83 180 -391 -51 -115 -20 -13 -32 vhcurveto
          -7 -18 -11 -3 -13 hhcurveto
          hintmask 1001010101000000
          -13 -20 20 -81 callsubr
          hintmask 1001100101000000
          -90 callsubr
          hintmask 0000001010000000
          -102 988 -10 callsubr
        </CharString>
        <CharString name="ampersand">
          358 -19 100 -84 69 -45 -21 871 59 -56 63 549 75 hstemhm
          130 242 -60 210 408 219 hintmask 1000111010000000
          130 368 rmoveto
          -213 186 -174 310 165 166 54 169 166 vhcurveto
          104 -102 rlineto
          hintmask 0010111010000000
          -86 89 29 -16 33 hhcurveto
          14 16 1 1 17 hvcurveto
          1 18 20 2 16 hhcurveto
          15 27 -1 -3 28 hvcurveto
          hintmask 0101011010000000
          -3 26 26 -1 19 hhcurveto
          64 39 19 31 16 -15 11 -18 -8 -8 -2 -2 -8 hvcurveto
          -2 -8 -8 -2 -10 hhcurveto
          -33 -33 5 28 -28 hvcurveto
          -103 102 -94 91 -86 82 69 98 69 121 70 148 rrcurveto
          95 46 49 35 51 hhcurveto
          11 7 -1 -2 7 hvcurveto
          -2 8 6 -2 10 hhcurveto
          18 14 9 19 hvcurveto
          hintmask 1000111010000000
          24 -27 21 -53 vhcurveto
          hintmask 1001011010000000
          -26 -14 -3 -4 -25 hvcurveto
          -4 -23 -25 -3 -26 hhcurveto
          -30 -31 4 3 -31 hvcurveto
          hintmask 1000110110000000
          4 -32 -33 3 -36 hhcurveto
          -72 -26 -22 -22 -16 10 -12 23 8 9 2 -37 callgsubr
          2 7 8 3 25 hhcurveto
          47 24 -18 -36 -53 -12 -38 -21 -54 hvcurveto
          -33 -80 -45 -80 -53 -76 -172 163 -136 124 -101 108 rrcurveto
          233 99 131 142 186 vvcurveto
          166 -131 134 -259 -299 -148 -169 -179 -125 40 -106 157 -171 vhcurveto
          hintmask 1000111010000000
          -276 -122 -103 -126 -195 vvcurveto
          594 535 rmoveto
          hintmask 1000110110000000
          -169 198 -33 78 114 vvcurveto
          115 78 78 119 94 117 -87 -201 -65 -41 -139 -165 -91 vhcurveto
          hintmask 1000111010000000
          -352 -509 rmoveto
          117 47 144 152 91 vhcurveto
          20 -19 463 -455 rlineto
          -114 -116 -132 -77 -123 hhcurveto
          -195 -116 126 187 hvcurveto
          endchar
        </CharString>
        <CharString name="aogonek">
          -53 callsubr
          hstemhm
          173 233 507 12 hintmask 10011011
          -61 callsubr
          hintmask 00111011
          -81 6 25 -21 34 hhcurveto
          21 20 1 2 18 hvcurveto
          9 10 1 1 10 hvcurveto
          -77 -71 -47 -99 -124 -21 callgsubr
          87 26 69 43 44 vhcurveto
          hintmask 01011011
          -2 25 24 -3 26 hhcurveto
          73 20 24 23 14 -13 12 -19 -10 -9 -3 -34 callsubr
          -9 -1 -9 hhcurveto
          -36 -43 14 39 -16 hvcurveto
          -18 45 -3 55 130 vvcurveto
          286 vlineto
          221 -83 180 -391 -51 -115 -20 -13 -32 vhcurveto
          -7 -18 -11 -3 -13 hhcurveto
          hintmask 10010111
          -13 -20 20 -81 callsubr
          hintmask 10011011
          -90 callsubr
          endchar
        </CharString>
        <CharString name="approxequal">
          -107 211 137 122 137 87 137 122 137 hstemhm
          115 1220 hintmask 00111000
          235 727 -54 callsubr
          hintmask 11001000
          120 -542 -54 callsubr
          endchar
        </CharString>
        <CharString name="aring">
          -53 callsubr
          198 92 244 96 0 callsubr
          8 108 239 109 43 12 hintmask 1001100010010000
          -61 callsubr
          hintmask 0011100010010000
          -81 6 25 -21 34 -42 callgsubr
          25 -2 -2 23 hvcurveto
          hintmask 0101100010010000
          -2 27 26 -3 27 hhcurveto
          73 20 24 23 14 -13 12 -19 -10 -9 -3 -34 callsubr
          -9 -1 -9 hhcurveto
          -36 -43 14 39 -16 hvcurveto
          -18 45 -3 55 130 vvcurveto
          286 vlineto
          221 -83 180 -391 -51 -115 -20 -13 -32 vhcurveto
          -7 -18 -11 -3 -13 hhcurveto
          hintmask 1001010010010000
          -13 -20 20 -81 callsubr
          hintmask 1001100010010000
          -90 callsubr
          hintmask 0000001101100000
          236 902 -40 callgsubr
        </CharString>
        <CharString name="asciicircum">
          -304 1562 -20 hstem
          150 841 vstem
          150 973 rmoveto
          163 hlineto
          252 379 257 -379 rlineto
          169 hlineto
          -393 589 rlineto
          -60 hlineto
          endchar
        </CharString>
        <CharString name="asciitilde">
          -8 441 137 122 137 hstem
          115 1220 vstem
          235 474 -54 callsubr
          endchar
        </CharString>
        <CharString name="asterisk">
          -400 1123 207 -196 208 219 -20 hstemhm
          487 13 33 18 hintmask 10111000
          339 788 rmoveto
          55 27 27 128 40 hvcurveto
          14 49 18 42 24 44 22 -42 27 -67 10 -40 rrcurveto
          -115 27 32 -35 54 hhcurveto
          51 59 39 65 2 hvcurveto
          19 -6 19 -13 19 vhcurveto
          -18 23 -39 30 -39 28 -44 28 -33 30 -34 38 rrcurveto
          8 47 45 2 34 hhcurveto
          19 17 -1 -1 16 hvcurveto
          -1 19 16 -1 15 hhcurveto
          68 44 38 54 61 -41 54 -56 -40 -33 -22 -50 -65 hvcurveto
          -40 -32 -41 -23 -46 -21 7 54 12 54 18 47 rrcurveto
          17 47 20 39 44 vvcurveto
          62 -45 32 -56 -57 -46 -36 -58 -30 14 -47 16 -45 vhcurveto
          19 -54 10 -48 4 -56 -42 22 -41 26 -34 26 rrcurveto
          hintmask 01111000
          32 -41 -45 49 -59 hhcurveto
          -51 -43 -47 -67 -98 114 1 75 3 hvcurveto
          50 1 46 -4 48 -10 -34 -35 -38 -33 -36 -24 rrcurveto
          -47 -32 -80 -37 -71 vvcurveto
          -59 52 -42 59 vhcurveto
          endchar
        </CharString>
        <CharString name="at">
          880 -530 113 393 110 -34 62 648 95 395 104 hstemhm
          132 232 298 257 328 73 23 110 557 205 hintmask 1011111111000000
          132 120 rmoveto
          -462 376 -188 390 314 241 146 176 43 -30 27 -39 -37 -17 -26 -26 -10 3 -8 4 -8 vhcurveto
          3 -7 3 -6 -10 vvcurveto
          -74 -189 -104 -202 -429 -159 247 352 492 415 578 665 349 217 -185 -327 -388 -281 -238 -165 -49 -31 -39 40 9 vhcurveto
          143 627 rlineto
          98 -91 -142 17 -94 hhcurveto
          -393 -254 -312 -297 hvcurveto
          hintmask 1101111111000000
          -113 36 -159 252 105 112 58 82 84 vhcurveto
          -91 -15 31 -25 36 -42 callgsubr
          24 -2 -2 23 hvcurveto
          hintmask 1011111111000000
          -2 27 39 52 26 hhcurveto
          272 364 357 384 370 -287 193 -414 -811 -571 -611 -625 hvcurveto
          787 142 rmoveto
          271 202 229 144 59 38 -26 -33 26 vhcurveto
          -105 -448 rlineto
          hintmask 1101111111000000
          -93 -69 -96 -76 -82 hhcurveto
          -90 -27 70 106 hvcurveto
          endchar
        </CharString>
        <CharString name="atilde">
          -53 callsubr
          217 22 callsubr
          173 233 -113 698 -78 12 hintmask 1001100010100000
          -61 callsubr
          hintmask 0011100010100000
          -81 6 25 -21 34 -42 callgsubr
          25 -2 -2 23 hvcurveto
          hintmask 0101100010100000
          -2 27 26 -3 27 hhcurveto
          73 20 24 23 14 -13 12 -19 -10 -9 -3 -34 callsubr
          -9 -1 -9 hhcurveto
          -36 -43 14 39 -16 hvcurveto
          -18 45 -3 55 130 vvcurveto
          286 vlineto
          221 -83 180 -391 -51 -115 -20 -13 -32 vhcurveto
          -7 -18 -11 -3 -13 hhcurveto
          hintmask 1001010010100000
          -13 -20 20 -81 callsubr
          hintmask 1001100010100000
          -90 callsubr
          hintmask 0000000000000000
          -90 923 rmoveto
          10 17 9 31 21 hvcurveto
          hintmask 0000001001000000
          42 29 28 23 30 hhcurveto
          31 28 -10 -40 74 hvcurveto
          -42 79 56 -15 43 -66 callgsubr
          hintmask 0000000101000000
          -61 callgsubr
        </CharString>
        <CharString name="b">
          -79 -24 88 873 95 hstem
          198 225 607 237 vstem
          -59 callgsubr
          endchar
        </CharString>
        <CharString name="backslash">
          -437 32 callsubr
          100 808 vstem
          265 1567 rmoveto
          113 -42 -30 23 -40 hhcurveto
          -33 -20 -25 -26 -21 10 -42 12 -30 hvcurveto
          646 -1776 rlineto
          -35 13 25 -33 37 hhcurveto
          46 19 33 32 15 -4 18 -31 85 hvcurveto
          endchar
        </CharString>
        <CharString name="bar">
          -558 32 callsubr
          375 137 vstem
          375 -207 rmoveto
          18 callgsubr
          1840 vlineto
          43 -23 30 -45 -43 -26 -28 -43 vhcurveto
          endchar
        </CharString>
        <CharString name="braceleft">
          32 callgsubr
          150 588 cntrmask 11100000
          347 185 rmoveto
          -320 31 128 -138 136 hhcurveto
          51 45 19 28 14 -11 7 -17 -10 -9 -14 callsubr
          -9 -10 -2 -10 hhcurveto
          -56 -23 39 175 491 -71 176 -118 47 hvcurveto
          118 46 71 176 492 vvcurveto
          175 23 39 56 10 10 -2 -2 9 vhcurveto
          -2 10 9 -2 10 hhcurveto
          17 11 7 14 28 -45 19 -51 -136 -128 -138 -320 -31 hvcurveto
          -43 -441 -30 -35 -77 -20 rrcurveto
          -38 -10 -9 -11 -13 vvcurveto
          -13 9 -11 38 -10 vhcurveto
          77 -20 30 -35 43 -441 rrcurveto
          endchar
        </CharString>
        <CharString name="braceright">
          32 callgsubr
          70 588 cntrmask 11100000
          461 185 rmoveto
          43 441 30 35 77 20 rrcurveto
          38 10 9 11 13 vvcurveto
          13 -9 11 -38 10 vhcurveto
          -77 20 -30 35 -43 441 rrcurveto
          320 -31 -128 138 -136 hhcurveto
          -51 -45 -19 -28 -14 11 -7 17 10 9 2 2 10 hvcurveto
          2 9 10 -16 callgsubr
          56 23 -39 -175 -492 71 -176 118 -46 hvcurveto
          -118 -47 -71 -176 -491 vvcurveto
          -175 -23 -39 -56 -10 -10 2 2 -9 vhcurveto
          2 -10 -9 2 -10 hhcurveto
          -17 -11 -7 -14 -28 45 -19 51 136 128 138 320 31 hvcurveto
          endchar
        </CharString>
        <CharString name="bracketleft">
          42 callgsubr
          270 222 vstem
          270 -229 rmoveto
          -42 11 -14 31 vhcurveto
          365 hlineto
          68 30 25 21 16 -12 14 -21 -17 -34 -2 -3 -15 hvcurveto
          -3 -13 -35 -2 -20 hhcurveto
          -103 -13 12 29 hvcurveto
          1774 vlineto
          29 13 12 103 20 35 -2 -3 13 vhcurveto
          -3 15 34 35 callsubr
          hvcurveto
          -357 hlineto
          -36 -14 -18 -38 hvcurveto
          endchar
        </CharString>
        <CharString name="bracketright">
          42 callgsubr
          333 222 vstem
          555 1647 rmoveto
          38 -14 18 -36 vhcurveto
          -357 hlineto
          -68 -30 -25 -21 -16 12 -14 21 17 34 2 3 15 hvcurveto
          3 13 35 2 20 hhcurveto
          103 13 -12 -29 hvcurveto
          -1774 vlineto
          -29 -13 -12 -103 -20 -35 2 3 -13 vhcurveto
          3 -15 -34 2 -17 hhcurveto
          -21 -12 -14 -16 16 callsubr
          hvcurveto
          365 hlineto
          31 11 14 42 hvcurveto
          endchar
        </CharString>
        <CharString name="breve">
          -423 1223 88 hstem
          510 1223 -95 callsubr
        </CharString>
        <CharString name="breve.cap">
          -423 1636 88 hstem
          510 1636 -95 callsubr
        </CharString>
        <CharString name="brokenbar">
          -558 32 callsubr
          375 137 vstem
          440 865 rmoveto
          49 23 33 35 hvcurveto
          702 vlineto
          35 -23 33 -49 -39 -26 -24 -42 vhcurveto
          -706 vlineto
          -38 29 -28 36 vhcurveto
          -65 -1084 rmoveto
          -42 26 -24 39 49 23 33 35 vhcurveto
          712 vlineto
          35 -23 33 -49 -36 -29 -28 -38 vhcurveto
          endchar
        </CharString>
        <CharString name="bullet">
          -756 420 422 hstem
          130 429 vstem
          344 420 rmoveto
          129 86 112 90 101 -68 119 -143 -131 -87 -105 -111 -92 64 -114 150 hvcurveto
          endchar
        </CharString>
        <CharString name="c">
          -249 -24 callgsubr
          hstem
          122 236 vstem
          122 505 rmoveto
          -312 239 -217 315 164 134 68 111 87 vhcurveto
          -88 callsubr
          endchar
        </CharString>
        <CharString name="cacute">
          -249 -24 callgsubr
          529 -20 hstemhm
          122 236 102 444 hintmask 11010000
          122 505 rmoveto
          -312 239 -217 315 164 134 68 111 87 vhcurveto
          -88 callsubr
          hintmask 00101000
          365 685 -88 callgsubr
        </CharString>
        <CharString name="caron">
          36 callsubr
          440 1195 -102 callgsubr
        </CharString>
        <CharString name="caron.cap">
          43 callgsubr
          440 1640 -102 callgsubr
        </CharString>
        <CharString name="caronvertical">
          -934 976 -21 606 -20 hstem
          85 301 vstem
          137 -19 callgsubr
          endchar
        </CharString>
        <CharString name="ccaron">
          -249 -24 callgsubr
          40 callsubr
          122 236 -18 684 hintmask 11010000
          122 505 rmoveto
          -312 239 -217 315 164 134 68 111 87 vhcurveto
          -88 callsubr
          hintmask 00101000
          558 690 -102 callgsubr
        </CharString>
        <CharString name="ccedilla">
          -249 20 callsubr
          172 116 848 92 hstem
          122 236 471 134 vstem
          122 505 rmoveto
          -304 226 -213 303 -11 vhcurveto
          -50 -258 rlineto
          -64 callsubr
          40 178 131 17 108 63 74 94 rlinecurve
          -88 callsubr
          endchar
        </CharString>
        <CharString name="ccircumflex">
          -249 -24 callgsubr
          40 callsubr
          122 236 -18 684 hintmask 11010000
          122 505 rmoveto
          -312 239 -217 315 164 134 68 111 87 vhcurveto
          -88 callsubr
          hintmask 00101000
          245 690 -97 callsubr
        </CharString>
        <CharString name="cdotaccent">
          -249 -24 callgsubr
          194 -21 hstemhm
          122 236 161 327 hintmask 11010000
          122 505 rmoveto
          -312 239 -217 315 164 134 68 111 87 vhcurveto
          -88 callsubr
          hintmask 00101000
          397 857 rmoveto
          4 callsubr
        </CharString>
        <CharString name="cedilla">
          -775 20 callsubr
          hstem
          436 134 vstem
          268 24 rmoveto
          -60 -305 rlineto
          -64 callsubr
          47 207 rlineto
          endchar
        </CharString>
        <CharString name="cedilla.cap">
          -775 -465 67 -67 156 109 69 203 -20 hstemhm
          100 470 -134 134 hintmask 10110100
          264 72 rmoveto
          -56 -288 rlineto
          8 21 37 8 35 hhcurveto
          87 48 -43 -74 -46 -33 -35 -52 -44 -33 11 39 -44 hvcurveto
          hintmask 01111000
          28 -30 -22 11 -26 hhcurveto
          -33 -19 -27 -24 -78 135 -27 70 133 132 80 100 93 -112 61 -121 -7 -7 0 -1 -8 hvcurveto
          43 190 rlineto
          endchar
        </CharString>
        <CharString name="cent">
          -229 -24 callgsubr
          hstem
          122 236 271 97 vstem
          122 505 rmoveto
          -317 225 -184 282 -25 vhcurveto
          31 callsubr
          190 vlineto
          150 8 123 66 82 104 rrcurveto
          33 42 5 32 12 vvcurveto
          15 -14 11 -13 -20 -9 -11 -28 -21 vhcurveto
          -92 -61 -95 -44 -118 hhcurveto
          -14 -14 0 2 -14 hvcurveto
          845 vlineto
          107 -5 87 -33 116 -145 rrcurveto
          -41 33 19 -13 15 hhcurveto
          13 10 8 17 9 -3 14 -7 20 hvcurveto
          -25 70 -2 53 106 vvcurveto
          26 -10 7 -19 -16 -19 -7 -14 -26 vhcurveto
          -11 -21 -25 -11 -16 hhcurveto
          -14 -12 4 7 -20 hvcurveto
          -46 14 -47 14 -72 3 rrcurveto
          164 41 callsubr
          -165 vlineto
          -309 -29 -198 -245 -250 vvcurveto
          507 -390 rmoveto
          -148 51 -123 136 230 vvcurveto
          232 110 140 161 30 vhcurveto
          endchar
        </CharString>
        <CharString name="circumflex">
          36 callsubr
          127 1195 -97 callsubr
        </CharString>
        <CharString name="circumflex.cap">
          43 callgsubr
          127 1640 -101 callgsubr
        </CharString>
        <CharString name="colon">
          -933 -3 -21 691 -21 hstemhm
          92 327 hintmask 10100000
          92 133 -73 callsubr
          hintmask 01100000
          670 vmoveto
          4 callsubr
        </CharString>
        <CharString name="comma">
          -933 -392 606 hstem
          281 140 vstem
          90 70 rmoveto
          -68 37 -46 88 -26 vhcurveto
          48 -15 16 -19 2 -31 4 -52 -50 -74 -94 -42 rrcurveto
          -36 -16 -11 -14 -20 vvcurveto
          -24 16 -15 32 124 155 12 callgsubr
          -70 82 -112 -93 -56 -65 -79 vhcurveto
          endchar
        </CharString>
        <CharString name="commaaccent">
          -958 -509 -21 hstem
          240 167 vstem
          120 -223 -94 callgsubr
        </CharString>
        <CharString name="commaaccent.cap">
          -958 -530 428 hstem
          120 287 vstem
          120 -223 -94 callgsubr
        </CharString>
        <CharString name="copyright">
          462 -24 110 221 107 712 86 239 110 hstem
          130 130 229 228 931 129 vstem
          130 769 rmoveto
          -435 366 -358 463 427 391 334 458 474 -382 319 -435 -502 -328 -382 -410 vhcurveto
          130 -4 rmoveto
          386 299 300 394 350 345 -272 -410 -408 -316 -275 -357 -401 -314 303 376 vhcurveto
          229 -11 rmoveto
          -243 199 -204 287 144 137 60 98 77 vhcurveto
          29 36 5 28 10 vvcurveto
          14 -13 14 -11 -17 -9 -4 -24 -18 vhcurveto
          -87 -57 -107 -38 -63 hhcurveto
          -189 -166 184 239 147 123 142 138 141 73 -54 -101 82 hvcurveto
          -37 29 16 -12 14 hhcurveto
          11 9 8 14 9 -3 12 -6 17 hvcurveto
          -23 62 -1 46 93 vvcurveto
          23 -9 11 -16 -14 -17 -10 -14 -22 vhcurveto
          -14 -23 -6 -4 -16 hhcurveto
          -13 -20 6 7 -25 hvcurveto
          19 -69 -32 5 -84 hhcurveto
          -266 -199 -208 -250 hvcurveto
          endchar
        </CharString>
        <CharString name="currency">
          6 229 113 576 114 hstem
          299 140 561 138 vstem
          150 189 rmoveto
          100 -100 208 217 rlineto
          -50 70 90 -27 100 hhcurveto
          103 93 30 54 72 hvcurveto
          215 -224 100 100 -226 218 rlineto
          40 62 23 75 86 vvcurveto
          87 -22 77 -39 61 vhcurveto
          224 217 -100 100 -213 -221 rlineto
          52 -69 -89 29 -100 hhcurveto
          -108 -91 -30 -50 -70 hvcurveto
          -211 220 -100 -100 219 -212 rlineto
          -46 -66 -24 -80 -84 vvcurveto
          -90 24 -79 44 -63 vhcurveto
          72 233 rmoveto
          165 111 122 167 165 118 -122 -165 -181 -115 -108 -164 -167 -115 122 167 vhcurveto
          endchar
        </CharString>
        <CharString name="d">
          -81 -9 callsubr
          101 507 -11 callsubr
          hintmask 00111100
          -30 callsubr
          hintmask 01011100
          -56 callgsubr
          hintmask 10011100
          -15 callgsubr
          endchar
        </CharString>
        <CharString name="dagger">
          -589 -264 -21 1306 11 callgsubr
          hintmask 11110000
          377 -207 rmoveto
          18 callgsubr
          1231 158 vlineto
          hintmask 11100100
          -40 callsubr
          hintmask 11110000
          -156 472 hlineto
          43 -23 30 -45 vhcurveto
          hintmask 11101000
          41 callgsubr
          hintmask 11110000
          -33 callsubr
          hintmask 11101000
          158 hlineto
          endchar
        </CharString>
        <CharString name="daggerdbl">
          -594 -264 -21 654 137 515 11 callgsubr
          hintmask 11110100
          219 369 rmoveto
          158 -576 hlineto
          18 callgsubr
          579 158 vlineto
          hintmask 11110010
          -40 callsubr
          hintmask 11111000
          -156 515 158 hlineto
          hintmask 11110010
          -40 callsubr
          hintmask 11111000
          -156 472 hlineto
          43 -23 30 -45 vhcurveto
          hintmask 11110100
          41 callgsubr
          hintmask 11111000
          -33 callsubr
          hintmask 11110100
          158 -515 -156 hlineto
          hintmask 11111000
          -33 callsubr
          endchar
        </CharString>
        <CharString name="dcaron">
          262 -9 callsubr
          1332 995 rmoveto
          -25 17 -15 32 125 124 24 callgsubr
          vhcurveto
          hintmask 00111100
          0 callgsubr
          vhcurveto
          49 -14 15 -19 2 -31 rrcurveto
          hintmask 01011100
          4 -51 -20 -75 -95 -43 rrcurveto
          -35 -15 -12 -15 -18 vvcurveto
          -1231 -488 -11 callsubr
          -44 11 21 -13 26 hhcurveto
          21 20 1 2 18 hvcurveto
          1 17 16 2 17 hhcurveto
          16 29 -1 -4 30 -83 callsubr
          1235 vlineto
          -80 callsubr
          3 -28 -27 3 -28 hhcurveto
          -40 -18 -15 -16 -24 26 -7 26 -2 hvcurveto
          hintmask 10011100
          -38 callgsubr
          31 -38 15 -83 -136 vvcurveto
          -358 vlineto
          -45 callsubr
          -15 callgsubr
          endchar
        </CharString>
        <CharString name="dcroat">
          -81 -9 callsubr
          101 507 -11 callsubr
          hintmask 00111100
          -30 callsubr
          hintmask 01011100
          -3 29 28 -1 21 hhcurveto
          73 20 25 23 14 -13 11 -19 -10 -8 -1 -34 callsubr
          -10 -2 -9 -27 callsubr
          39 -16 hvcurveto
          -18 45 -3 64 130 vvcurveto
          889 79 45 callsubr
          -78 262 hlineto
          -95 callgsubr
          -83 -136 vvcurveto
          -14 -363 vlineto
          -57 -35 -13 -26 -31 35 -14 54 hvcurveto
          366 -260 hlineto
          -45 callsubr
          hintmask 10011100
          -15 callgsubr
          endchar
        </CharString>
        <CharString name="degree">
          -631 1011 105 339 106 hstem
          130 123 310 121 vstem
          407 1011 rmoveto
          163 114 110 165 169 -110 106 -159 -185 -100 -127 -148 -165 112 -110 165 hvcurveto
          2 105 rmoveto
          -98 -58 72 98 97 55 72 99 97 59 -72 -97 -107 -57 -63 -97 hvcurveto
          endchar
        </CharString>
        <CharString name="dieresis">
          -474 1220 297 hstem
          100 771 vstem
          725 1220 rmoveto
          -89 callsubr
          -480 hmoveto
          -89 callsubr
          endchar
        </CharString>
        <CharString name="dieresis.cap">
          -374 1685 297 hstem
          100 291 289 291 vstem
          825 1685 rmoveto
          -89 callsubr
          -580 hmoveto
          -89 callsubr
          endchar
        </CharString>
        <CharString name="divide">
          -160 119 297 159 137 159 297 hstemhm
          150 985 -637 291 cntrmask 11100000
          hintmask 00000000
          hintmask 11110000
          643 871 rmoveto
          88 58 74 70 78 -46 75 -98 -88 -59 -65 -85 hvcurveto
          hintmask 11101000
          -71 42 -76 103 vhcurveto
          -493 -296 rmoveto
          19 callsubr
          348 -446 rmoveto
          -71 42 -76 103 88 58 74 70 78 -46 75 -98 -88 -59 -65 -85 vhcurveto
          endchar
        </CharString>
        <CharString name="dollar">
          2 -23 98 1390 96 23 -20 hstem
          203 180 294 97 348 188 vstem
          211 125 rmoveto
          171 -90 143 -46 152 -10 rrcurveto
          31 callsubr
          191 vlineto
          335 12 201 170 262 vvcurveto
          228 -131 163 -405 97 vhcurveto
          554 vlineto
          188 -13 129 -100 82 -170 rrcurveto
          -38 17 11 -15 14 hhcurveto
          13 12 10 32 30 -8 35 -9 37 hvcurveto
          -30 124 -12 72 -3 67 rrcurveto
          39 -1 -8 10 -16 hhcurveto
          -11 -14 -13 -21 -16 hvcurveto
          -39 -28 -14 -4 -12 hhcurveto
          -9 -7 1 16 -46 hvcurveto
          -52 17 -69 17 -101 2 rrcurveto
          189 41 callsubr
          -190 vlineto
          -327 -24 -147 -201 -195 vvcurveto
          -195 125 -180 349 -86 vhcurveto
          -599 vlineto
          -245 27 -126 180 -27 244 rrcurveto
          43 -6 -10 13 -16 hhcurveto
          -21 -15 -31 -84 hvcurveto
          466 466 rmoveto
          -239 74 -55 106 117 vvcurveto
          120 107 94 187 15 vhcurveto
          97 -1387 rmoveto
          578 vlineto
          246 -67 102 -110 -132 vvcurveto
          -150 -90 -111 -258 -8 vhcurveto
          endchar
        </CharString>
        <CharString name="dotaccent">
          -858 1205 322 hstem
          130 327 vstem
          293 1205 rmoveto
          -82 callgsubr
          -69 49 -88 114 hvcurveto
          endchar
        </CharString>
        <CharString name="dotaccent.cap">
          -895 1708 322 hstem
          112 327 vstem
          275 1708 rmoveto
          -82 callgsubr
          -69 49 -88 114 hvcurveto
          endchar
        </CharString>
        <CharString name="dotlessi">
          26 callsubr
          143 -87 callsubr
          539 vlineto
          -105 callgsubr
          endchar
        </CharString>
        <CharString name="dotlessj">
          18 callsubr
          hstem
          330 225 vstem
          -68 -222 rmoveto
          -12 -9 -8 -18 hvcurveto
          -256 vlineto
          -16 67 71 -10 58 hhcurveto
          259 189 169 439 hvcurveto
          809 vlineto
          113 -12 9 -44 -21 -42 -2 -3 -26 vhcurveto
          -3 -25 -15 -4 -39 -102 callsubr
          30 -39 14 -74 -140 vvcurveto
          -561 vlineto
          -424 -77 -98 -99 -63 -54 55 124 -57 vhcurveto
          27 -12 -19 16 -17 hhcurveto
          endchar
        </CharString>
        <CharString name="e">
          -251 -24 callgsubr
          hstem
          258 73 vstem
          -104 callsubr
          endchar
        </CharString>
        <CharString name="eacute">
          -251 -24 callgsubr
          529 -20 hstemhm
          258 73 100 444 hintmask 11010000
          -104 callsubr
          hintmask 00101000
          125 679 -88 callgsubr
        </CharString>
        <CharString name="ebreve">
          -251 -24 callgsubr
          hstem
          258 73 vstem
          -104 callsubr
          320 712 -95 callsubr
        </CharString>
        <CharString name="ecaron">
          -251 -24 callgsubr
          40 callsubr
          258 73 -20 684 hintmask 11010000
          -104 callsubr
          hintmask 00101000
          318 684 -102 callgsubr
        </CharString>
        <CharString name="ecircumflex">
          -251 -24 callgsubr
          40 callsubr
          258 73 -20 684 hintmask 11010000
          -104 callsubr
          hintmask 00101000
          5 684 -97 callsubr
        </CharString>
        <CharString name="edieresis">
          -251 -24 callgsubr
          188 297 hstemhm
          258 73 -63 771 hintmask 11010000
          -104 callsubr
          hintmask 00101000
          560 709 rmoveto
          -89 callsubr
          -480 hmoveto
          -89 callsubr
          endchar
        </CharString>
        <CharString name="edotaccent">
          -251 -24 callgsubr
          194 -21 hstemhm
          258 73 159 327 hintmask 11010000
          -104 callsubr
          hintmask 00101000
          157 851 rmoveto
          4 callsubr
        </CharString>
        <CharString name="egrave">
          -251 -24 callgsubr
          529 -20 hstemhm
          258 73 100 444 hintmask 11010000
          -104 callsubr
          hintmask 00101000
          472 694 -72 callgsubr
        </CharString>
        <CharString name="eight">
          23 -24 90 722 51 631 91 hstemhm
          130 206 -118 221 619 197 -141 224 hintmask 11110010
          130 414 rmoveto
          -212 167 -226 443 366 232 216 239 142 -91 141 -240 119 vhcurveto
          hintmask 11101100
          142 69 106 143 160 vvcurveto
          186 -193 170 -324 -334 -186 -194 -178 -135 73 -125 178 -108 vhcurveto
          hintmask 11110100
          -184 -54 -155 -159 -194 vvcurveto
          715 487 rmoveto
          hintmask 11101100
          -335 120 -71 158 80 vvcurveto
          117 80 94 177 219 143 -128 -171 -96 -44 -129 -115 -66 vhcurveto
          hintmask 11110010
          -563 -449 rmoveto
          179 107 112 136 41 vhcurveto
          23 -11 25 -12 27 -10 rrcurveto
          225 -92 235 -118 -182 vvcurveto
          -165 -135 -107 -186 -267 -190 172 193 vhcurveto
          endchar
        </CharString>
        <CharString name="ellipsis">
          316 -24 322 hstem
          130 327 260 327 260 327 cntrmask 01110000
          1304 133 -73 callsubr
          -587 hmoveto
          -69 49 -88 114 -82 callgsubr
          vhcurveto
          -587 hmoveto
          4 callsubr
        </CharString>
        <CharString name="emacron">
          -251 -24 callgsubr
          271 127 hstemhm
          258 73 -16 676 hintmask 11010000
          -104 callsubr
          hintmask 00101000
          -18 792 -10 callsubr
        </CharString>
        <CharString name="emdash">
          202 553 137 hstem
          80 1487 vstem
          151 553 rmoveto
          1345 hlineto
          -40 callsubr
          -1341 hlineto
          -33 callsubr
          endchar
        </CharString>
        <CharString name="endash">
          -379 553 137 hstem
          0 1066 vstem
          71 553 rmoveto
          924 hlineto
          -40 callsubr
          -920 hlineto
          -33 callsubr
          endchar
        </CharString>
        <CharString name="eng">
          87 -530 86 444 73 841 118 -23 -20 hstemhm
          111 429 -225 225 507 224 hintmask 11101010
          124 -87 callsubr
          396 vlineto
          91 70 107 79 122 hhcurveto
          172 37 -157 -121 hvcurveto
          -2 -558 rlineto
          -424 -77 -98 -99 -63 -54 55 124 -57 vhcurveto
          27 -12 -19 16 -17 hhcurveto
          -12 -9 -8 -18 hvcurveto
          -256 vlineto
          -16 67 71 -10 58 hhcurveto
          259 188 169 439 1 hvcurveto
          2 596 rlineto
          159 -58 199 -286 -168 -116 -68 -115 -105 vhcurveto
          38 vlineto
          hintmask 11011010
          113 -30 9 -44 -37 callsubr
          vhcurveto
          -3 -25 -24 -3 -25 -102 callsubr
          hintmask 11100110
          30 -39 14 -74 -140 vvcurveto
          -291 -67 callsubr
          endchar
        </CharString>
        <CharString name="eogonek">
          -251 -24 callgsubr
          hstem
          258 73 vstem
          93 505 rmoveto
          -331 254 -198 310 49 47 6 10 45 vhcurveto
          -57 -79 -37 -97 -105 -21 callgsubr
          153 86 89 57 47 vhcurveto
          22 19 19 21 18 24 rrcurveto
          32 44 5 30 12 vvcurveto
          15 -11 11 -15 -20 -9 -11 -28 -20 vhcurveto
          -81 -56 -142 -55 -98 hhcurveto
          -173 -164 123 212 -47 hvcurveto
          218 52 203 45 306 111 rrcurveto
          41 15 5 22 23 vvcurveto
          23 -9 20 -17 30 vhcurveto
          94 -52 -116 170 -273 hhcurveto
          -332 -226 -254 -273 hvcurveto
          240 6 rmoveto
          -1 13 0 14 14 vvcurveto
          264 132 124 160 158 97 -177 -73 -12 -3 -11 -21 -7 vhcurveto
          -143 -50 -183 -50 -196 -49 rrcurveto
          endchar
        </CharString>
        <CharString name="equal">
          10 callgsubr
          717 rmoveto
          19 callsubr
          -467 vmoveto
          19 callsubr
          endchar
        </CharString>
        <CharString name="eth">
          -90 -20 94 816 92 551 -20 190 -20 hstem
          121 230 657 235 vstem
          121 477 rmoveto
          -306 225 -191 329 310 258 257 429 249 -90 243 -172 191 vhcurveto
          230 73 rlineto
          64 20 17 21 25 vvcurveto
          24 -19 21 -28 -25 -27 -7 -16 -48 vhcurveto
          -248 -79 -117 103 -146 84 -174 54 rlinecurve
          16 -53 -53 15 -53 hhcurveto
          -41 -17 -12 -22 -21 15 -14 46 -15 hvcurveto
          181 -61 139 -80 105 -101 -270 -86 rcurveline
          -42 -14 -17 -16 -27 vvcurveto
          -26 19 -21 27 20 32 9 10 33 vhcurveto
          273 87 87 -112 55 -133 30 -157 rlinecurve
          54 -87 -110 37 -124 hhcurveto
          -310 -224 -215 -290 hvcurveto
          230 50 rmoveto
          204 109 159 210 198 140 -154 -221 -291 -115 -152 -183 2 vhcurveto
          -200 1 -159 198 254 vvcurveto
          endchar
        </CharString>
        <CharString name="exclam">
          -775 -3 -21 1577 -20 28 -20 hstemhm
          170 330 hintmask 00000000
          hintmask 10110000
          335 467 rmoveto
          30 9 44 85 8 hvcurveto
          27 283 60 457 18 97 rrcurveto
          8 44 5 32 18 vvcurveto
          20 -10 14 -26 vhcurveto
          hintmask 11010000
          -13 -25 -1 -2 -17 hvcurveto
          -3 -18 -28 -2 -27 hhcurveto
          hintmask 10110000
          -27 -31 2 3 -18 hvcurveto
          2 -17 -24 1 -13 hhcurveto
          -26 -10 -14 -20 -18 5 -32 9 -51 hvcurveto
          23 -122 54 -438 26 -270 rrcurveto
          -85 8 9 -44 31 hhcurveto
          -140 -356 27 callgsubr
          vhcurveto
          hintmask 11010000
          -86 -58 -68 -74 hvcurveto
          endchar
        </CharString>
        <CharString name="exclamdown">
          -775 -530 20 -12 20 1536 21 hstemhm
          170 330 hintmask 00000000
          335 564 rmoveto
          -31 -9 -44 -85 -8 hvcurveto
          -26 -270 -54 -438 -23 -122 rrcurveto
          -9 -51 -5 -32 -18 vvcurveto
          -20 10 -14 26 vhcurveto
          hintmask 10110000
          13 24 1 2 17 hvcurveto
          3 18 31 2 27 hhcurveto
          hintmask 01110000
          27 28 -2 -3 18 hvcurveto
          -2 17 25 -1 13 hhcurveto
          26 10 14 20 18 -5 32 -8 44 hvcurveto
          -18 97 -60 457 -27 283 rrcurveto
          hintmask 10110000
          85 -8 -9 44 -30 hhcurveto
          hintmask 01110000
          -140 356 rmoveto
          -74 58 -68 86 93 45 78 67 78 -66 54 -75 -98 -43 -76 -59 vhcurveto
          endchar
        </CharString>
        <CharString name="f">
          -590 0 66 868 77 631 88 hstem
          285 225 vstem
          94 -63 callsubr
          586 vlineto
          -1 79 52 -3 60 hhcurveto
          81 37 16 31 22 -25 20 -67 -1 hvcurveto
          -31 -82 -2 -3 -104 hvcurveto
          275 vlineto
          237 81 114 107 3 vhcurveto
          51 3 73 -61 50 -154 rrcurveto
          -34 12 7 -6 15 hhcurveto
          14 9 7 24 hvcurveto
          283 vlineto
          16 -70 -68 10 -62 hhcurveto
          -260 -184 -166 -440 hvcurveto
          -109 vlineto
          2 -36 -33 2 -34 hhcurveto
          -49 -42 -11 -31 -25 17 -22 81 29 33 0 1 34 hvcurveto
          -583 -67 callsubr
          endchar
        </CharString>
        <CharString name="ff">
          17 callsubr
          630 225 hintmask 11110000
          94 -63 callsubr
          586 vlineto
          -1 79 52 -3 60 hhcurveto
          81 37 16 31 22 -25 20 -67 -1 hvcurveto
          -31 -82 -2 -3 -104 hvcurveto
          275 vlineto
          237 81 114 107 3 vhcurveto
          51 3 73 -61 50 -154 rrcurveto
          -34 12 7 -6 15 hhcurveto
          14 9 7 24 hvcurveto
          283 vlineto
          16 -70 -68 10 -62 hhcurveto
          -260 -184 -166 -440 hvcurveto
          -109 vlineto
          2 -36 -33 2 -34 hhcurveto
          -49 -42 -11 -31 -25 17 -22 81 29 33 0 1 34 hvcurveto
          -583 -67 callsubr
          hintmask 11101000
          855 hmoveto
          -24 callsubr
          80 -47 callgsubr
          vhcurveto
          -20 callgsubr
          -29 callsubr
          60 hhcurveto
          60 45 35 callgsubr
          10 -20 -13 -10 -14 callsubr
          -11 -11 -2 -13 hhcurveto
          -37 -41 -78 callgsubr
          586 vlineto
          -1 79 52 -3 60 hhcurveto
          81 37 16 31 22 -25 20 -67 -1 hvcurveto
          -31 -82 -2 -3 -104 hvcurveto
          275 vlineto
          237 81 114 107 3 vhcurveto
          51 3 73 -61 50 -154 rrcurveto
          -34 12 7 -6 15 hhcurveto
          14 9 7 24 hvcurveto
          283 vlineto
          16 -70 -68 10 -62 hhcurveto
          -260 -184 -166 -440 hvcurveto
          -109 vlineto
          2 -36 -33 2 -34 hhcurveto
          -49 -42 -11 -31 -25 17 -22 81 29 33 0 1 34 hvcurveto
          -583 -67 callsubr
          endchar
        </CharString>
        <CharString name="fi">
          265 0 66 868 77 -2 -20 653 88 hstemhm
          285 225 679 225 hintmask 11011000
          94 -63 callsubr
          586 vlineto
          -1 79 52 -3 60 hhcurveto
          81 37 16 31 22 -25 20 -67 -1 hvcurveto
          -31 -82 -2 -3 -104 hvcurveto
          275 vlineto
          237 81 114 107 3 vhcurveto
          51 3 73 -61 50 -154 rrcurveto
          -34 12 7 -6 15 hhcurveto
          14 9 7 24 hvcurveto
          283 vlineto
          16 -70 -68 10 -62 hhcurveto
          -260 -184 -166 -440 hvcurveto
          -109 vlineto
          2 -36 -33 2 -34 hhcurveto
          -49 -42 -11 -31 -25 17 -22 81 29 33 0 1 34 hvcurveto
          -583 -67 callsubr
          hintmask 10100100
          1185 1176 rmoveto
          -89 callsubr
          -281 -1176 rmoveto
          -24 callsubr
          80 -47 callgsubr
          vhcurveto
          -20 callgsubr
          -48 callsubr
          539 vlineto
          -105 callgsubr
          endchar
        </CharString>
        <CharString name="five">
          -81 -24 108 845 104 293 187 hstem
          245 93 664 222 vstem
          160 110 rmoveto
          -92 132 188 -42 137 hhcurveto
          285 322 179 349 293 -207 236 -357 -133 -107 -24 -42 -82 hvcurveto
          359 663 vlineto
          9 71 19 59 28 71 rrcurveto
          16 41 8 24 16 vvcurveto
          14 -9 7 -11 -12 -9 -9 -24 -26 vhcurveto
          -66 -71 -94 -17 -253 hhcurveto
          -310 hlineto
          -23 -15 -15 -21 -3 hvcurveto
          -636 vlineto
          -28 11 -13 17 11 19 15 19 20 vhcurveto
          65 70 100 30 86 hhcurveto
          236 187 -215 -266 -286 -191 -78 -141 -214 -161 128 183 -72 hvcurveto
          37 -15 -9 18 -16 hhcurveto
          -13 -10 -13 -30 hvcurveto
          endchar
        </CharString>
        <CharString name="fl">
          17 callsubr
          679 225 hintmask 11110000
          94 -63 callsubr
          586 vlineto
          -1 79 52 -3 60 hhcurveto
          81 37 16 31 22 -25 20 -67 -1 hvcurveto
          -31 -82 -2 -3 -104 hvcurveto
          275 vlineto
          237 81 114 107 3 vhcurveto
          51 3 73 -61 50 -154 rrcurveto
          -34 12 7 -6 15 hhcurveto
          14 9 7 24 hvcurveto
          283 vlineto
          16 -70 -68 10 -62 hhcurveto
          -260 -184 -166 -440 hvcurveto
          -109 vlineto
          2 -36 -33 2 -34 hhcurveto
          -49 -42 -11 -31 -25 17 -22 81 29 33 0 1 34 hvcurveto
          -583 -67 callsubr
          hintmask 10001000
          907 hmoveto
          16 callgsubr
          1 callgsubr
          vhcurveto
          -100 callgsubr
          1232 vlineto
          -95 callgsubr
          -85 -136 vvcurveto
          -982 -67 callgsubr
          -60 callgsubr
          hvcurveto
          endchar
        </CharString>
        <CharString name="florin">
          -253 -258 88 1100 88 1 -20 643 88 hstemhm
          hintmask 11010000
          42 51 rmoveto
          -24 -283 rlineto
          -16 66 68 -10 62 hhcurveto
          236 183 166 440 39 hvcurveto
          51 585 rlineto
          -1 51 40 -2 45 hhcurveto
          81 37 16 31 22 -25 20 -67 -1 hvcurveto
          -25 -56 -1 -2 -74 hvcurveto
          24 273 21 237 75 114 83 3 rlinecurve
          52 3 67 -61 37 -154 rrcurveto
          -34 9 6 -6 15 hhcurveto
          14 10 7 24 2 hvcurveto
          25 283 rlineto
          16 -69 -67 10 -62 hhcurveto
          -236 -182 -166 -440 -39 hvcurveto
          -10 -112 rlineto
          hintmask 10110000
          2 -61 -51 5 -53 hhcurveto
          -49 -42 -11 -31 hvcurveto
          hintmask 11010000
          -25 17 -22 81 45 54 1 2 52 vhcurveto
          -66 -749 -21 -237 -79 -114 -79 -3 rlinecurve
          -51 -3 -68 61 -36 154 rrcurveto
          34 -9 -7 6 -15 hhcurveto
          -14 -9 -7 -24 -2 hvcurveto
          endchar
        </CharString>
        <CharString name="foundryicon">
          1206 -109 374 1061 201 hstem
          536 463 121 372 vstem
          565 491 rmoveto
          -346 96 316 -254 377 hhcurveto
          452 366 366 452 452 -366 366 -452 -452 -366 -366 -452 -75 10 -73 19 -70 hvcurveto
          261 -180 rmoveto
          -13 10 -8 11 -3 13 rrcurveto
          28 18 84 5 22 vhcurveto
          16 11 77 0 11 -7 5 -27 0 -14 11 -29 16 -41 140 -73 86 56 13 28 -5 32 -8 20 -40 94 -233 57 -66 124 -21 40 -13 70 35 61 24 43 61 46 49 19 rrcurveto
          13 3 14 5 13 3 rrcurveto
          -16 20 -8 20 21 vvcurveto
          120 241 133 244 12 vhcurveto
          169 8 5 -137 -3 -116 rrcurveto
          -1 -7 0 -6 -5 vvcurveto
          -16 vlineto
          1 -1 rlineto
          -62 vlineto
          223 9 rlineto
          11 2 -9 -12 -28 -17 -63 -11 -3 hvcurveto
          -208 hlineto
          -47 -1 -56 -56 vvcurveto
          -216 vlineto
          -103 34 -33 53 -3 vhcurveto
          51 -3 70 16 29 8 17 3 8 -38 -6 -9 rrcurveto
          -27 -46 -88 -49 -107 hhcurveto
          -93 -90 33 148 hvcurveto
          13 433 -100 1 rlineto
          -18 1 30 19 16 hvcurveto
          3 3 52 24 48 29 8 197 47 112 -128 -5 -118 -5 -198 -80 8 -100 5 -69 90 -40 59 -24 7 -3 5 0 4 -3 6 -3 rcurveline
          3 -31 -17 -102 -8 -19 -8 -5 -61 -4 -17 8 -7 8 -5 28 -9 32 -13 35 -111 64 -78 -54 -11 -19 -3 -34 7 -19 27 -86 211 -64 87 -99 44 -49 9 -57 -15 -59 rrcurveto
          -19 -49 -54 -59 -51 -27 -63 -37 -84 -6 -52 3 -64 2 -71 19 -37 29 rrcurveto
          endchar
        </CharString>
        <CharString name="four">
          0 0 66 396 129 979 -20 hstem
          766 222 vstem
          166 462 rmoveto
          600 -141 hlineto
          -74 callsubr
          16 callsubr
          39 67 -31 callgsubr
          hvcurveto
          -101 callsubr
          141 11 vlineto
          171 64 -29 -27 25 hvcurveto
          -13 10 6 -4 8 hhcurveto
          9 7 8 32 7 hvcurveto
          11 53 27 71 34 53 rrcurveto
          14 22 3 7 8 vvcurveto
          14 -10 6 -10 -10 -7 -4 -12 -19 vhcurveto
          -33 -52 -53 -23 -104 hhcurveto
          -142 917 hlineto
          45 -13 17 -16 -24 -39 -50 -49 -41 vhcurveto
          -724 -883 rlineto
          -39 -47 -12 -21 -21 vvcurveto
          -18 18 -19 68 vhcurveto
          120 143 rmoveto
          9 7 16 22 26 vhcurveto
          451 553 rlineto
          -618 -435 vlineto
          -35 -10 6 8 hvcurveto
          endchar
        </CharString>
        <CharString name="fraction">
          424 -3 -21 1585 -20 hstem
          325 28 rmoveto
          -31 21 -21 34 31 22 14 54 42 vhcurveto
          1068 1373 rlineto
          36 46 10 27 20 vvcurveto
          31 -25 20 -31 -37 -22 -19 -69 -52 vhcurveto
          -1032 -1324 rlineto
          -56 -71 -9 -22 -28 vvcurveto
          endchar
        </CharString>
        <CharString name="g">
          -70 callgsubr
          endchar
        </CharString>
        <CharString name="gbreve">
          -70 callgsubr
          317 1468 -95 callsubr
        </CharString>
        <CharString name="gcircumflex">
          -23 callgsubr
          553 -20 -12 callgsubr
          -81 684 -73 -86 callgsubr
          2 1440 -97 callsubr
        </CharString>
        <CharString name="gcommaaccent">
          -23 callgsubr
          565 21 -12 callgsubr
          119 167 244 -86 callgsubr
          462 1556 rmoveto
          53 -36 28 -40 8 vhcurveto
          -26 5 -18 23 22 vvcurveto
          29 15 22 47 25 vhcurveto
          29 16 16 19 17 vvcurveto
          20 -14 20 -27 -106 -127 -82 -160 -127 58 -59 94 78 57 54 67 vhcurveto
          endchar
        </CharString>
        <CharString name="gdotaccent">
          -23 callgsubr
          194 -21 -12 callgsubr
          98 327 105 -86 callgsubr
          154 1607 rmoveto
          4 callsubr
        </CharString>
        <CharString name="germandbls">
          -55 -24 91 -67 66 847 35 670 85 hstemhm
          231 225 419 231 -21 236 hintmask 01111100
          40 -64 callgsubr
          28 28 -4 -4 28 hvcurveto
          -4 26 25 -3 28 hhcurveto
          81 18 35 callgsubr
          9 -20 -9 -9 -2 -2 -8 hvcurveto
          -2 -8 -21 callsubr
          -53 -13 25 257 hvcurveto
          888 vlineto
          270 84 108 116 4 vhcurveto
          139 5 80 -113 -228 vvcurveto
          -232 -113 -77 -111 -29 vhcurveto
          -33 -9 -18 -5 -25 vvcurveto
          -28 35 -3 63 -8 vhcurveto
          hintmask 10111010
          235 -30 152 -150 -305 vvcurveto
          -191 -60 -123 -119 -62 -63 39 74 -32 vhcurveto
          19 -8 -11 10 -13 hhcurveto
          -17 -11 -13 -21 -99 85 -100 139 236 172 176 287 248 -211 215 -278 39 hvcurveto
          hintmask 01111100
          145 61 129 144 167 vvcurveto
          223 -160 167 -264 -275 -176 -178 -432 vhcurveto
          -745 vlineto
          -1 -116 -11 -67 -18 -47 rrcurveto
          -37 -14 -36 -15 -29 hhcurveto
          -8 -9 -42 callsubr
          37 callgsubr
          endchar
        </CharString>
        <CharString name="grave">
          -801 1561 -20 hstem
          100 444 vstem
          474 1205 -72 callgsubr
        </CharString>
        <CharString name="grave.cap">
          -801 1676 -21 371 -20 hstem
          517 1655 -73 callgsubr
        </CharString>
        <CharString name="greater">
          -506 91 901 hstem
          150 689 vstem
          839 574 -1 callgsubr
          endchar
        </CharString>
        <CharString name="greaterequal">
          -506 0 137 1088 -20 hstem
          839 807 -1 callgsubr
          71 -678 rmoveto
          45 -30 23 -43 vhcurveto
          -734 hlineto
          -33 callsubr
          738 hlineto
          17 callgsubr
          hvcurveto
          endchar
        </CharString>
        <CharString name="guillemotleft">
          -303 84 878 hstemhm
          80 512 -62 512 hintmask 11000000
          109 495 rmoveto
          -57 callsubr
          hintmask 10100000
          450 hmoveto
          -57 callsubr
          endchar
        </CharString>
        <CharString name="guillemotright">
          -303 84 878 hstemhm
          100 512 -62 512 hintmask 11000000
          583 495 rmoveto
          -51 callgsubr
          9 callgsubr
          450 hmoveto
          -51 callgsubr
          hintmask 10100000
          9 callgsubr
          endchar
        </CharString>
        <CharString name="guilsinglleft">
          -753 84 878 hstem
          80 512 vstem
          109 495 rmoveto
          -57 callsubr
          endchar
        </CharString>
        <CharString name="guilsinglright">
          -753 84 878 hstem
          100 512 vstem
          583 495 rmoveto
          -51 callgsubr
          9 callgsubr
          endchar
        </CharString>
        <CharString name="h">
          3 callsubr
          hstem
          524 16 508 225 vstem
          124 -87 callsubr
          396 vlineto
          91 70 107 79 122 hhcurveto
          172 37 -157 -121 hvcurveto
          -288 -67 callgsubr
          -60 callgsubr
          16 callgsubr
          24 19 2 5 36 hvcurveto
          -100 callgsubr
          326 vlineto
          159 -58 199 -286 -168 -116 -68 -115 -105 vhcurveto
          731 vlineto
          -95 callgsubr
          -82 -136 vvcurveto
          -985 -67 callsubr
          endchar
        </CharString>
        <CharString name="hbar">
          3 callsubr
          169 97 hstemhm
          108 900 -484 16 508 225 hintmask 11101100
          124 -87 callsubr
          396 vlineto
          91 70 107 79 122 hhcurveto
          172 37 -157 -121 hvcurveto
          -288 -67 callgsubr
          -60 callgsubr
          16 callgsubr
          24 19 2 5 36 hvcurveto
          -100 callgsubr
          326 vlineto
          159 -58 199 -286 -168 -116 -68 -115 -105 vhcurveto
          352 374 vlineto
          hintmask 11110100
          6 callsubr
          hintmask 11101100
          -373 282 hlineto
          -95 callgsubr
          -82 -136 vvcurveto
          -35 -112 vlineto
          hintmask 11110100
          6 callgsubr
          115 -853 hlineto
          -92 callgsubr
          37 callgsubr
          endchar
        </CharString>
        <CharString name="hcircumflex">
          87 0 73 841 118 496 -20 22 -20 520 -20 hstemhm
          92 448 -225 225 508 225 hintmask 11011101
          124 -87 callsubr
          396 vlineto
          91 70 107 79 122 hhcurveto
          172 37 -157 -121 hvcurveto
          -288 -67 callgsubr
          -60 callgsubr
          16 callgsubr
          24 19 2 5 36 hvcurveto
          -100 callgsubr
          326 vlineto
          159 -58 199 -286 -168 -116 -68 -115 -105 vhcurveto
          558 vlineto
          -80 callsubr
          hintmask 11101101
          3 -28 -27 3 -28 hhcurveto
          -40 -18 -15 -16 -24 26 -7 26 -2 hvcurveto
          -38 callgsubr
          hintmask 11011011
          31 -38 15 -82 -136 vvcurveto
          -812 -67 callsubr
          -17 1595 -101 callgsubr
        </CharString>
        <CharString name="hungarumlaut">
          -157 1211 -21 371 -20 hstem
          741 1190 rmoveto
          -85 callgsubr
          -464 hmoveto
          -85 callgsubr
          endchar
        </CharString>
        <CharString name="hungarumlaut.cap">
          -895 1677 -21 371 -20 hstem
          485 1656 rmoveto
          -85 callgsubr
          -464 hmoveto
          -85 callgsubr
          endchar
        </CharString>
        <CharString name="hyphen">
          -570 553 137 hstem
          140 595 vstem
          211 553 rmoveto
          453 hlineto
          -40 callsubr
          -449 hlineto
          -33 callsubr
          endchar
        </CharString>
        <CharString name="i">
          26 callsubr
          424 1221 rmoveto
          -89 callsubr
          -281 -1176 rmoveto
          -24 callsubr
          80 -47 callgsubr
          vhcurveto
          -20 callgsubr
          -48 callsubr
          539 vlineto
          -105 callgsubr
          endchar
        </CharString>
        <CharString name="iacute">
          -15 callsubr
          572 -20 hstemhm
          199 444 -309 225 hintmask 11001000
          143 -87 callsubr
          539 vlineto
          -105 callgsubr
          hintmask 00110000
          83 1145 -88 callgsubr
        </CharString>
        <CharString name="ibreve">
          26 callsubr
          143 -87 callsubr
          539 vlineto
          -105 callgsubr
          278 1178 -95 callsubr
        </CharString>
        <CharString name="icircumflex">
          -15 callsubr
          596 -20 hstemhm
          79 684 -429 225 hintmask 11001000
          143 -87 callsubr
          539 vlineto
          -105 callgsubr
          hintmask 00110000
          -37 1150 -97 callsubr
        </CharString>
        <CharString name="idieresis">
          -15 callsubr
          231 297 hstemhm
          36 771 -473 225 hintmask 11001000
          143 -87 callsubr
          539 vlineto
          -105 callgsubr
          hintmask 00110000
          518 1175 rmoveto
          -89 callsubr
          -480 hmoveto
          -89 callsubr
          endchar
        </CharString>
        <CharString name="igrave">
          -15 callsubr
          572 -20 hstemhm
          199 444 -309 225 hintmask 11001000
          143 -87 callsubr
          539 vlineto
          -105 callgsubr
          hintmask 00110000
          430 1160 -72 callgsubr
        </CharString>
        <CharString name="ij">
          265 -530 86 444 66 943 -20 29 callsubr
          626 225 hintmask 01110000
          424 1221 rmoveto
          -89 callsubr
          -281 -1176 rmoveto
          -24 callsubr
          80 -47 callgsubr
          vhcurveto
          -20 callgsubr
          -48 callsubr
          539 vlineto
          -105 callgsubr
          hintmask 10101000
          1136 1176 rmoveto
          -89 callsubr
          -492 -1443 rmoveto
          -12 -9 -8 -18 hvcurveto
          -256 vlineto
          -16 67 71 -10 58 hhcurveto
          259 189 169 439 hvcurveto
          809 vlineto
          113 -12 9 -44 -21 -42 -2 -3 -26 vhcurveto
          -3 -25 -15 -4 -39 -102 callsubr
          30 -39 14 -74 -140 vvcurveto
          -561 vlineto
          -424 -77 -98 -99 -63 -54 55 124 -57 vhcurveto
          27 -12 -19 16 -17 hhcurveto
          endchar
        </CharString>
        <CharString name="imacron">
          -15 callsubr
          314 127 hstemhm
          83 676 -425 225 hintmask 11001000
          143 -87 callsubr
          539 vlineto
          -105 callgsubr
          hintmask 00110000
          -60 1258 -10 callsubr
        </CharString>
        <CharString name="infinity">
          428 240 117 515 122 hstem
          166 146 1248 146 vstem
          552 240 rmoveto
          156 2 99 128 102 135 rrcurveto
          -130 107 124 -135 175 hhcurveto
          208 183 172 225 180 -107 181 -259 -4 hvcurveto
          -157 -3 -113 -128 -107 -135 rrcurveto
          130 -107 -124 136 -175 hhcurveto
          -208 -183 -172 -225 -180 127 -181 259 4 hvcurveto
          22 117 rmoveto
          -139 -123 137 140 120 80 118 134 137 107 -174 -116 85 hvcurveto
          -112 -78 -93 -113 -110 hhcurveto
          444 293 rmoveto
          107 83 107 110 110 hhcurveto
          139 103 -132 -135 -125 -60 -123 -134 -137 -124 177 121 -87 hvcurveto
          endchar
        </CharString>
        <CharString name="integral">
          -83 -482 130 1945 120 hstemhm
          507 175 -10 175 hintmask 11010000
          150 -325 rmoveto
          -118 74 132 -39 69 hhcurveto
          261 161 246 278 hvcurveto
          hintmask 11100000
          407 -165 404 407 vvcurveto
          229 65 104 161 86 61 -76 -42 29 vhcurveto
          42 -61 150 45 -95 133 rrcurveto
          98 -70 -103 23 -69 hhcurveto
          -261 -171 -236 -278 hvcurveto
          hintmask 11010000
          -406 165 -404 -408 vvcurveto
          -229 -32 -104 -184 -86 -60 68 50 -30 vhcurveto
          -55 91 -140 -79 65 -103 rrcurveto
          endchar
        </CharString>
        <CharString name="iogonek">
          26 callsubr
          424 1221 rmoveto
          -89 callsubr
          -281 -1176 rmoveto
          -24 callsubr
          80 -47 callgsubr
          vhcurveto
          14 2 40 3 36 2 rrcurveto
          -62 -76 -44 -107 -120 vvcurveto
          -54 callgsubr
          84 29 76 32 50 vhcurveto
          58 -5 rlineto
          -48 callsubr
          539 vlineto
          -105 callgsubr
          endchar
        </CharString>
        <CharString name="itilde">
          -15 callsubr
          247 22 callsubr
          72 698 -436 225 hintmask 11000100
          143 -87 callsubr
          539 vlineto
          -105 callgsubr
          hintmask 00000000
          -48 1193 rmoveto
          10 17 9 31 21 hvcurveto
          hintmask 00101000
          42 29 28 23 30 hhcurveto
          31 28 -10 -40 74 hvcurveto
          -42 79 56 -15 43 -66 callgsubr
          hintmask 00011000
          -61 callgsubr
        </CharString>
        <CharString name="j">
          18 callsubr
          hstem
          330 225 vstem
          424 1221 rmoveto
          -89 callsubr
          -492 -1443 rmoveto
          -12 -9 -8 -18 hvcurveto
          -256 vlineto
          -16 67 71 -10 58 hhcurveto
          259 189 169 439 hvcurveto
          809 vlineto
          113 -12 9 -44 -21 -42 -2 -3 -26 vhcurveto
          -3 -25 -15 -4 -39 -102 callsubr
          30 -39 14 -74 -140 vvcurveto
          -561 vlineto
          -424 -77 -98 -99 -63 -54 55 124 -57 vhcurveto
          27 -12 -19 16 -17 hhcurveto
          endchar
        </CharString>
        <CharString name="jcircumflex">
          18 callsubr
          596 -20 hstemhm
          72 684 -426 225 hintmask 11001000
          -68 -222 rmoveto
          -12 -9 -8 -18 hvcurveto
          -256 vlineto
          -16 67 71 -10 58 hhcurveto
          259 189 169 439 hvcurveto
          809 vlineto
          113 -12 9 -44 -21 -42 -2 -3 -26 vhcurveto
          -3 -25 -15 -4 -39 -102 callsubr
          30 -39 14 -74 -140 vvcurveto
          -561 vlineto
          -424 -77 -98 -99 -63 -54 55 124 -57 vhcurveto
          27 -12 -19 16 -17 hhcurveto
          hintmask 00110000
          167 1417 -97 callsubr
        </CharString>
        <CharString name="k">
          88 0 66 886 67 -8 -20 29 callsubr
          hintmask 11010000
          143 -13 callgsubr
          85 24 22 2 5 36 vhcurveto
          -100 callgsubr
          183 vlineto
          -505 490 49 -26 61 hhcurveto
          20 19 2 3 20 hvcurveto
          2 18 24 2 21 hhcurveto
          15 30 -1 -3 29 hvcurveto
          -4 29 19 -1 22 hhcurveto
          65 16 25 23 14 -14 12 -19 -9 28 callgsubr
          -1 -8 hhcurveto
          -46 -65 36 99 -107 hvcurveto
          -415 383 163 79 157 111 116 105 rlinecurve
          64 71 31 8 24 hhcurveto
          10 9 -1 40 callgsubr
          9 -2 9 hhcurveto
          19 13 12 14 22 -10 26 -73 hvcurveto
          hintmask 10110000
          -30 -29 -4 -4 -27 hvcurveto
          -4 -27 -26 -4 -27 hhcurveto
          -37 -35 3 -13 callsubr
          hintmask 11010000
          -34 callgsubr
          992 vlineto
          -95 callgsubr
          -85 -136 vvcurveto
          -982 vlineto
          -102 -12 -87 -18 -41 vhcurveto
          -40 -18 -30 -12 -28 -8 callsubr
          endchar
        </CharString>
        <CharString name="kcommaaccent">
          88 21 callgsubr
          886 67 -8 -20 29 callsubr
          334 167 hintmask 01101000
          143 -13 callgsubr
          85 24 22 2 5 36 vhcurveto
          -100 callgsubr
          183 vlineto
          -505 490 49 -26 61 hhcurveto
          20 19 2 3 20 hvcurveto
          2 18 24 2 21 hhcurveto
          15 30 -1 -3 29 hvcurveto
          -4 29 19 -1 22 hhcurveto
          65 16 25 23 14 -14 12 -19 -9 28 callgsubr
          -1 -8 hhcurveto
          -46 -65 36 99 -107 hvcurveto
          -415 383 163 79 157 111 116 105 rlinecurve
          64 71 31 8 24 hhcurveto
          10 9 -1 40 callgsubr
          9 -2 9 hhcurveto
          19 13 12 14 22 -10 26 -73 hvcurveto
          hintmask 01011000
          -30 -29 -4 -4 -27 hvcurveto
          -4 -27 -26 -4 -27 hhcurveto
          -37 -35 3 -13 callsubr
          hintmask 01101000
          -34 callgsubr
          992 vlineto
          -95 callgsubr
          -85 -136 vvcurveto
          -982 vlineto
          -102 -12 -87 -18 -41 vhcurveto
          -40 -18 -30 -12 -28 -8 callsubr
          hintmask 10000100
          630 -268 -94 callgsubr
        </CharString>
        <CharString name="kgreenlandic">
          88 0 66 886 67 -8 -20 hstemhm
          537 22 hintmask 11010000
          143 -13 callgsubr
          85 24 22 2 5 36 vhcurveto
          -100 callgsubr
          183 vlineto
          -505 490 49 -26 61 hhcurveto
          20 19 2 3 20 hvcurveto
          2 18 24 2 21 hhcurveto
          15 30 -1 -3 29 hvcurveto
          -4 29 19 -1 22 hhcurveto
          65 16 25 23 14 -14 12 -19 -9 28 callgsubr
          -1 -8 hhcurveto
          -46 -65 36 99 -107 hvcurveto
          -415 383 163 79 157 111 116 105 rlinecurve
          64 71 31 8 24 hhcurveto
          10 9 -1 40 callgsubr
          9 -2 9 hhcurveto
          19 13 12 14 22 -10 26 -73 hvcurveto
          hintmask 10110000
          -30 -29 -4 -4 -27 hvcurveto
          -4 -27 -26 -4 -27 hhcurveto
          -37 -35 3 -13 callsubr
          hintmask 11010000
          -34 callgsubr
          300 vlineto
          113 -30 8 -44 -37 callsubr
          vhcurveto
          -3 -25 -24 -3 -25 -102 callsubr
          30 -39 14 -75 -140 vvcurveto
          -290 vlineto
          -102 -12 -87 -18 -41 vhcurveto
          -40 -18 -30 -12 -28 -8 callsubr
          endchar
        </CharString>
        <CharString name="l">
          -590 0 66 33 callsubr
          -28 callsubr
          1232 vlineto
          -95 callgsubr
          -85 -136 vvcurveto
          -982 -67 callgsubr
          -60 callgsubr
          hvcurveto
          endchar
        </CharString>
        <CharString name="lacute">
          -590 0 73 1455 -20 22 -20 519 -20 29 callsubr
          hintmask 10111000
          -28 callsubr
          1059 vlineto
          -80 callsubr
          hintmask 11011000
          3 -28 -27 3 -28 hhcurveto
          -40 -18 -15 -16 -24 26 -7 26 -2 hvcurveto
          -38 callgsubr
          31 -38 15 -85 -136 vvcurveto
          -809 -67 callgsubr
          -60 callgsubr
          hvcurveto
          118 1613 -58 callsubr
          238 122 rlineto
          98 50 38 44 59 -14 callgsubr
          -58 -46 -19 -95 -77 -69 callsubr
        </CharString>
        <CharString name="lcaron">
          -419 0 66 33 callsubr
          732 -19 callgsubr
          -586 -910 rmoveto
          16 callgsubr
          1 callgsubr
          vhcurveto
          -100 callgsubr
          1232 vlineto
          -95 callgsubr
          -85 -136 vvcurveto
          -982 -67 callgsubr
          -60 callgsubr
          hvcurveto
          endchar
        </CharString>
        <CharString name="lcommaaccent">
          -590 21 callgsubr
          29 callsubr
          -155 167 hintmask 01100000
          -28 callsubr
          1232 vlineto
          -95 callgsubr
          -85 -136 vvcurveto
          -982 -67 callgsubr
          -60 callgsubr
          hvcurveto
          hintmask 10010000
          138 -268 -94 callgsubr
        </CharString>
        <CharString name="ldot">
          -3 0 66 420 -21 29 callsubr
          426 327 hintmask 10100000
          -28 callsubr
          1232 vlineto
          -95 callgsubr
          -85 -136 vvcurveto
          -982 -67 callgsubr
          -60 callgsubr
          hvcurveto
          hintmask 01010000
          839 577 rmoveto
          4 callsubr
        </CharString>
        <CharString name="less">
          -506 91 901 hstem
          100 689 vstem
          100 514 -1 callsubr
          endchar
        </CharString>
        <CharString name="lessequal">
          -506 0 137 1088 -20 hstem
          100 747 -1 callsubr
          -71 -738 rmoveto
          -43 28 -26 43 vhcurveto
          738 hlineto
          -40 callsubr
          -734 hlineto
          -43 -30 -23 -45 hvcurveto
          endchar
        </CharString>
        <CharString name="logicalnot">
          -160 575 137 hstem
          994 141 vstem
          150 575 rmoveto
          844 -324 141 461 -985 hlineto
          endchar
        </CharString>
        <CharString name="lozenge">
          -30 609 hmoveto
          66 -20 63 0 58 20 431 671 rcurveline
          6 19 -1 18 -5 17 -421 691 rcurveline
          -23 36 -136 1 -28 -37 -431 -671 rcurveline
          -8 -16 0 -22 8 -16 rrcurveto
          527 -565 rmoveto
          -356 610 340 554 357 -611 rlineto
          endchar
        </CharString>
        <CharString name="lslash">
          -590 0 66 621 453 hstemhm
          130 652 -448 225 hintmask 11010000
          -28 callsubr
          571 vlineto
          142 93 rlineto
          hintmask 11100000
          57 35 23 26 1 25 rrcurveto
          26 -21 16 -21 -21 -26 -13 -36 -58 vhcurveto
          hintmask 11010000
          -76 -50 rlineto
          539 vlineto
          -95 callgsubr
          -85 -136 vvcurveto
          -435 vlineto
          -145 -94 rlineto
          hintmask 11100000
          -30 -20 -29 -19 -32 vvcurveto
          -26 19 -17 27 13 24 9 29 48 vhcurveto
          hintmask 11010000
          73 47 rlineto
          -424 -67 callgsubr
          -60 callgsubr
          hvcurveto
          endchar
        </CharString>
        <CharString name="m">
          45 callgsubr
          hstemhm
          295 225 516 225 515 225 hintmask 10111100
          104 -25 callsubr
          vhcurveto
          hintmask 01111100
          28 22 3 4 27 hvcurveto
          -20 callgsubr
          hintmask 10111100
          -29 callsubr
          39 hhcurveto
          81 18 22 23 hvcurveto
          hintmask 01111100
          19 -12 9 -20 -9 -9 -2 -2 -8 vhcurveto
          hintmask 10111100
          8 callgsubr
          430 vlineto
          95 105 100 49 106 hhcurveto
          128 77 -86 -142 hvcurveto
          -346 -67 callgsubr
          hintmask 01111100
          -60 callgsubr
          hvcurveto
          hintmask 10111100
          16 callgsubr
          vhcurveto
          hintmask 01111100
          -19 callsubr
          hintmask 10111100
          -3 20 34 -4 25 hhcurveto
          72 19 25 21 hvcurveto
          hintmask 01111100
          2 callgsubr
          hintmask 10111100
          -2 -9 -8 -1 -8 hhcurveto
          -28 -33 16 36 -13 hvcurveto
          -18 48 -9 52 130 vvcurveto
          345 vlineto
          27 -3 26 -5 25 vhcurveto
          100 109 101 51 110 hhcurveto
          126 77 -86 -142 hvcurveto
          -346 -67 callgsubr
          hintmask 01111100
          -60 callgsubr
          hvcurveto
          hintmask 10111100
          16 callgsubr
          vhcurveto
          hintmask 01111100
          -19 callsubr
          hintmask 10111100
          -3 20 34 -4 25 hhcurveto
          72 19 25 21 hvcurveto
          hintmask 01111100
          2 callgsubr
          hintmask 10111100
          -55 callsubr
          hintmask 01111100
          37 callgsubr
          endchar
        </CharString>
        <CharString name="macron">
          -569 1303 127 hstem
          100 676 vstem
          100 1303 -10 callsubr
        </CharString>
        <CharString name="macron.cap">
          -2467 1801 137 hstem
          -171 1801 -45 callgsubr
        </CharString>
        <CharString name="minus">
          -249 553 137 hstem
          229 553 rmoveto
          738 hlineto
          -40 callsubr
          -734 hlineto
          -33 callsubr
          endchar
        </CharString>
        <CharString name="mu">
          87 -509 -21 506 110 -89 66 -42 -21 946 66 -3 -20 hstemhm
          271 144 568 225 hintmask 11001011
          271 -43 rmoveto
          -403 100 -84 100 55 48 36 51 37 -14 33 -47 40 vhcurveto
          -50 43 -48 31 91 vvcurveto
          79 16 74 23 73 vhcurveto
          -51 72 90 -31 96 hhcurveto
          101 94 26 59 83 hvcurveto
          hintmask 10011011
          -48 10 22 -13 27 -68 callgsubr
          16 2 17 hhcurveto
          16 29 -1 -4 30 hvcurveto
          hintmask 10100111
          -3 29 28 -1 21 hhcurveto
          73 20 25 23 14 -13 11 -19 -10 -8 -1 -34 callsubr
          -10 -2 -9 -27 callsubr
          39 -16 hvcurveto
          -18 45 -3 64 130 vvcurveto
          518 vlineto
          123 -16 23 -50 -21 -20 -1 -2 -18 vhcurveto
          -1 -17 -16 -2 -17 hhcurveto
          -16 -29 1 4 -30 hvcurveto
          hintmask 11001011
          -83 callgsubr
          -505 vlineto
          -48 -63 -68 -25 -73 hhcurveto
          -163 -120 122 160 hvcurveto
          496 vlineto
          hintmask 11000111
          123 -16 22 -50 -21 -20 -1 -2 -18 vhcurveto
          -1 -17 -16 -2 -17 hhcurveto
          -16 -29 1 4 -30 hvcurveto
          hintmask 11001011
          -82 callsubr
          endchar
        </CharString>
        <CharString name="multiply">
          -270 205 877 hstem
          150 875 vstem
          255 214 rmoveto
          331 331 339 -340 100 100 -339 340 331 331 -97 97 -331 -331 -339 340 -100 -100 339 -340 -331 -331 rlineto
          endchar
        </CharString>
        <CharString name="n">
          3 callsubr
          hstem
          524 16 508 225 vstem
          124 -87 callsubr
          396 vlineto
          91 70 107 79 122 hhcurveto
          172 37 -157 -121 hvcurveto
          -288 -67 callgsubr
          -60 callgsubr
          16 callgsubr
          24 19 2 5 36 hvcurveto
          -100 callgsubr
          326 vlineto
          159 -58 199 -286 -168 -116 -68 -115 -105 vhcurveto
          38 vlineto
          -105 callgsubr
          endchar
        </CharString>
        <CharString name="nacute">
          3 callsubr
          529 -20 hstemhm
          524 16 34 444 30 225 hintmask 11010100
          124 -87 callsubr
          396 vlineto
          91 70 107 79 122 hhcurveto
          172 37 -157 -121 hvcurveto
          -288 -67 callgsubr
          -60 callgsubr
          16 callgsubr
          24 19 2 5 36 hvcurveto
          -100 callgsubr
          326 vlineto
          159 -58 199 -286 -168 -116 -68 -115 -105 vhcurveto
          38 vlineto
          -105 callgsubr
          hintmask 00101000
          477 1145 -88 callgsubr
        </CharString>
        <CharString name="nbspace">
          -895 endchar
        </CharString>
        <CharString name="ncaron">
          3 callsubr
          40 callsubr
          454 684 -614 16 508 225 hintmask 11001100
          124 -87 callsubr
          396 vlineto
          91 70 107 79 122 hhcurveto
          172 37 -157 -121 hvcurveto
          -288 -67 callgsubr
          -60 callgsubr
          16 callgsubr
          24 19 2 5 36 hvcurveto
          -100 callgsubr
          326 vlineto
          159 -58 199 -286 -168 -116 -68 -115 -105 vhcurveto
          38 vlineto
          -105 callgsubr
          hintmask 00110000
          670 1150 -102 callgsubr
        </CharString>
        <CharString name="ncommaaccent">
          87 21 callgsubr
          848 118 hstemhm
          524 16 202 167 139 225 hintmask 01110100
          124 -87 callsubr
          396 vlineto
          91 70 107 79 122 hhcurveto
          172 37 -157 -121 hvcurveto
          -288 -67 callgsubr
          -60 callgsubr
          16 callgsubr
          24 19 2 5 36 hvcurveto
          -100 callgsubr
          326 vlineto
          159 -58 199 -286 -168 -116 -68 -115 -105 vhcurveto
          38 vlineto
          -105 callgsubr
          hintmask 10001000
          498 -268 -94 callgsubr
        </CharString>
        <CharString name="nine">
          0 -24 96 449 130 359 -20 476 96 hstem
          140 228 682 235 vstem
          208 238 rmoveto
          -95 122 -167 287 414 254 362 487 442 -231 295 -379 -281 -254 -198 -329 -303 228 -211 264 184 149 91 126 84 vhcurveto
          -454 -11 -191 -212 -234 hhcurveto
          -156 -132 64 101 -43 hvcurveto
          31 -13 -13 10 -20 hhcurveto
          -18 -10 -17 -23 hvcurveto
          517 413 rmoveto
          -149 -208 185 296 207 104 127 178 190 170 -204 -352 34 hvcurveto
          -175 -58 -87 -84 -174 hhcurveto
          endchar
        </CharString>
        <CharString name="notequal">
          10 callgsubr
          387 rmoveto
          354 hlineto
          -52 -142 rlineto
          15 callsubr
          94 257 rlineto
          484 137 -434 hlineto
          70 193 rlineto
          364 137 -314 hlineto
          77 209 10 callsubr
          -80 -217 rlineto
          -525 -137 475 hlineto
          -71 -193 rlineto
          -404 hlineto
          endchar
        </CharString>
        <CharString name="ntilde">
          3 callsubr
          204 22 callsubr
          447 698 -621 16 508 225 hintmask 11000110
          124 -87 callsubr
          396 vlineto
          91 70 107 79 122 hhcurveto
          172 37 -157 -121 hvcurveto
          -288 -67 callgsubr
          -60 callgsubr
          16 callgsubr
          24 19 2 5 36 hvcurveto
          -100 callgsubr
          326 vlineto
          159 -58 199 -286 -168 -116 -68 -115 -105 vhcurveto
          38 vlineto
          -105 callgsubr
          hintmask 00000000
          346 1193 rmoveto
          10 17 9 31 21 hvcurveto
          hintmask 00101000
          42 29 28 23 30 hhcurveto
          31 28 -10 -40 74 hvcurveto
          -42 79 56 -15 43 -66 callgsubr
          hintmask 00011000
          -61 callgsubr
        </CharString>
        <CharString name="numbersign">
          81 -3 -21 527 137 281 137 503 -20 hstem
          100 1326 vstem
          297 41 rmoveto
          25 callgsubr
          343 36 callgsubr
          25 callgsubr
          209 43 callsubr
          -175 hlineto
          66 281 rlineto
          211 43 callsubr
          -177 -2 callsubr
          -343 -2 callsubr
          -256 hlineto
          -43 -40 -23 -45 -43 38 -26 43 hvcurveto
          226 hlineto
          -66 -281 rlineto
          -248 hlineto
          -43 -40 -23 -45 -43 38 -26 43 hvcurveto
          218 36 callgsubr
          281 599 rmoveto
          66 281 rlineto
          343 hlineto
          -66 -281 rlineto
          endchar
        </CharString>
        <CharString name="o">
          -3 callsubr
          hstem
          30 callsubr
          643 240 vstem
          -90 callgsubr
          endchar
        </CharString>
        <CharString name="oacute">
          -3 callsubr
          529 -20 39 callgsubr
          101 444 98 240 hintmask 11010100
          -90 callgsubr
          hintmask 00101000
          128 606 -88 callgsubr
        </CharString>
        <CharString name="obreve">
          -3 callsubr
          hstem
          30 callsubr
          643 240 vstem
          -90 callgsubr
          323 639 -95 callsubr
        </CharString>
        <CharString name="ocircumflex">
          -3 callsubr
          553 -20 39 callgsubr
          -19 684 -22 240 hintmask 11010100
          -90 callgsubr
          hintmask 00101000
          8 611 -97 callsubr
        </CharString>
        <CharString name="odieresis">
          -3 callsubr
          188 297 39 callgsubr
          -62 771 -66 240 hintmask 11010100
          -90 callgsubr
          hintmask 00101000
          563 636 rmoveto
          -89 callsubr
          -480 hmoveto
          -89 callsubr
          endchar
        </CharString>
        <CharString name="oe">
          656 -24 88 -88 116 849 91 39 callgsubr
          806 70 hintmask 10111000
          123 503 rmoveto
          -239 145 -288 420 190 156 74 110 96 vhcurveto
          -115 103 157 -69 174 hhcurveto
          167 2 callsubr
          hintmask 01111000
          -81 -56 -142 -55 -98 hhcurveto
          -173 -164 123 211 -47 hvcurveto
          218 52 203 46 306 111 rrcurveto
          41 15 5 22 23 vvcurveto
          23 -9 20 -17 30 vhcurveto
          94 -52 -116 170 -273 hhcurveto
          -155 -136 -55 -87 -97 hvcurveto
          -17 -16 -16 -16 -15 -17 -17 20 -18 18 -21 18 rrcurveto
          76 -89 -126 59 -167 hhcurveto
          -314 -247 -240 -289 hvcurveto
          236 81 rmoveto
          209 119 148 151 180 193 -198 -332 vhcurveto
          hintmask 10111000
          -207 -122 -140 -146 -192 -183 227 293 vhcurveto
          881 -73 rmoveto
          -1 13 0 14 14 vvcurveto
          264 132 124 160 158 97 -177 -73 -12 -3 -11 -21 -7 vhcurveto
          -143 -50 -183 -51 -196 -48 rrcurveto
          endchar
        </CharString>
        <CharString name="ogonek">
          -216 92 -20 hstem
          247 157 vstem
          247 -289 rmoveto
          -54 callgsubr
          128 68 109 42 29 vhcurveto
          -77 24 rlineto
          -103 -69 -87 -143 -169 vvcurveto
          endchar
        </CharString>
        <CharString name="ograve">
          -3 callsubr
          529 -20 39 callgsubr
          101 444 98 240 hintmask 11010100
          -90 callgsubr
          hintmask 00101000
          475 621 -72 callgsubr
        </CharString>
        <CharString name="ohungarumlaut">
          -3 callsubr
          hstem
          30 callsubr
          643 240 vstem
          -90 callgsubr
          420 606 rmoveto
          -85 callgsubr
          -464 hmoveto
          -85 callgsubr
          endchar
        </CharString>
        <CharString name="omacron">
          -3 callsubr
          271 127 39 callgsubr
          -15 676 -18 240 hintmask 11010100
          -90 callgsubr
          hintmask 00101000
          -15 719 -10 callsubr
        </CharString>
        <CharString name="one">
          -515 0 66 1495 -20 hstem
          392 222 vstem
          149 46 rmoveto
          16 callsubr
          39 67 -31 callgsubr
          vhcurveto
          -101 callsubr
          917 vlineto
          84 2 57 3 42 vhcurveto
          3 48 5 29 31 vvcurveto
          19 -7 13 -14 -16 -15 -11 -24 -33 vhcurveto
          -87 -63 -126 -52 -112 -41 rrcurveto
          -74 -27 -13 -13 -16 vvcurveto
          -15 12 -10 16 26 22 4 3 20 vhcurveto
          4 28 23 3 18 hhcurveto
          73 24 -76 -169 hvcurveto
          -737 vlineto
          -74 callsubr
          hvcurveto
          endchar
        </CharString>
        <CharString name="onehalf">
          637 -3 -21 24 152 480 55 154 88 632 -20 24 -20 hstemhm
          269 192 -91 1264 132 195 hintmask 1000100100000000
          370 -39 callgsubr
          hintmask 0010011000000000
          -189 604 -75 callgsubr
          hintmask 0101000010000000
          1164 -632 -49 callgsubr
        </CharString>
        <CharString name="onequarter">
          586 0 55 201 108 268 55 874 -20 24 -20 hstemhm
          269 192 1033 187 hintmask 11010010
          370 -39 callgsubr
          694 -62 callsubr
          hintmask 00101100
          -1313 268 -75 callgsubr
          endchar
        </CharString>
        <CharString name="onesuperior">
          -756 632 55 878 -20 hstem
          269 192 vstem
          181 632 -75 callgsubr
          endchar
        </CharString>
        <CharString name="ordfeminine">
          -315 754 62 664 81 -26 -20 51 -20 hstemhm
          710 201 hintmask 11001000
          761 756 rmoveto
          17 15 1 1 14 hvcurveto
          1 13 35 2 14 hhcurveto
          19 29 -2 -1 18 hvcurveto
          -2 21 21 -2 21 hhcurveto
          57 20 24 17 16 -15 13 -15 -8 -7 -1 -2 -7 hvcurveto
          -3 -10 -9 -2 -10 hhcurveto
          -28 -26 11 31 -12 hvcurveto
          -14 35 -3 43 101 vvcurveto
          211 vlineto
          172 -74 141 -305 -71 -43 -7 -11 -41 vhcurveto
          hintmask 10111000
          -4 -14 -8 -4 -10 hhcurveto
          -10 -16 8 7 -15 hvcurveto
          10 -18 -15 6 -15 hhcurveto
          -10 -15 -5 -29 -60 -6 -62 -15 -47 hvcurveto
          -6 -15 -3 -13 -11 vvcurveto
          -10 10 -11 13 13 11 7 43 32 vhcurveto
          hintmask 11001000
          93 68 67 34 85 hhcurveto
          138 72 -76 -137 hvcurveto
          -83 vlineto
          35 -17 32 -21 28 -26 -32 -66 rcurveline
          -12 17 -23 17 -28 16 rrcurveto
          -201 vlineto
          11 11 9 12 9 13 11 -81 rcurveline
          -11 -14 -12 -14 -14 -12 rrcurveto
          -49 7 17 -13 24 hhcurveto
          -283 -19 rmoveto
          -217 -111 97 151 179 160 68 176 75 80 -16 -32 69 hvcurveto
          -80 vlineto
          26 -50 -67 21 -61 hhcurveto
          -102 -65 -69 -80 -95 61 -77 107 62 68 27 46 47 hvcurveto
          -33 vlineto
          -21 1 -17 2 -14 vhcurveto
          -51 -60 -88 -30 -87 hhcurveto
          endchar
        </CharString>
        <CharString name="ordmasculine">
          -313 737 85 654 85 hstem
          130 218 431 223 vstem
          571 737 rmoveto
          280 151 188 238 193 -134 205 -300 -245 -193 -188 -225 -186 113 -225 328 hvcurveto
          40 85 rmoveto
          -134 -129 165 229 150 62 110 118 129 122 -122 -279 -174 -72 -79 -96 hvcurveto
          endchar
        </CharString>
        <CharString name="oslash">
          -79 -218 1445 -1251 88 877 91 39 callgsubr
          -171 1014 -200 240 hintmask 10001000
          220 -94 rmoveto
          -25 -38 -7 -19 -17 vvcurveto
          42 callsubr
          127 189 rlineto
          hintmask 01110100
          -27 70 83 -16 98 hhcurveto
          360 194 240 306 148 -62 153 -132 100 hvcurveto
          118 175 rlineto
          hintmask 10001000
          24 34 12 26 callgsubr
          -133 -196 rlineto
          hintmask 01110100
          32 -74 -88 19 -103 hhcurveto
          -314 -247 -240 -289 -153 59 -172 151 -105 hvcurveto
          118 174 rmoveto
          -56 90 -36 117 130 vvcurveto
          209 119 148 151 77 79 -37 -68 66 vhcurveto
          -323 -682 rmoveto
          395 585 rlineto
          48 -86 31 -110 -132 vvcurveto
          -207 -122 -140 -146 -73 -72 33 57 -61 vhcurveto
          endchar
        </CharString>
        <CharString name="otilde">
          -3 callsubr
          204 22 callsubr
          123 236 -26 698 -29 240 hintmask 11001010
          -90 callgsubr
          hintmask 00000000
          -3 654 rmoveto
          10 17 9 31 21 hvcurveto
          hintmask 00100100
          42 29 28 23 30 hhcurveto
          31 28 -10 -40 74 hvcurveto
          -42 79 56 -15 43 -66 callgsubr
          hintmask 00010100
          -61 callgsubr
        </CharString>
        <CharString name="p">
          14 callsubr
          -23 -20 hstemhm
          421 12 605 230 hintmask 11101100
          208 -182 rmoveto
          -72 callsubr
          232 vlineto
          -47 73 94 -27 124 hhcurveto
          310 234 239 290 328 -210 199 -344 -108 -100 -34 -53 -77 hvcurveto
          hintmask 11011100
          -26 callsubr
          hintmask 11101100
          -27 callgsubr
          endchar
        </CharString>
        <CharString name="paragraph">
          92 -3 65 -41 -21 22 -21 1479 66 -15 -20 40 -20 hstemhm
          763 117 213 117 hintmask 10001011
          539 44 rmoveto
          -23 20 -24 73 vhcurveto
          hintmask 00101011
          22 41 2 2 20 hvcurveto
          2 21 20 3 21 hhcurveto
          17 14 -2 -1 14 hvcurveto
          hintmask 01000111
          -2 16 21 -1 21 hhcurveto
          1531 vlineto
          -23 -29 4 6 -26 hvcurveto
          9 -41 -58 1 -68 hhcurveto
          -329 -143 -194 -186 -262 208 -144 262 36 53 6 9 41 hvcurveto
          -436 vlineto
          -130 -3 -54 -18 -45 vhcurveto
          hintmask 10001011
          -39 -16 -43 -14 -36 hhcurveto
          -9 -19 1 2 -10 hvcurveto
          2 -9 -19 3 -10 hhcurveto
          -19 -13 -12 -14 hvcurveto
          hintmask 01010011
          554 -44 rmoveto
          117 1227 hlineto
          113 11 57 27 47 vhcurveto
          -87 callgsubr
          -50 callsubr
          13 hhcurveto
          21 12 11 16 -52 callgsubr
          -39 -47 -4 -3 -24 hvcurveto
          hintmask 01001011
          -5 -31 -67 -3 -34 hhcurveto
          endchar
        </CharString>
        <CharString name="parenleft">
          44 callsubr
          140 240 vstem
          140 715 rmoveto
          -664 279 -336 311 68 38 20 23 15 -11 9 -17 -10 -10 -2 -1 -9 vhcurveto
          -1 -10 -10 -1 -11 hhcurveto
          -197 -171 264 674 674 171 264 197 11 10 -1 -1 10 hvcurveto
          -1 9 10 -2 10 hhcurveto
          17 11 9 15 23 -38 20 -68 -311 -279 -336 -664 hvcurveto
          endchar
        </CharString>
        <CharString name="parenright">
          44 callsubr
          456 240 vstem
          696 715 rmoveto
          664 -279 336 -311 -68 -38 -20 -23 -15 11 -9 17 10 10 2 1 9 vhcurveto
          1 10 10 1 11 hhcurveto
          197 171 -264 -674 -674 -171 -264 -197 -11 -10 1 1 -10 hvcurveto
          1 -9 -10 2 -10 hhcurveto
          -17 -11 -9 -15 -23 38 -20 68 311 279 336 664 hvcurveto
          endchar
        </CharString>
        <CharString name="partialdiff">
          90 -24 103 879 140 484 103 hstem
          300 189 615 192 vstem
          300 544 rmoveto
          -355 -24 152 -213 292 hhcurveto
          278 266 400 476 32 hvcurveto
          525 37 -189 308 -355 hhcurveto
          -247 -118 -180 -102 -7 hvcurveto
          -25 -1 17 -18 15 hhcurveto
          18 22 10 34 13 hvcurveto
          109 45 98 69 134 hhcurveto
          194 145 -215 -458 -13 hvcurveto
          120 -64 -123 69 -147 hhcurveto
          -226 -221 -228 -326 -23 hvcurveto
          189 -105 rmoveto
          349 24 190 170 128 hhcurveto
          138 88 -99 -152 32 hvcurveto
          -398 -51 -164 -230 -168 hhcurveto
          -195 -37 137 223 15 hvcurveto
          endchar
        </CharString>
        <CharString name="percent">
          445 7 callgsubr
          130 -52 callsubr
          458 -602 rmoveto
          -160 97 -193 281 -39 callsubr
          vhcurveto
          189 59 rmoveto
          -29 callgsubr
          -117 -116 144 191 vhcurveto
          endchar
        </CharString>
        <CharString name="period">
          -933 -3 -21 hstem
          92 327 vstem
          92 133 rmoveto
          4 callsubr
        </CharString>
        <CharString name="periodcentered">
          -933 486 -21 hstem
          92 327 vstem
          92 622 rmoveto
          4 callsubr
        </CharString>
        <CharString name="perthousand">
          1445 7 callgsubr
          160 189 373 188 144 -52 callsubr
          1382 -602 rmoveto
          -160 97 -193 281 -39 callsubr
          vhcurveto
          -894 hmoveto
          -160 97 -193 281 -39 callsubr
          vhcurveto
          1083 59 rmoveto
          -29 callgsubr
          -117 -116 144 191 vhcurveto
          -894 hmoveto
          -29 callgsubr
          -117 -116 144 191 vhcurveto
          endchar
        </CharString>
        <CharString name="pi">
          435 -20 -21 1131 72 -72 100 hstemhm
          1074 184 hintmask 10110000
          440 53 rmoveto
          -58 1 27 -27 48 hhcurveto
          60 38 21 144 22 hvcurveto
          156 957 rlineto
          -1 69 67 -1 67 hhcurveto
          183 -2 -93 -725 rlineto
          -6 -43 -5 -130 -12 vvcurveto
          -138 3 80 -79 162 hhcurveto
          46 66 14 59 48 -46 22 -50 6 hvcurveto
          -62 7 -15 46 57 vvcurveto
          39 76 634 27 195 vhcurveto
          66 hlineto
          118 131 13 47 22 -11 22 -62 hvcurveto
          hintmask 11010000
          -73 -45 -28 -79 hhcurveto
          -89 -179 1 1 -131 hvcurveto
          1 -134 -139 1 -108 hhcurveto
          -85 -181 5 -58 -97 hvcurveto
          -50 -30 -9 -45 -6 vvcurveto
          -21 16 -30 58 97 -16 106 3 273 vhcurveto
          -169 -866 rlineto
          -15 -97 -8 -50 -24 vvcurveto
          endchar
        </CharString>
        <CharString name="plus">
          -160 575 137 hstem
          572 141 vstem
          572 141 rmoveto
          141 434 8 callsubr
          endchar
        </CharString>
        <CharString name="plusminus">
          -160 172 137 563 137 hstem
          572 141 vstem
          572 458 rmoveto
          141 414 8 callsubr
          -422 -700 rmoveto
          19 callsubr
          endchar
        </CharString>
</ttFont>
